<svg width="100" height="84" viewBox="0 0 100 84" fill="none" xmlns="http://www.w3.org/2000/svg">
<path opacity="0.5" fill-rule="evenodd" clip-rule="evenodd" d="M52.0735 16.0647C52.0735 17.1696 51.1531 18.0585 50.0561 18.0585C48.9592 18.0585 48.0387 17.1696 48.0387 16.0647V1.9938C48.0387 0.888957 48.9592 0 50.0561 0C51.1531 0 52.0735 0.888957 52.0735 1.9938V16.0647ZM78.3129 26.3891C78.3129 26.3891 99.3065 44.4604 99.3191 44.4731C99.7352 44.8286 99.9874 45.362 100 45.9589V76.5517C100 80.298 96.9739 83.3332 93.2669 83.3332H7.17438C3.19001 83.3332 0 80.0694 0 76.0564V45.9589C0 45.3493 0.252175 44.8032 0.668264 44.4223L22.2418 26.3764C22.5949 26.0717 23.0362 25.9193 23.5027 25.9193H77.0269C77.4934 25.9193 77.9599 26.0844 78.3129 26.3891ZM76.2957 29.856H24.2216L7.40153 43.9523H29.9964H31.976C33.0729 43.9523 33.9177 44.854 33.9177 45.9589V48.6892C33.9177 52.7403 37.2338 56.0168 41.2686 56.0168H59.2613C62.9683 56.0168 66.07 53.0197 66.07 49.2861V45.9589C66.07 44.854 66.8644 43.9523 67.9614 43.9523H70.067H92.6493L76.2957 29.856ZM96.0783 76.5397C96.0783 78.0763 94.7795 79.3844 93.2539 79.3844H7.17395C5.3709 79.3844 3.90828 77.8604 3.90828 76.0444V47.8899H30.0084V48.69C30.0084 54.9507 35.0519 60.0813 41.268 60.0813H59.2607C65.149 60.0813 69.9781 55.2047 69.9781 49.2868V47.8899H96.0783V76.5397ZM63.6617 17.8292C63.977 18.007 64.3174 18.0959 64.6578 18.0959C65.3513 18.0959 66.0196 17.7403 66.3852 17.0926L73.4587 4.74885C74.0135 3.78369 73.6857 2.55185 72.7274 1.99308C71.7692 1.43431 70.5461 1.76449 69.9913 2.72965L62.9178 15.0734C62.3757 16.0386 62.7035 17.2704 63.6617 17.8292ZM35.707 18.0959C35.0261 18.0959 34.3453 17.7403 33.9796 17.0926L26.8935 4.74885C26.3387 3.78369 26.6665 2.55185 27.6248 1.99308C28.5831 1.43431 29.8061 1.76449 30.3609 2.72965L37.4344 15.0734C37.9892 16.0386 37.6614 17.2704 36.7031 17.8292C36.3879 18.007 36.0474 18.0959 35.707 18.0959Z" fill="#26A5BB"/>
</svg>
