<svg width="20" height="20" viewBox="0 0 20 20" fill="none" xmlns="http://www.w3.org/2000/svg">
<path d="M9.99935 18.3333C12.3005 18.3333 14.3838 17.4005 15.8919 15.8925C17.3999 14.3845 18.3327 12.3011 18.3327 9.99996C18.3327 7.69879 17.3999 5.61546 15.8919 4.1074C14.3838 2.59937 12.3005 1.66663 9.99935 1.66663C7.69818 1.66663 5.61485 2.59937 4.10679 4.1074C2.59876 5.61546 1.66602 7.69879 1.66602 9.99996C1.66602 12.3011 2.59876 14.3845 4.10679 15.8925C5.61485 17.4005 7.69818 18.3333 9.99935 18.3333Z" stroke="#525252" stroke-width="1.6" stroke-linejoin="round"/>
<path d="M10 11.927V10.2604C11.3807 10.2604 12.5 9.14108 12.5 7.76038C12.5 6.37967 11.3807 5.26038 10 5.26038C8.61929 5.26038 7.5 6.37967 7.5 7.76038" stroke="#525252" stroke-width="1.6" stroke-linecap="round" stroke-linejoin="round"/>
<path fill-rule="evenodd" clip-rule="evenodd" d="M10.0007 15.677C10.5759 15.677 11.0423 15.2106 11.0423 14.6353C11.0423 14.06 10.5759 13.5936 10.0007 13.5936C9.42536 13.5936 8.95898 14.06 8.95898 14.6353C8.95898 15.2106 9.42536 15.677 10.0007 15.677Z" fill="#525252"/>
</svg>
