<svg width="12" height="12" viewBox="0 0 12 12" fill="none" xmlns="http://www.w3.org/2000/svg">
<path fill-rule="evenodd" clip-rule="evenodd" d="M10.2816 1.65799C10.1598 1.55345 10.0038 1.49726 9.84337 1.5001L9.83453 1.50018H8.99953V6.00018H9.83453L9.84337 6.00026C10.0038 6.0031 10.1598 5.94691 10.2816 5.84237C10.396 5.74413 10.4728 5.60961 10.4995 5.46175V2.03861C10.4728 1.89075 10.396 1.75623 10.2816 1.65799ZM7.99953 6.39407L6.19561 10.4529C6.04492 10.4048 5.90634 10.3212 5.79242 10.2073C5.60488 10.0198 5.49953 9.7654 5.49953 9.50018V7.50018C5.49953 7.22404 5.27567 7.00018 4.99953 7.00018H2.16953L2.16387 7.00021C2.09139 7.00103 2.0196 6.98609 1.95347 6.95641C1.88735 6.92673 1.82846 6.88303 1.7809 6.82833C1.73334 6.77364 1.69824 6.70926 1.67803 6.63965C1.65785 6.57013 1.653 6.49707 1.66382 6.4255C1.66381 6.42559 1.66384 6.4254 1.66382 6.4255L2.35387 1.92515C2.37196 1.80592 2.43252 1.69725 2.5244 1.61915C2.61628 1.54105 2.73329 1.49879 2.85387 1.50015L7.99953 1.50018V6.39407ZM9.8305 0.500181C10.2343 0.494214 10.6264 0.636094 10.9329 0.899192C11.2406 1.16334 11.4407 1.53127 11.495 1.93316C11.498 1.95537 11.4995 1.97776 11.4995 2.00018V5.50018C11.4995 5.5226 11.498 5.54499 11.495 5.5672C11.4407 5.96909 11.2406 6.33703 10.9329 6.60117C10.6264 6.86427 10.2343 7.00615 9.8305 7.00018H8.82446L6.95643 11.2033C6.87618 11.3838 6.69712 11.5002 6.49953 11.5002C5.96909 11.5002 5.46039 11.2895 5.08531 10.9144C4.71024 10.5393 4.49953 10.0306 4.49953 9.50018V8.00018H2.17208C1.95571 8.00218 1.74145 7.95735 1.54401 7.86874C1.34563 7.7797 1.16898 7.6486 1.02629 7.48451C0.883612 7.32043 0.77831 7.12728 0.717684 6.91846C0.657058 6.70964 0.642558 6.49013 0.675189 6.27515L1.36518 1.77521C1.36516 1.77536 1.3652 1.77506 1.36518 1.77521C1.41951 1.41771 1.60122 1.09141 1.87675 0.857208C2.15161 0.623581 2.50142 0.496851 2.86207 0.500181H9.8305Z" fill="#CCCCCC"/>
</svg>
