<svg width="20" height="20" viewBox="0 0 20 20" fill="none" xmlns="http://www.w3.org/2000/svg">
<path d="M9.9984 2.84574V6.74829C9.99745 7.49772 9.73817 8.2239 9.26425 8.80445C8.79033 9.385 8.13076 9.78442 7.39669 9.93538V17.1551C7.39669 17.3276 7.32817 17.493 7.20619 17.615C7.08421 17.737 6.91877 17.8055 6.74627 17.8055C6.57377 17.8055 6.40833 17.737 6.28635 17.615C6.16437 17.493 6.09584 17.3276 6.09584 17.1551V9.93538C5.36178 9.78442 4.70221 9.385 4.22829 8.80445C3.75437 8.2239 3.49509 7.49772 3.49414 6.74829V2.84574C3.49414 2.67323 3.56267 2.5078 3.68465 2.38582C3.80662 2.26384 3.97206 2.19531 4.14457 2.19531C4.31707 2.19531 4.48251 2.26384 4.60449 2.38582C4.72647 2.5078 4.79499 2.67323 4.79499 2.84574V6.74829C4.79666 7.15042 4.92253 7.54222 5.15538 7.87008C5.38824 8.19794 5.7167 8.44585 6.09584 8.57989V2.84574C6.09584 2.67323 6.16437 2.5078 6.28635 2.38582C6.40833 2.26384 6.57377 2.19531 6.74627 2.19531C6.91877 2.19531 7.08421 2.26384 7.20619 2.38582C7.32817 2.5078 7.39669 2.67323 7.39669 2.84574V8.57989C7.77583 8.44585 8.1043 8.19794 8.33715 7.87008C8.57001 7.54222 8.69588 7.15042 8.69755 6.74829V2.84574C8.69755 2.67323 8.76607 2.5078 8.88805 2.38582C9.01003 2.26384 9.17547 2.19531 9.34797 2.19531C9.52047 2.19531 9.68591 2.26384 9.80789 2.38582C9.92987 2.5078 9.9984 2.67323 9.9984 2.84574ZM16.5027 8.69957C16.4736 9.93567 16.166 11.1493 15.603 12.2501C15.0399 13.3509 14.2358 14.3105 13.2505 15.0575V17.1551C13.2505 17.3276 13.182 17.493 13.06 17.615C12.938 17.737 12.7726 17.8055 12.6001 17.8055C12.4276 17.8055 12.2622 17.737 12.1402 17.615C12.0182 17.493 11.9497 17.3276 11.9497 17.1551V3.49616C11.9438 3.25177 12.0106 3.01115 12.1416 2.80472C12.2725 2.59828 12.4617 2.43533 12.6853 2.33645C12.9421 2.23197 13.2238 2.20457 13.496 2.25759C13.7681 2.31061 14.0189 2.44175 14.2177 2.635C15.7263 4.2903 16.5439 6.46035 16.5027 8.69957ZM15.2018 8.69957C15.2203 6.79522 14.524 4.95317 13.2505 3.53714V13.2981C14.4695 12.0741 15.1685 10.4266 15.2018 8.69957Z" fill="#26A5BB"/>
</svg>
