<svg width="12" height="12" viewBox="0 0 12 12" fill="none" xmlns="http://www.w3.org/2000/svg">
<path d="M10.0909 6C10.0909 3.74065 8.25935 1.90909 6 1.90909C3.74065 1.90909 1.90909 3.74065 1.90909 6C1.90909 8.25935 3.74065 10.0909 6 10.0909C8.25935 10.0909 10.0909 8.25935 10.0909 6ZM11 6C11 8.76142 8.76142 11 6 11C3.23858 11 1 8.76142 1 6C1 3.23858 3.23858 1 6 1C8.76142 1 11 3.23858 11 6Z" fill="#EA3F39"/>
<path d="M4.39878 8.30127H4.39927V8.30078L4.39976 8.30029L4.39927 8.2998C4.23358 8.52056 3.92091 8.56548 3.70005 8.3999C3.47917 8.23424 3.43434 7.9211 3.59996 7.7002L3.83921 7.87939C3.60565 7.70416 3.59999 7.69994 3.59996 7.69971L3.60093 7.69873C3.60134 7.69819 3.60189 7.69744 3.6024 7.69678C3.6034 7.69545 3.60443 7.69369 3.60582 7.69189C3.6086 7.68829 3.61226 7.68365 3.61656 7.67822C3.62517 7.66735 3.63709 7.65317 3.65171 7.63574C3.68104 7.6008 3.72251 7.5531 3.77574 7.49756C3.88177 7.38693 4.03684 7.24139 4.23716 7.0957C4.63613 6.80556 5.23713 6.5 5.99986 6.5C6.76259 6.5 7.36358 6.80556 7.76255 7.0957C7.96288 7.24139 8.11795 7.38693 8.22398 7.49756C8.2772 7.5531 8.31868 7.6008 8.348 7.63574C8.36263 7.65317 8.37455 7.66735 8.38316 7.67822C8.38745 7.68365 8.39112 7.68829 8.3939 7.69189C8.39528 7.69369 8.39631 7.69545 8.39732 7.69678C8.39782 7.69744 8.39838 7.69819 8.39878 7.69873L8.39976 7.69971C8.39973 7.69994 8.39407 7.70416 8.1605 7.87939L8.39976 7.7002C8.56538 7.9211 8.52055 8.23424 8.29966 8.3999C8.07875 8.56552 7.76562 8.52069 7.59996 8.2998V8.30029L7.60044 8.30078V8.30127L7.59898 8.29932C7.596 8.29556 7.59065 8.28818 7.58238 8.27832C7.56583 8.2586 7.53882 8.22806 7.5023 8.18994C7.42866 8.1131 7.31794 8.0085 7.17466 7.9043C6.88613 7.69446 6.48709 7.5 5.99986 7.5C5.51262 7.5 5.11358 7.69446 4.82505 7.9043C4.68178 8.0085 4.57106 8.1131 4.49742 8.18994C4.4609 8.22806 4.43389 8.2586 4.41734 8.27832C4.40907 8.28818 4.40371 8.29556 4.40074 8.29932C4.40001 8.30024 4.39918 8.30076 4.39878 8.30127Z" fill="#EA3F39"/>
<path d="M7.50488 4L7.55615 4.00244C7.80827 4.02805 8.00488 4.24112 8.00488 4.5C8.00488 4.75888 7.80827 4.97195 7.55615 4.99756L7.50488 5H7.5C7.22386 5 7 4.77614 7 4.5C7 4.22386 7.22386 4 7.5 4H7.50488Z" fill="#EA3F39"/>
<path d="M4.50488 4L4.55615 4.00244C4.80827 4.02805 5.00488 4.24112 5.00488 4.5C5.00488 4.75888 4.80827 4.97195 4.55615 4.99756L4.50488 5H4.5C4.22386 5 4 4.77614 4 4.5C4 4.22386 4.22386 4 4.5 4H4.50488Z" fill="#EA3F39"/>
</svg>
