<svg width="20" height="20" viewBox="0 0 20 20" fill="none" xmlns="http://www.w3.org/2000/svg">
<path d="M15.834 9.16634H10.834V4.16634C10.834 3.94533 10.7462 3.73337 10.5899 3.57709C10.4336 3.42081 10.2217 3.33301 10.0007 3.33301C9.77964 3.33301 9.56768 3.42081 9.4114 3.57709C9.25512 3.73337 9.16732 3.94533 9.16732 4.16634V9.16634H4.16732C3.9463 9.16634 3.73434 9.25414 3.57806 9.41042C3.42178 9.5667 3.33398 9.77866 3.33398 9.99967C3.33398 10.2207 3.42178 10.4326 3.57806 10.5889C3.73434 10.7452 3.9463 10.833 4.16732 10.833H9.16732V15.833C9.16732 16.054 9.25512 16.266 9.4114 16.4223C9.56768 16.5785 9.77964 16.6663 10.0007 16.6663C10.2217 16.6663 10.4336 16.5785 10.5899 16.4223C10.7462 16.266 10.834 16.054 10.834 15.833V10.833H15.834C16.055 10.833 16.267 10.7452 16.4232 10.5889C16.5795 10.4326 16.6673 10.2207 16.6673 9.99967C16.6673 9.77866 16.5795 9.5667 16.4232 9.41042C16.267 9.25414 16.055 9.16634 15.834 9.16634Z" fill="#26A5BB"/>
</svg>
