<svg width="42" height="42" viewBox="0 0 42 42" fill="none" xmlns="http://www.w3.org/2000/svg">
<rect x="0.5" y="0.5" width="41" height="41" rx="7.5" fill="white" stroke="#F0F0F0"/>
<rect width="26" height="26" transform="translate(8 8)" fill="white"/>
<path fill-rule="evenodd" clip-rule="evenodd" d="M12.457 18.8334C12.457 18.0049 13.1286 17.3334 13.957 17.3334H28.0404C28.8688 17.3334 29.5404 18.0049 29.5404 18.8334V29.6667C29.5404 30.4951 28.8688 31.1667 28.0404 31.1667H13.957C13.1286 31.1667 12.457 30.4951 12.457 29.6667V18.8334ZM18.2907 22.0833C18.2907 22.6816 17.8057 23.1667 17.2074 23.1667C16.609 23.1667 16.124 22.6816 16.124 22.0833C16.124 21.485 16.609 21 17.2074 21C17.8057 21 18.2907 21.485 18.2907 22.0833ZM25.8737 22.0833C25.8737 22.6816 25.3887 23.1667 24.7904 23.1667C24.1921 23.1667 23.707 22.6816 23.707 22.0833C23.707 21.485 24.1921 21 24.7904 21C25.3887 21 25.8737 21.485 25.8737 22.0833ZM18.8324 25.3334C18.234 25.3334 17.749 25.8184 17.749 26.4167C17.749 27.015 18.234 27.5 18.8324 27.5H23.1657C23.764 27.5 24.249 27.015 24.249 26.4167C24.249 25.8184 23.764 25.3334 23.1657 25.3334H18.8324Z" fill="#26A5BB"/>
<path d="M21 13.4167V17.75" stroke="#26A5BB" stroke-width="0.833333" stroke-linecap="round" stroke-linejoin="round"/>
<path d="M10.168 22.0833V26.4167" stroke="#26A5BB" stroke-width="0.833333" stroke-linecap="round" stroke-linejoin="round"/>
<path d="M31.832 22.0833V26.4167" stroke="#26A5BB" stroke-width="0.833333" stroke-linecap="round" stroke-linejoin="round"/>
<path d="M21.0013 13.4167C21.5996 13.4167 22.0846 12.9316 22.0846 12.3333C22.0846 11.735 21.5996 11.25 21.0013 11.25C20.403 11.25 19.918 11.735 19.918 12.3333C19.918 12.9316 20.403 13.4167 21.0013 13.4167Z" stroke="#26A5BB" stroke-width="0.833333"/>
</svg>
