<svg width="16" height="16" viewBox="0 0 16 16" fill="none" xmlns="http://www.w3.org/2000/svg">
<path fill-rule="evenodd" clip-rule="evenodd" d="M3.80308 2.2749C3.58553 2.44654 3.53065 2.64613 3.63543 2.88363C3.73522 3.11016 3.90786 3.20596 4.16433 3.17403C4.2777 3.16046 4.37037 3.09044 4.46884 3.01605L4.47768 3.00937L4.53755 2.96446C5.85181 1.99448 7.3457 1.63423 8.9783 1.89369C9.89738 2.03939 10.7386 2.41162 11.5499 3.03033C11.7286 3.16704 11.9391 3.20796 12.1138 3.1401C12.2664 3.08122 12.3722 2.9455 12.4052 2.76787C12.4441 2.55532 12.3603 2.39166 12.1158 2.20604C10.9053 1.28297 9.52516 0.814941 8.01431 0.814941H7.98537C7.54329 0.818933 7.18204 0.847873 6.85073 0.904754C5.73206 1.09935 4.7062 1.56039 3.80308 2.2739V2.2749ZM11.0989 3.97336C11.0949 3.77577 11.05 3.68297 10.7736 3.48438C9.14695 2.31182 6.8677 2.31182 5.23111 3.48438C5.03652 3.62409 4.74612 3.91049 4.98662 4.26076C5.06346 4.37253 5.16026 4.43939 5.27402 4.46035C5.4267 4.48829 5.60633 4.4334 5.79394 4.30168C6.35277 3.91149 6.95951 3.68197 7.59818 3.6201C7.73789 3.60613 7.8756 3.59914 8.01232 3.59914C8.8366 3.59914 9.59302 3.84962 10.2676 4.34459C10.4702 4.49328 10.6628 4.51324 10.8564 4.40546C11.024 4.31265 11.1049 4.16696 11.0989 3.97236V3.97336ZM6.97745 5.68679C6.69704 5.84446 6.41962 5.78459 6.26993 5.53511C6.11525 5.27764 6.20606 4.99523 6.50045 4.81661C6.94452 4.54717 7.42652 4.41045 7.93446 4.41045H8.00631H8.00831H8.0103C8.54718 4.39947 9.05213 4.53719 9.51616 4.8196C9.79858 4.99124 9.88739 5.25569 9.74968 5.51016C9.68282 5.6339 9.58502 5.71673 9.46727 5.75166C9.33355 5.79157 9.17987 5.76663 9.02319 5.6808C8.33962 5.30658 7.65205 5.30858 6.97745 5.68679ZM12.1208 7.59881C9.5082 7.58683 6.74096 7.58583 3.89789 7.59881C2.48084 7.6048 1.52383 8.57178 1.51485 10.0068C1.50986 10.7922 1.51186 11.5905 1.51385 12.3629V12.6972C1.51784 14.221 2.45988 15.17 3.97473 15.173C4.89814 15.175 5.82155 15.174 6.74596 15.173H6.74607L6.74795 15.173H7.97439H7.99934H8.00054C8.41827 15.173 8.836 15.173 9.25373 15.174C10.1938 15.176 11.1667 15.177 12.1228 15.17C13.5178 15.1601 14.4639 14.217 14.4759 12.8239C14.4828 12.0006 14.4828 11.0985 14.4759 9.98484C14.4669 8.5648 13.5208 7.60579 12.1198 7.59881H12.1208ZM13.4799 12.767C13.4749 13.6722 12.969 14.1721 12.0549 14.1751C11.5076 14.1771 10.9602 14.1771 10.4139 14.1771H10.4123H9.21481H8.0173H6.81082H6.80812C5.86498 14.1771 4.92185 14.1771 3.97872 14.1761C3.02371 14.1741 2.51776 13.6702 2.51277 12.7211C2.50778 11.6414 2.50878 10.8101 2.51277 10.0277C2.51876 9.13261 3.04866 8.59673 3.93082 8.59473C6.70703 8.58775 9.44932 8.58775 12.0828 8.59473C12.966 8.59673 13.4749 9.10866 13.4809 9.99881C13.4859 10.883 13.4869 11.814 13.4809 12.767H13.4799ZM10.7117 9.98384C11.0161 9.98384 11.3194 9.98883 11.6188 9.99981L11.6198 9.99881C11.7565 10.0038 11.8733 10.0537 11.9561 10.1435C12.0429 10.2373 12.0878 10.368 12.0818 10.5127C12.0719 10.7852 11.8873 10.9628 11.6018 10.9778C11.4035 10.9881 11.2008 10.9861 11.0036 10.9841C10.9904 10.984 10.9773 10.9839 10.9642 10.9838C10.9161 10.9833 10.8684 10.983 10.8205 10.9828C10.7728 10.9825 10.725 10.9823 10.6768 10.9818C10.586 10.9818 10.4942 10.9828 10.4033 10.9838C10.2008 10.9867 9.9922 10.9897 9.78862 10.9788C9.5102 10.9648 9.31261 10.7782 9.29765 10.5137C9.28966 10.384 9.33657 10.2543 9.42438 10.1575C9.5112 10.0617 9.63295 10.0058 9.76667 10.0008C10.081 9.98983 10.4073 9.98384 10.7117 9.98384Z" fill="#525252"/>
</svg>
