<svg width="17" height="10" viewBox="0 0 17 10" fill="none" xmlns="http://www.w3.org/2000/svg">
<path fill-rule="evenodd" clip-rule="evenodd" d="M7.51556 1.18416L7.83479 0.861278C8.77715 -0.190383 10.6111 -0.190383 11.9034 0.386403C12.085 0.467439 12.3535 0.562939 12.6731 0.67656C13.9532 1.13181 16.0514 1.87794 16.6496 3.15002C17.018 3.93341 17.0075 4.88456 16.9962 5.89958C16.9942 6.07684 16.9922 6.25605 16.9922 6.43666C16.9922 8.8512 15.5395 10.0939 13.0084 9.9614L9.03534 9.98712L4.24119 10L2.39583 9.98629L1.93344 9.97342L1.77968 9.96517L1.67571 9.95564C-0.596619 9.66421 -0.519853 6.14012 1.67467 4.86344L2.02601 4.66622L2.28728 4.52804L3.27216 4.03251L3.92426 3.69723L4.29121 3.49331C4.32763 3.47205 4.36282 3.45112 4.39698 3.43041L4.59128 3.30771L5.03828 3.00047C5.13249 2.93821 5.23439 2.87309 5.35176 2.79966L5.81626 2.50641L6.20229 2.25441C6.61483 1.97797 6.90883 1.75173 7.23011 1.45668L7.51556 1.18416ZM15.7175 6.25919C15.7192 5.19316 15.7208 4.19581 15.4186 3.43202C15.2049 2.89168 12.1424 1.7918 11.1452 1.43367L11.0898 1.41378C10.5016 1.2024 9.58925 1.20744 8.96562 1.69301C8.96562 1.69301 7.91949 2.63782 7.25885 3.15131L8.12282 4.23065C8.27138 4.41625 8.24294 4.68684 8.05904 4.8375C7.87217 4.99059 7.59625 4.96159 7.44528 4.77299L6.54613 3.64969L5.77638 4.1544L5.68586 4.21874L6.39498 5.10464C6.54355 5.29024 6.51511 5.56082 6.3312 5.71148C6.14433 5.86457 5.86841 5.83557 5.71744 5.64698L4.96439 4.70619L4.8382 4.78292L4.55083 4.94646L4.21735 5.12707L2.83713 5.84575L2.47518 6.04531L2.26018 6.17141C1.07857 6.88143 1.0423 8.60106 1.71243 8.68983L1.79025 8.696L2.37122 8.71176L3.44397 8.722L5.52982 8.72447L13.1482 8.68473C14.9742 8.78251 15.7173 8.12593 15.7173 6.49934L15.7175 6.25919Z" fill="#A3A3A3"/>
</svg>
