<svg width="20" height="20" viewBox="0 0 20 20" fill="none" xmlns="http://www.w3.org/2000/svg">
<path d="M15.8327 3.33317H14.166V2.49984C14.166 2.27882 14.0782 2.06686 13.9219 1.91058C13.7657 1.7543 13.5537 1.6665 13.3327 1.6665C13.1117 1.6665 12.8997 1.7543 12.7434 1.91058C12.5871 2.06686 12.4993 2.27882 12.4993 2.49984V3.33317H7.49935V2.49984C7.49935 2.27882 7.41155 2.06686 7.25527 1.91058C7.09899 1.7543 6.88703 1.6665 6.66601 1.6665C6.445 1.6665 6.23304 1.7543 6.07676 1.91058C5.92048 2.06686 5.83268 2.27882 5.83268 2.49984V3.33317H4.16602C3.50297 3.33317 2.86709 3.59656 2.39825 4.0654C1.92941 4.53424 1.66602 5.17013 1.66602 5.83317V15.8332C1.66602 16.4962 1.92941 17.1321 2.39825 17.6009C2.86709 18.0698 3.50297 18.3332 4.16602 18.3332H15.8327C16.4957 18.3332 17.1316 18.0698 17.6004 17.6009C18.0693 17.1321 18.3327 16.4962 18.3327 15.8332V5.83317C18.3327 5.17013 18.0693 4.53424 17.6004 4.0654C17.1316 3.59656 16.4957 3.33317 15.8327 3.33317ZM16.666 15.8332C16.666 16.0542 16.5782 16.2661 16.4219 16.4224C16.2657 16.5787 16.0537 16.6665 15.8327 16.6665H4.16602C3.945 16.6665 3.73304 16.5787 3.57676 16.4224C3.42048 16.2661 3.33268 16.0542 3.33268 15.8332V9.99984H16.666V15.8332ZM16.666 8.33317H3.33268V5.83317C3.33268 5.61216 3.42048 5.40019 3.57676 5.24391C3.73304 5.08763 3.945 4.99984 4.16602 4.99984H5.83268V5.83317C5.83268 6.05418 5.92048 6.26614 6.07676 6.42243C6.23304 6.57871 6.445 6.6665 6.66601 6.6665C6.88703 6.6665 7.09899 6.57871 7.25527 6.42243C7.41155 6.26614 7.49935 6.05418 7.49935 5.83317V4.99984H12.4993V5.83317C12.4993 6.05418 12.5871 6.26614 12.7434 6.42243C12.8997 6.57871 13.1117 6.6665 13.3327 6.6665C13.5537 6.6665 13.7657 6.57871 13.9219 6.42243C14.0782 6.26614 14.166 6.05418 14.166 5.83317V4.99984H15.8327C16.0537 4.99984 16.2657 5.08763 16.4219 5.24391C16.5782 5.40019 16.666 5.61216 16.666 5.83317V8.33317Z" fill="#A3A3A3"/>
</svg>
