<svg width="20" height="20" viewBox="0 0 20 20" fill="none" xmlns="http://www.w3.org/2000/svg">
<path d="M15.0669 5.83296C14.9574 5.82385 14.8472 5.83648 14.7426 5.87014C14.638 5.90379 14.5411 5.9578 14.4574 6.02906C14.3738 6.10031 14.3051 6.18741 14.2552 6.28533C14.2053 6.38325 14.1753 6.49007 14.1669 6.59963L13.8753 10.3913C13.4899 10.272 13.1443 10.0502 12.8753 9.74963C12.7971 9.66096 12.7009 9.58994 12.5931 9.5413C12.4854 9.49265 12.3685 9.46749 12.2503 9.46749C12.132 9.46749 12.0152 9.49265 11.9074 9.5413C11.7996 9.58994 11.7035 9.66096 11.6253 9.74963C11.4184 9.97439 11.1672 10.1538 10.8875 10.2765C10.6078 10.3992 10.3057 10.4626 10.0003 10.4626C9.69483 10.4626 9.39271 10.3992 9.113 10.2765C8.8333 10.1538 8.5821 9.97439 8.37527 9.74963C8.29707 9.66096 8.20089 9.58994 8.09313 9.5413C7.98537 9.49265 7.8685 9.46749 7.75027 9.46749C7.63204 9.46749 7.51516 9.49265 7.4074 9.5413C7.29964 9.58994 7.20347 9.66096 7.12527 9.74963C6.85545 10.0493 6.51007 10.2709 6.12527 10.3913L5.8336 6.59963C5.82519 6.49007 5.79519 6.38325 5.74533 6.28533C5.69548 6.18741 5.62675 6.10031 5.5431 6.02906C5.45945 5.9578 5.36254 5.90379 5.25793 5.87014C5.15333 5.83648 5.04311 5.82385 4.9336 5.83296C4.82404 5.84137 4.71722 5.87137 4.6193 5.92123C4.52138 5.97108 4.43428 6.03981 4.36303 6.12346C4.29177 6.20711 4.23776 6.30402 4.20411 6.40863C4.17045 6.51323 4.15782 6.62346 4.16693 6.73296L4.8836 16.0246C4.93198 16.6539 5.21659 17.2416 5.68029 17.6697C6.14399 18.0979 6.75247 18.3348 7.3836 18.333H12.6336C13.2647 18.3348 13.8732 18.0979 14.3369 17.6697C14.8006 17.2416 15.0852 16.6539 15.1336 16.0246L15.8336 6.73296C15.8427 6.62346 15.8301 6.51323 15.7964 6.40863C15.7628 6.30402 15.7088 6.20711 15.6375 6.12346C15.5663 6.03981 15.4792 5.97108 15.3812 5.92123C15.2833 5.87137 15.1765 5.84137 15.0669 5.83296ZM13.4503 15.8996C13.4335 16.1089 13.3383 16.3041 13.1838 16.4462C13.0293 16.5884 12.8269 16.667 12.6169 16.6663H7.37527C7.16533 16.667 6.96288 16.5884 6.80838 16.4462C6.65388 16.3041 6.55873 16.1089 6.54193 15.8996L6.25027 12.083C6.79055 11.97 7.3014 11.7458 7.75027 11.4246C8.4075 11.8918 9.19389 12.1429 10.0003 12.1429C10.8066 12.1429 11.593 11.8918 12.2503 11.4246C12.6991 11.7458 13.21 11.97 13.7503 12.083L13.4503 15.8996ZM10.0003 8.33296C10.7179 8.33076 11.4055 8.04472 11.9129 7.53728C12.4204 7.02985 12.7064 6.34225 12.7086 5.62463C12.7086 3.33296 10.5586 1.8663 10.4669 1.80796C10.3291 1.71482 10.1666 1.66504 10.0003 1.66504C9.83393 1.66504 9.67141 1.71482 9.5336 1.80796C9.44193 1.87463 7.29193 3.33296 7.29193 5.62463C7.29413 6.34225 7.58018 7.02985 8.08761 7.53728C8.59505 8.04472 9.28265 8.33076 10.0003 8.33296ZM10.0003 3.58296C10.6033 4.0994 10.9777 4.83328 11.0419 5.62463C11.0419 5.9009 10.9322 6.16585 10.7368 6.3612C10.5415 6.55655 10.2765 6.6663 10.0003 6.6663C9.724 6.6663 9.45905 6.55655 9.2637 6.3612C9.06835 6.16585 8.9586 5.9009 8.9586 5.62463C9.02718 4.83453 9.40081 4.10221 10.0003 3.58296Z" fill="#26A5BB"/>
</svg>
