<svg width="146" height="273" viewBox="0 0 146 273" fill="none" xmlns="http://www.w3.org/2000/svg">
<g filter="url(#filter0_d_2097_21404)">
<path fill-rule="evenodd" clip-rule="evenodd" d="M74.7027 267.736C75.1024 267.901 75.6168 267.98 76.275 267.98C76.8832 267.98 77.5471 267.913 78.1888 267.849L78.2048 267.848L78.5303 267.816C79.2061 267.75 79.9632 267.733 80.7638 267.716L80.8654 267.713C81.6141 267.695 82.3868 267.677 83.1528 267.615C89.0846 267.135 91.305 266.462 91.3443 265.136C91.3994 263.291 90.4548 261.884 89.0254 259.755L89.0192 259.745C88.05 258.304 86.8453 256.507 85.5781 254.007C84.5101 251.9 85.023 245.606 87.1025 235.303C87.1839 234.9 87.2435 234.605 87.2725 234.443C87.7784 231.658 88.2772 229.258 88.7592 226.938L88.7794 226.841L88.7798 226.839C89.7722 222.07 90.6294 217.95 91.2266 212.173C91.5731 208.818 91.3135 205.146 91.0843 201.904L91.0827 201.881C90.917 199.553 90.7615 197.354 90.8647 195.677C90.9388 194.46 91.4707 192.326 92.2074 189.371C93.7609 183.139 96.1077 173.72 96.9157 162.028C98.4909 149.315 97.1889 138.1 96.0728 130.769C95.9188 129.754 95.602 128.184 95.1995 126.197C94.2375 121.442 92.7843 114.253 92.5373 109.082C92.1072 100.076 92.6477 91.7997 94.1401 84.4835L94.2084 84.145C94.4235 83.0547 94.7606 82.0304 95.1646 80.9416C95.3215 82.6602 95.6645 85.5006 96.6367 89.8229C98.8004 99.4344 100.687 108.682 101.123 111.812C101.957 117.804 103.559 122.792 104.975 127.193L104.989 127.237C105.872 129.985 106.706 132.582 107.303 135.213C107.58 136.434 107.491 138.393 107.432 139.698L107.431 139.717L107.425 139.834C107.381 140.798 107.415 141.903 107.527 143.208C107.604 144.108 107.867 145.493 108.066 146.262C108.711 148.754 110.372 155.28 110.475 155.851C110.641 156.765 111.315 157.402 112.114 157.402C112.168 157.402 112.22 157.399 112.274 157.393C112.89 157.328 113.608 156.951 113.53 155.521C113.482 154.629 113.171 153.353 112.87 152.118L112.87 152.117C112.643 151.186 112.428 150.299 112.35 149.682L112.486 149.698C112.738 150.89 113.862 155.017 114.711 157.934C114.968 158.82 115.669 159.416 116.452 159.416C116.543 159.416 116.636 159.407 116.728 159.39C117.565 159.235 118.071 158.424 117.931 157.462C117.795 156.522 117.072 153.868 116.491 151.734C116.24 150.813 116.017 149.997 115.898 149.52L116.029 149.502C116.556 151.256 118.748 158.234 118.992 159.008C119.236 159.78 119.848 160.242 120.63 160.242C120.769 160.242 120.912 160.226 121.055 160.196C122.392 159.914 122.264 158.589 122.215 158.092C122.147 157.396 120.964 153.616 119.756 149.804C119.573 149.226 119.422 148.748 119.323 148.43L119.358 148.417C119.547 148.939 119.871 149.908 120.22 150.95L120.294 151.173C121.249 154.028 121.943 156.083 122.201 156.538C122.655 157.343 123.232 157.75 123.914 157.75C124.068 157.75 124.226 157.729 124.388 157.687C124.72 157.601 124.992 157.389 125.172 157.073C125.483 156.531 125.447 155.834 125.31 155.372C125.286 155.301 125.181 154.903 125.071 154.479L125.069 154.472C124.687 153.021 123.98 150.328 123.41 148.833C122.381 146.138 121.862 144.506 121.632 143.604C121.932 144.007 122.353 144.636 122.946 145.605C123.068 145.806 123.16 145.953 123.203 146.017C123.219 146.041 123.237 146.068 123.256 146.098C123.273 146.123 123.291 146.151 123.311 146.181C123.754 146.863 124.794 148.462 126.473 148.462H126.527C126.938 148.453 127.39 148.397 127.624 148.041C127.881 147.648 127.708 147.166 127.438 146.539C127.13 145.964 126.814 145.274 126.479 144.544L126.468 144.521L126.457 144.495C125.882 143.241 125.288 141.945 124.607 140.926C123.35 139.042 121.438 137.424 119.751 135.997C118.842 135.228 118.058 134.403 117.667 132.082C117.267 129.712 117.039 127.594 116.775 125.145L116.773 125.129C116.481 122.417 116.15 119.343 115.5 115.111C115.029 112.03 114.391 109.706 113.775 107.462L113.765 107.426L113.763 107.42C112.965 104.513 112.21 101.765 111.789 97.5064C111.567 95.2522 111.163 92.3747 110.735 89.3256L110.725 89.2577C110.359 86.6569 109.982 83.9685 109.685 81.4495C107.551 63.377 102.513 60.1421 100.091 58.587C100.063 58.569 100.035 58.5512 100.008 58.5337C99.8769 58.4497 99.7551 58.3716 99.6432 58.2944C97.8776 57.0879 94.2811 55.761 90.4738 54.3566C88.22 53.526 85.8906 52.6667 84.0465 51.8576C82.262 51.0757 81.1547 49.4332 81.1547 47.5726V41.1544C83.0779 39.7003 85.2683 36.6639 86.3194 32.8151C88.6219 32.8889 90.0038 30.7689 90.1906 28.0645C90.3657 25.5287 89.4309 23.3631 87.4269 22.9066C87.4759 20.9587 87.3853 19.921 87.367 19.7352C87.3539 10.4235 80.2509 5.86594 73.4545 5.48291L73.4516 5.45996H72.523V5.48148C65.7469 5.86594 58.6381 10.4292 58.6396 19.7151C58.6325 19.7944 58.5397 20.8558 58.5923 22.9034C56.5786 23.3529 55.639 25.5228 55.8145 28.0645C56.0007 30.7602 57.3744 32.8753 59.6636 32.8158C60.7105 36.8539 62.8943 39.6927 64.8518 41.1544V47.5711C64.8518 49.4318 63.7445 51.0743 61.96 51.8561C60.1363 52.6552 57.8607 53.4858 55.6591 54.2891L55.658 54.2895C51.8483 55.6795 48.2508 56.992 46.3619 58.2944C46.2445 58.3749 46.1157 58.4584 45.9779 58.5478C45.9536 58.5636 45.929 58.5795 45.9041 58.5957L45.9037 58.5959C43.4841 60.1582 38.4508 63.4081 36.322 81.448C36.0283 83.9304 35.6569 86.5774 35.2969 89.1428L35.2816 89.252C34.8485 92.3276 34.4416 95.2326 34.2164 97.5035C33.7957 101.758 33.042 104.503 32.2443 107.408L32.2401 107.423C31.6196 109.679 30.9788 112.01 30.5036 115.107C29.854 119.339 29.5227 122.412 29.2306 125.123L29.2227 125.196C28.9602 127.622 28.7326 129.726 28.3355 132.078C27.9431 134.399 27.1584 135.224 26.2502 135.992C24.5631 137.42 22.6507 139.038 21.3938 140.922C20.7093 141.947 20.1106 143.253 19.5323 144.517L19.5217 144.54C19.187 145.27 18.8706 145.96 18.5456 146.572C18.2927 147.162 18.1198 147.645 18.377 148.037C18.6095 148.393 19.0629 148.45 19.4741 148.459H19.5279C21.2078 148.459 22.2482 146.859 22.6914 146.176C22.6995 146.164 22.7074 146.152 22.715 146.14C22.7468 146.091 22.7743 146.049 22.799 146.014C22.8404 145.953 22.9251 145.815 23.0394 145.629L23.0576 145.6C23.6505 144.628 24.0734 143.999 24.3698 143.597C24.1417 144.499 23.6229 146.13 22.5926 148.83C22.0201 150.329 21.3109 153.031 20.9302 154.481L20.8926 154.624C20.797 154.988 20.7126 155.31 20.6817 155.399C20.5553 155.831 20.519 156.527 20.8299 157.07C21.0101 157.386 21.2819 157.598 21.6146 157.686C21.7759 157.727 21.9358 157.749 22.0884 157.749C22.7699 157.749 23.3468 157.341 23.8016 156.537C24.0603 156.08 24.7564 154.022 25.7111 151.164C25.7597 151.019 25.808 150.875 25.8557 150.733C26.1769 149.775 26.4696 148.902 26.6455 148.416L26.6818 148.427C26.583 148.743 26.4333 149.218 26.2517 149.788C25.0426 153.607 23.8569 157.393 23.7886 158.089L23.7884 158.091C23.7403 158.59 23.613 159.911 24.9482 160.193C25.0906 160.223 25.2344 160.239 25.374 160.239C26.1572 160.239 26.769 159.777 27.0117 159.005L27.0446 158.901C27.407 157.746 29.4601 151.205 29.9732 149.5L30.104 149.519C29.9819 149.999 29.7581 150.817 29.5053 151.741C28.9298 153.843 28.2134 156.459 28.0768 157.393C27.9359 158.356 28.4416 159.168 29.2786 159.323C29.3716 159.34 29.4631 159.348 29.5547 159.348C30.3394 159.348 31.0398 158.753 31.297 157.866C32.1849 154.814 33.2718 150.852 33.516 149.697L33.6555 149.679C33.5901 150.262 33.4244 151.095 33.25 151.969C32.9798 153.328 32.7008 154.733 32.6877 155.679C32.6673 157.11 33.3997 157.459 34.0173 157.499C34.0388 157.501 34.0597 157.502 34.0807 157.502C34.0924 157.502 34.1042 157.502 34.1161 157.502C34.9473 157.502 35.6187 156.836 35.7509 155.885C35.8236 155.362 37.2985 148.715 37.935 146.258C38.1632 145.379 38.4044 144.009 38.4741 143.202C38.5875 141.894 38.6195 140.79 38.5759 139.83L38.57 139.718C38.509 138.411 38.4175 136.436 38.6965 135.208C39.2944 132.572 40.1304 129.971 41.0147 127.219L41.0244 127.189C42.4398 122.787 44.0441 117.798 44.8782 111.806C45.3141 108.677 47.2003 99.4301 49.3641 89.8172C50.3522 85.4246 50.6908 82.5627 50.8434 80.8527C51.1282 81.6015 51.4464 82.5971 51.6949 83.7777C51.7786 84.1799 51.8765 84.5961 51.9826 85.0469L52.0016 85.1276L52.0028 85.1331C52.837 88.6736 54.0981 94.0267 53.462 109.079C53.2425 114.256 51.7749 121.45 50.8027 126.212C50.3987 128.19 50.0805 129.751 49.9265 130.764C48.8104 138.095 47.5084 149.312 49.0822 162.002C50.0165 174.012 52.4506 184.015 53.9052 189.992C54.5518 192.647 55.0183 194.565 55.1389 195.694C55.3546 197.705 55.1866 200.411 55.0086 203.279L55.0067 203.31L55.0046 203.344C54.8251 206.241 54.6395 209.235 54.7742 212.144C55.0401 217.9 56.031 222.175 57.0801 226.701L57.0803 226.702L57.0834 226.715C57.6361 229.099 58.2075 231.564 58.7297 234.441C58.7602 234.603 58.8183 234.896 58.8997 235.296C61.4921 248.133 61.1593 252.555 60.4255 254.006C59.1583 256.507 57.9537 258.302 56.9844 259.745L56.9803 259.751C55.5498 261.881 54.6042 263.289 54.6594 265.135C54.6986 266.46 56.919 267.132 62.8508 267.614C63.6407 267.679 64.4376 267.696 65.2081 267.713L65.2398 267.714L65.321 267.716C66.0931 267.734 66.8218 267.751 67.4733 267.815L67.7814 267.845C68.4396 267.911 69.1197 267.978 69.746 267.978C70.413 267.978 70.9303 267.898 71.33 267.734L71.375 267.717L71.3837 267.713C71.8917 267.503 72.467 267.266 72.8325 266.598L72.8572 266.554L72.8718 266.503C72.9154 266.351 72.9502 266.204 72.9778 266.059C73.283 267.155 73.9907 267.444 74.6272 267.704L74.7027 267.736ZM72.9272 144.528C72.9356 143.157 72.9442 141.746 72.956 140.27L72.9575 140.269H73.052C73.0694 142.567 73.0796 144.7 73.0883 146.776C73.1144 152.818 73.1391 158.523 73.376 166.31C73.4981 170.344 74.3235 189.693 74.649 193.155C74.9018 195.835 74.8015 198.5 74.354 201.076C73.9674 203.297 73.4864 207.68 73.2932 213.315C73.1493 217.525 73.6318 225.333 74.1302 231.235C74.3424 233.751 74.4513 236.227 74.4542 238.594C74.4557 240.115 74.4656 241.389 74.4742 242.501L74.4746 242.551C74.4993 245.651 74.5124 247.523 74.3104 249.953L74.2508 250.679L74.2502 250.686C74.1095 252.448 73.9638 254.271 73.4501 256.523C73.1929 257.654 73.0302 260.196 72.9386 262.075C72.9372 262.055 72.9342 262.033 72.9342 262.013C72.8369 260.285 72.6872 257.672 72.382 256.337C71.9388 254.393 71.8095 252.571 71.6845 250.809L71.6191 249.906C71.4118 247.175 71.4519 245.194 71.5026 242.689L71.5029 242.674C71.5276 241.526 71.5537 240.227 71.5552 238.738C71.5581 236.249 71.6656 233.745 71.8734 231.298C72.3748 225.382 72.8601 217.551 72.7148 213.315C72.5215 207.668 72.0377 203.274 71.6482 201.044C71.2137 198.555 71.1105 195.959 71.3387 193.33C71.67 189.515 72.4823 170.657 72.6116 166.21C72.8471 158.138 72.8805 152.495 72.9183 145.961C72.9213 145.487 72.9242 145.01 72.9272 144.528Z" fill="white"/>
</g>
<g filter="url(#filter1_f_2097_21404)">
<path d="M73.6965 52.5601C75.432 52.5983 76.9665 52.7618 78.3738 53.0215C79.062 54.4117 80.2176 55.5465 81.6704 56.244L81.906 56.3525C83.662 57.1229 85.85 57.9292 87.8623 58.6709C89.5947 59.3099 91.215 59.9074 92.5996 60.4784C93.8473 60.993 94.7551 61.4277 95.3281 61.7779L95.554 61.9225C95.7201 62.0367 95.9044 62.1538 96.0206 62.2286L96.0224 62.2295C96.9351 62.8154 98.2082 63.6056 99.5537 66.0052C100.684 68.0209 101.901 71.2523 102.825 76.533C101.132 77.8479 97.9972 79.228 95.6731 79.5244C95.4194 78.4413 94.5217 77.6065 93.3935 77.4566C92.2174 77.3004 91.0868 77.927 90.5874 78.9837L90.4956 79.2007C90.1128 80.2325 89.752 81.3111 89.5164 82.5009L89.4555 82.8008C88.0543 89.67 87.5596 97.3761 87.9567 105.692L88.0132 106.635C88.36 111.444 89.6099 117.597 90.4118 121.561C90.7678 123.319 91.0286 124.623 91.1608 125.462H54.8666L54.9716 124.841C55.1181 124.033 55.3393 122.945 55.6182 121.579L55.9632 119.884C56.8091 115.693 57.8893 109.997 58.0724 105.675C58.5844 93.562 57.7589 88.1563 57.0006 84.686L56.6839 83.3027C56.6315 83.0797 56.5834 82.8783 56.5401 82.6896L56.4219 82.1533L56.421 82.1471L56.3213 81.6981C56.082 80.6718 55.7964 79.7927 55.5327 79.0992C55.0838 77.9192 53.8792 77.2054 52.6286 77.3781C51.4696 77.5383 50.5563 78.4207 50.3394 79.55C48.0924 79.3291 44.9744 78.0079 43.1797 76.7015C44.1053 71.3327 45.3355 68.0576 46.4763 66.0202C47.8213 63.6185 49.0947 62.8234 50.0077 62.2339L50.0138 62.2295C50.1442 62.1448 50.3232 62.0302 50.484 61.9199L50.4893 61.9164C51.0915 61.5012 52.1052 60.9992 53.5328 60.4105C54.9269 59.8356 56.544 59.2456 58.2789 58.6126L59.7768 58.0639C61.2902 57.506 62.8229 56.9232 64.1294 56.3508L64.3649 56.2431C65.8346 55.5375 66.9987 54.3837 67.6837 52.9712C69.2318 52.7027 70.9362 52.5513 72.8911 52.5513L73.6965 52.5601Z" fill="#FFC9A7" fill-opacity="0.5"/>
</g>
<defs>
<filter id="filter0_d_2097_21404" x="7.25" y="-5.54004" width="131.5" height="284.52" filterUnits="userSpaceOnUse" color-interpolation-filters="sRGB">
<feFlood flood-opacity="0" result="BackgroundImageFix"/>
<feColorMatrix in="SourceAlpha" type="matrix" values="0 0 0 0 0 0 0 0 0 0 0 0 0 0 0 0 0 0 127 0" result="hardAlpha"/>
<feOffset/>
<feGaussianBlur stdDeviation="5.5"/>
<feComposite in2="hardAlpha" operator="out"/>
<feColorMatrix type="matrix" values="0 0 0 0 0.0917014 0 0 0 0 0.507192 0 0 0 0 0.579167 0 0 0 0.2 0"/>
<feBlend mode="normal" in2="BackgroundImageFix" result="effect1_dropShadow_2097_21404"/>
<feBlend mode="normal" in="SourceGraphic" in2="effect1_dropShadow_2097_21404" result="shape"/>
</filter>
<filter id="filter1_f_2097_21404" x="31.1797" y="40.5513" width="83.6445" height="96.9111" filterUnits="userSpaceOnUse" color-interpolation-filters="sRGB">
<feFlood flood-opacity="0" result="BackgroundImageFix"/>
<feBlend mode="normal" in="SourceGraphic" in2="BackgroundImageFix" result="shape"/>
<feGaussianBlur stdDeviation="6" result="effect1_foregroundBlur_2097_21404"/>
</filter>
</defs>
</svg>
