<svg width="40" height="40" viewBox="0 0 40 40" fill="none" xmlns="http://www.w3.org/2000/svg">
<g filter="url(#filter0_d_2110_21449)">
<path fill-rule="evenodd" clip-rule="evenodd" d="M32.8276 15.4838C33.9865 17.0613 34.6587 18.8911 34.6587 18.8911H34.6604C36.0769 14.7805 35.0116 11.1814 35.0116 11.1814C33.6186 5.81116 28.0799 4.32519 28.0799 4.32519C23.3539 3.17098 18.6948 5.68848 18.6948 5.68848C11.4587 9.50879 7.86993 16.1127 7.86993 16.1127C8.4636 18.0306 9.63924 19.6116 9.63924 19.6116C12.6059 14.5645 17.6513 10.2224 17.6513 10.2224C19.9123 8.24054 23.103 6.65608 23.103 6.65608C23.7569 6.32952 25.2219 5.71612 27.0798 5.94766C30.2254 6.33988 31.9496 8.83492 32.2339 9.25998C32.6168 9.91138 33.3777 11.4146 33.269 13.3913C33.2222 14.2449 33.0249 14.9568 32.8276 15.4838ZM4.75383 21.1196L4.75209 21.115H4.75544L4.75383 21.1196ZM4.75383 21.1196C4.79208 21.2221 5.46011 22.9894 6.58662 24.5206C6.38929 25.0476 6.19363 25.7595 6.1468 26.613C6.03977 28.5897 6.80068 30.0929 7.18531 30.7444C7.4696 31.1694 9.1971 33.6627 12.3427 34.0532C14.2007 34.283 15.6656 33.6696 16.3195 33.3413C16.3195 33.3413 19.5103 31.7552 21.7696 29.7716C21.7696 29.7716 26.8116 25.426 29.7749 20.3772C29.7749 20.3772 30.9506 21.9582 31.5459 23.8744C31.5459 23.8744 27.9605 30.48 20.7294 34.3055C20.7294 34.3055 16.072 36.8264 11.3444 35.6757C11.3444 35.6757 5.80398 34.1932 4.40927 28.8247C4.40927 28.8247 3.34147 25.23 4.75383 21.1196ZM20.6465 35.1348C20.6465 35.1348 22.4292 34.4731 23.9761 33.3033C24.4828 33.5158 25.1667 33.7318 25.9929 33.7957C27.9043 33.9443 29.3726 33.1841 30.0098 32.8005C30.4262 32.5154 32.8711 30.7772 33.3076 27.5357C33.5651 25.6195 32.9982 24.0972 32.6938 23.4147C32.6938 23.4147 31.2172 20.0903 29.3408 17.7179C29.3408 17.7179 25.2286 12.4272 20.399 9.27214C20.399 9.27214 21.9509 8.08682 23.8155 7.50798C23.8155 7.50798 30.1419 11.3335 33.7089 18.8773C33.7089 18.8773 36.0619 23.7361 34.8611 28.5983C34.8611 28.5983 33.3243 34.2934 28.1016 35.6359C28.1016 35.6359 24.5998 36.6726 20.6465 35.1366V35.1348ZM15.4359 6.69364C16.9828 5.52387 18.7638 4.86037 18.7638 4.86037H18.7654C14.8104 3.32775 11.3103 4.3662 11.3103 4.3662C6.08931 5.71221 4.55579 11.409 4.55579 11.409C3.35842 16.2712 5.71471 21.1282 5.71471 21.1282C9.28844 28.6669 15.6165 32.489 15.6165 32.489C17.4811 31.9084 19.0313 30.7214 19.0313 30.7214C14.1984 27.5697 10.0828 22.2824 10.0828 22.2824C8.20311 19.9135 6.72479 16.5891 6.72479 16.5891C6.42042 15.9066 5.85184 14.3844 6.1077 12.4682C6.5425 9.22496 8.98575 7.485 9.40216 7.1999C10.0393 6.81459 11.5076 6.05432 13.4191 6.20119C14.2452 6.26512 14.9292 6.48111 15.4359 6.69364ZM21.0942 21.8684C21.0893 21.8644 21.0847 21.8603 21.0802 21.8562C21.071 21.8478 21.062 21.8397 21.0508 21.8339L17.3934 19.6516C17.0372 19.439 16.5924 19.7051 16.5924 20.1302V24.4948V24.5069C16.5917 24.5284 16.5905 24.5497 16.5893 24.5709C16.5875 24.6024 16.5857 24.6338 16.5857 24.6658C16.6058 26.4041 17.9854 27.7967 19.6678 27.776C21.3501 27.7553 22.698 26.3298 22.6779 24.5915C22.6645 23.4149 22.0257 22.3971 21.0942 21.8701V21.8684ZM18.4458 18.6266C18.4395 18.6213 18.4332 18.6161 18.4266 18.6115H18.4283C17.4868 18.1036 16.8296 17.0997 16.7928 15.923C16.7392 14.1865 18.0604 12.7333 19.7411 12.6781C21.4217 12.6228 22.8281 13.9878 22.8817 15.7243C22.8826 15.7548 22.8814 15.7848 22.8802 15.8149C22.8792 15.8376 22.8783 15.8602 22.8783 15.8832C22.88 15.8884 22.88 15.8953 22.88 15.8953L22.9636 20.2582C22.972 20.6833 22.5305 20.958 22.1709 20.7524L18.4718 18.6461C18.4624 18.6403 18.454 18.6333 18.4458 18.6266Z" fill="white"/>
</g>
<defs>
<filter id="filter0_d_2110_21449" x="0" y="0" width="39.4186" height="40" filterUnits="userSpaceOnUse" color-interpolation-filters="sRGB">
<feFlood flood-opacity="0" result="BackgroundImageFix"/>
<feColorMatrix in="SourceAlpha" type="matrix" values="0 0 0 0 0 0 0 0 0 0 0 0 0 0 0 0 0 0 127 0" result="hardAlpha"/>
<feOffset/>
<feGaussianBlur stdDeviation="2"/>
<feComposite in2="hardAlpha" operator="out"/>
<feColorMatrix type="matrix" values="0 0 0 0 0.0509804 0 0 0 0 0.34902 0 0 0 0 0.4 0 0 0 1 0"/>
<feBlend mode="normal" in2="BackgroundImageFix" result="effect1_dropShadow_2110_21449"/>
<feBlend mode="normal" in="SourceGraphic" in2="effect1_dropShadow_2110_21449" result="shape"/>
</filter>
</defs>
</svg>
