<svg width="12" height="12" viewBox="0 0 12 12" fill="none" xmlns="http://www.w3.org/2000/svg">
<path fill-rule="evenodd" clip-rule="evenodd" d="M5.04309 0.796931C5.12334 0.616367 5.30241 0.5 5.5 0.5C6.03043 0.5 6.53914 0.710714 6.91421 1.08579C7.28929 1.46086 7.5 1.96957 7.5 2.5V4H9.82744C10.0438 3.998 10.2581 4.04283 10.4555 4.13145C10.6539 4.22048 10.8305 4.35158 10.9732 4.51567C11.1159 4.67975 11.2212 4.8729 11.2818 5.08172C11.3425 5.29054 11.357 5.51005 11.3243 5.72503L10.6343 10.225C10.6343 10.2251 10.6344 10.2248 10.6343 10.225C10.58 10.5825 10.3983 10.9088 10.1228 11.143C9.84791 11.3766 9.49807 11.5033 9.13741 11.5H2C1.60217 11.5 1.22064 11.342 0.93934 11.0607C0.658035 10.7794 0.5 10.3978 0.5 10V6.5C0.5 6.10218 0.658035 5.72064 0.93934 5.43934C1.22064 5.15804 1.60217 5 2 5H3.17506L5.04309 0.796931ZM4 5.60611L5.80391 1.5473C5.95461 1.59537 6.09319 1.67897 6.20711 1.79289C6.39464 1.98043 6.5 2.23478 6.5 2.5V4.5C6.5 4.77614 6.72386 5 7 5H9.83L9.83566 4.99997C9.90814 4.99915 9.97993 5.01409 10.0461 5.04377C10.1122 5.07345 10.1711 5.11715 10.2186 5.17185C10.2662 5.22654 10.3013 5.29092 10.3215 5.36053C10.3417 5.43007 10.3465 5.50317 10.3357 5.57477C10.3357 5.57484 10.3357 5.5747 10.3357 5.57477L9.64565 10.075C9.62757 10.1943 9.56701 10.3029 9.47513 10.381C9.38325 10.4591 9.26623 10.5014 9.14565 10.5L4 10.5V5.60611ZM3 10.5V6H2C1.86739 6 1.74021 6.05268 1.64645 6.14645C1.55268 6.24021 1.5 6.36739 1.5 6.5V10C1.5 10.1326 1.55268 10.2598 1.64645 10.3536C1.74021 10.4473 1.86739 10.5 2 10.5H3Z" fill="#CCCCCC"/>
</svg>
