<svg width="16" height="16" viewBox="0 0 16 16" fill="none" xmlns="http://www.w3.org/2000/svg">
<path fill-rule="evenodd" clip-rule="evenodd" d="M4.2949 2.45703C5.39123 1.72449 6.68016 1.3335 7.9987 1.3335C8.87418 1.3335 9.74109 1.50593 10.5499 1.84097C11.3588 2.176 12.0937 2.66706 12.7127 3.28612C13.3318 3.90517 13.8229 4.6401 14.1579 5.44894C14.4929 6.25778 14.6654 7.12468 14.6654 8.00016C14.6654 9.31871 14.2744 10.6076 13.5418 11.704C12.8093 12.8003 11.7681 13.6548 10.5499 14.1594C9.33175 14.6639 7.99131 14.796 6.6981 14.5387C5.40489 14.2815 4.21701 13.6466 3.28466 12.7142C2.35231 11.7819 1.71737 10.594 1.46013 9.30077C1.2029 8.00756 1.33492 6.66711 1.8395 5.44894C2.34409 4.23077 3.19857 3.18958 4.2949 2.45703ZM10.1735 5.67091L7.06027 8.79145L5.86285 7.59403C5.79779 7.51806 5.71773 7.45636 5.6277 7.41281C5.53766 7.36925 5.4396 7.34477 5.33965 7.34091C5.23971 7.33705 5.14005 7.35389 5.04692 7.39037C4.95379 7.42686 4.86922 7.4822 4.79849 7.55292C4.72777 7.62364 4.67243 7.70822 4.63594 7.80135C4.59946 7.89448 4.58262 7.99414 4.58648 8.09408C4.59034 8.19403 4.61482 8.29209 4.65838 8.38213C4.70194 8.47216 4.76364 8.55222 4.8396 8.61728L6.54502 10.3299C6.61283 10.3972 6.69324 10.4504 6.78166 10.4865C6.87008 10.5226 6.96476 10.541 7.06027 10.5404C7.25065 10.5396 7.43309 10.464 7.56826 10.3299L11.1968 6.70141C11.2648 6.63395 11.3188 6.55369 11.3556 6.46525C11.3925 6.37682 11.4115 6.28196 11.4115 6.18616C11.4115 6.09036 11.3925 5.99551 11.3556 5.90707C11.3188 5.81864 11.2648 5.73837 11.1968 5.67091C11.0608 5.53575 10.8769 5.45988 10.6852 5.45988C10.4935 5.45988 10.3095 5.53575 10.1735 5.67091Z" fill="#26A5BB"/>
</svg>
