<svg width="16" height="16" viewBox="0 0 16 16" fill="none" xmlns="http://www.w3.org/2000/svg">
<path fill-rule="evenodd" clip-rule="evenodd" d="M8.31029 2.30932C8.93542 1.6842 9.78326 1.33301 10.6673 1.33301H14.6673C15.0355 1.33301 15.334 1.63148 15.334 1.99967V11.9997C15.334 12.3679 15.0355 12.6663 14.6673 12.6663H10.0007C9.64703 12.6663 9.30789 12.8068 9.05784 13.0569C8.80779 13.3069 8.66732 13.6461 8.66732 13.9997C8.66732 14.3679 8.36884 14.6663 8.00065 14.6663C7.63246 14.6663 7.33398 14.3679 7.33398 13.9997V4.66634C7.33398 3.78229 7.68517 2.93444 8.31029 2.30932ZM8.66732 11.6903C9.06925 11.4582 9.5285 11.333 10.0007 11.333H14.0007V2.66634H10.6673C10.1369 2.66634 9.62818 2.87705 9.2531 3.25213C8.87803 3.6272 8.66732 4.13591 8.66732 4.66634V11.6903Z" fill="#525252"/>
<path fill-rule="evenodd" clip-rule="evenodd" d="M0.666016 1.99967C0.666016 1.63148 0.964492 1.33301 1.33268 1.33301H5.33268C6.21674 1.33301 7.06458 1.6842 7.6897 2.30932C8.31483 2.93444 8.66602 3.78229 8.66602 4.66634V13.9997C8.66602 14.3679 8.36754 14.6663 7.99935 14.6663C7.63116 14.6663 7.33268 14.3679 7.33268 13.9997C7.33268 13.6461 7.19221 13.3069 6.94216 13.0569C6.69211 12.8068 6.35297 12.6663 5.99935 12.6663H1.33268C0.964492 12.6663 0.666016 12.3679 0.666016 11.9997V1.99967ZM7.33268 11.6903V4.66634C7.33268 4.13591 7.12197 3.6272 6.7469 3.25213C6.37182 2.87705 5.86312 2.66634 5.33268 2.66634H1.99935V11.333H5.99935C6.4715 11.333 6.93075 11.4582 7.33268 11.6903Z" fill="#525252"/>
</svg>
