<svg width="20" height="20" viewBox="0 0 20 20" fill="none" xmlns="http://www.w3.org/2000/svg">
<path d="M17.5013 4.16699C17.9615 4.16699 18.3346 4.54009 18.3346 5.00033C18.3346 5.46056 17.9615 5.83366 17.5013 5.83366H2.5013C2.04106 5.83366 1.66797 5.46056 1.66797 5.00033C1.66797 4.54009 2.04106 4.16699 2.5013 4.16699H17.5013Z" fill="#A3A3A3"/>
<path d="M14.9987 5.83301H4.9987V16.6663C4.9987 16.8874 5.08656 17.0993 5.24284 17.2555C5.39912 17.4118 5.61102 17.4997 5.83203 17.4997H14.1654C14.3864 17.4997 14.5983 17.4118 14.7546 17.2555C14.9108 17.0993 14.9987 16.8874 14.9987 16.6663V5.83301ZM12.4987 3.33301C12.4987 3.11199 12.4108 2.9001 12.2546 2.74382C12.0983 2.58753 11.8864 2.49967 11.6654 2.49967H8.33203C8.11102 2.49967 7.89912 2.58753 7.74284 2.74382C7.58656 2.9001 7.4987 3.11199 7.4987 3.33301V4.16634H12.4987V3.33301ZM14.1654 4.16634H15.832C16.2923 4.16634 16.6654 4.53944 16.6654 4.99967V16.6663C16.6654 17.3294 16.4018 17.9651 15.9329 18.4339C15.4641 18.9028 14.8284 19.1663 14.1654 19.1663H5.83203C5.16899 19.1663 4.53329 18.9028 4.06445 18.4339C3.59561 17.9651 3.33203 17.3294 3.33203 16.6663V4.99967C3.33203 4.53944 3.70513 4.16634 4.16536 4.16634H5.83203V3.33301C5.83203 2.66997 6.09561 2.03427 6.56445 1.56543C7.03329 1.09659 7.66899 0.833008 8.33203 0.833008H11.6654C12.3284 0.833008 12.9641 1.09659 13.4329 1.56543C13.9018 2.03427 14.1654 2.66997 14.1654 3.33301V4.16634Z" fill="#A3A3A3"/>
<path d="M10.832 14.1663V9.16634C10.832 8.7061 11.2051 8.33301 11.6654 8.33301C12.1256 8.33301 12.4987 8.7061 12.4987 9.16634V14.1663C12.4987 14.6266 12.1256 14.9997 11.6654 14.9997C11.2051 14.9997 10.832 14.6266 10.832 14.1663Z" fill="#A3A3A3"/>
<path d="M7.5 14.1663V9.16634C7.5 8.7061 7.8731 8.33301 8.33333 8.33301C8.79357 8.33301 9.16667 8.7061 9.16667 9.16634V14.1663C9.16667 14.6266 8.79357 14.9997 8.33333 14.9997C7.8731 14.9997 7.5 14.6266 7.5 14.1663Z" fill="#A3A3A3"/>
</svg>
