<svg width="24" height="24" viewBox="0 0 24 24" fill="none" xmlns="http://www.w3.org/2000/svg">
<g clip-path="url(#clip0_2086_18822)">
<path d="M0.000469208 7.76472V9.38605C0.0318756 9.45185 0.077343 9.5148 0.0918751 9.58442C0.218433 10.1953 0.280308 10.8271 0.47624 11.4132C0.728891 12.1685 1.05232 12.9058 1.40857 13.6177C2.00059 14.8022 2.78198 15.8642 3.68711 16.817C4.42444 17.5933 5.20771 18.3282 6.00832 19.0368C6.61675 19.5752 7.25845 20.0859 7.9325 20.5351C9.15732 21.351 10.415 22.1173 11.666 22.8922C11.8802 23.0248 12.1395 23.0405 12.3687 22.9089C12.8674 22.6228 13.368 22.3376 13.8499 22.0238C14.7681 21.4259 15.6953 20.8388 16.5775 20.1894C17.3575 19.6147 18.1121 18.9953 18.8218 18.3329C19.5751 17.6296 20.3002 16.8866 20.9644 16.0969C21.5025 15.4575 21.9483 14.735 22.4025 14.0273C22.6608 13.6249 22.8535 13.179 23.0986 12.7083C22.9702 12.7083 22.8956 12.7083 22.8211 12.7083C21.7355 12.7083 20.6494 12.7165 19.5643 12.6993C19.4002 12.6969 19.1982 12.6154 19.0853 12.499C18.9259 12.334 18.8214 12.108 18.714 11.8972C18.49 11.4585 18.2795 11.0126 18.054 10.551C18.0236 10.5925 18.0086 10.6073 17.9996 10.6259C17.5773 11.4842 17.1578 12.3435 16.7326 13.2005C16.3656 13.9406 15.9995 14.6816 15.6184 15.4141C15.3189 15.9906 14.6092 15.8165 14.3861 15.3611C13.6357 13.829 12.8885 12.2954 12.1371 10.7637C12.1109 10.7103 12.0546 10.6721 12.0124 10.6264C11.9773 10.6707 11.9327 10.7108 11.9079 10.7604C11.6716 11.2325 11.4321 11.7031 11.2067 12.1805C11.0403 12.5324 10.8007 12.7188 10.3943 12.7131C9.26185 12.6979 8.12937 12.7079 6.99689 12.7079C6.40347 12.7079 5.80957 12.7141 5.21615 12.705C4.92365 12.7002 4.65928 12.5963 4.54866 12.2963C4.45538 12.0431 4.43663 11.7746 4.63866 11.5472C4.81256 11.3517 5.02818 11.2735 5.28786 11.2744C6.79534 11.2792 8.30281 11.2735 9.81028 11.2811C9.99777 11.2821 10.0953 11.2296 10.1801 11.0513C10.557 10.2597 10.9582 9.47951 11.3393 8.68983C11.502 8.35269 11.7471 8.21535 12.1141 8.23443C12.4273 8.25064 12.5698 8.4514 12.6893 8.69507C13.256 9.85242 13.8199 11.0112 14.3871 12.1681C14.5886 12.5796 14.7972 12.9878 15.0194 13.4308C15.0738 13.3264 15.1103 13.2596 15.1441 13.1914C15.4567 12.5572 15.7661 11.9215 16.0816 11.2892C16.5283 10.3927 16.9801 9.49859 17.4278 8.60209C17.5825 8.29213 17.8431 8.21249 18.1586 8.23776C18.4267 8.2597 18.5837 8.42946 18.6939 8.65454C19.0885 9.45996 19.4767 10.2687 19.876 11.0722C19.9173 11.1552 20.0148 11.2668 20.087 11.2677C21.2579 11.2801 22.4288 11.2763 23.6222 11.2763C23.7014 10.9182 23.7825 10.5677 23.8552 10.2153C23.91 9.95685 23.9527 9.69458 24 9.43373C24 8.8615 24 8.28926 24 7.71703C23.9841 7.6064 23.977 7.4929 23.9503 7.38513C23.8134 6.83293 23.6995 6.27261 23.5247 5.73328C23.2214 4.79768 22.7171 3.97176 22.0627 3.2474C21.4065 2.52066 20.6471 1.93365 19.7452 1.54787C19.0913 1.26795 18.4248 1.04811 17.7067 1.04144C17.4175 1.03858 17.1283 1.03905 16.8386 1.04144C16.1059 1.04764 15.4202 1.25269 14.7546 1.54882C13.6919 2.02187 12.8468 2.77626 12.1193 3.67562C12.0063 3.81534 11.9651 3.74811 11.8924 3.67467C11.4631 3.2393 11.0553 2.77865 10.601 2.37188C9.93731 1.77771 9.14279 1.41291 8.29249 1.18831C7.68501 1.02809 7.06392 0.944635 6.433 1.04096C6.0116 1.10534 5.58083 1.133 5.16974 1.23886C4.17742 1.49493 3.30134 1.99421 2.53683 2.68423C1.69872 3.44053 1.03545 4.33512 0.627176 5.40043C0.441555 5.8854 0.324839 6.39851 0.18984 6.90207C0.113436 7.18628 0.0623417 7.47717 0 7.76519L0.000469208 7.76472Z" fill="#26A5BB"/>
</g>
<defs>
<clipPath id="clip0_2086_18822">
<rect width="24" height="24" fill="white" transform="matrix(-1 0 0 1 24 0)"/>
</clipPath>
</defs>
</svg>
