<svg width="24" height="24" viewBox="0 0 24 24" fill="none" xmlns="http://www.w3.org/2000/svg">
<path fill-rule="evenodd" clip-rule="evenodd" d="M20.6962 9.19799C21.4645 10.2438 21.9102 11.4569 21.9102 11.4569H21.9113C22.8503 8.73177 22.1441 6.34569 22.1441 6.34569C21.2206 2.78548 17.5486 1.80035 17.5486 1.80035C14.4155 1.03516 11.3268 2.70415 11.3268 2.70415C6.52956 5.23685 4.15036 9.61495 4.15036 9.61495C4.54394 10.8865 5.32333 11.9346 5.32333 11.9346C7.29011 8.58858 10.635 5.70994 10.635 5.70994C12.1339 4.39605 14.2492 3.34563 14.2492 3.34563C14.6827 3.12913 15.6539 2.72248 16.8857 2.87598C18.9711 3.136 20.1141 4.79011 20.3026 5.0719C20.5565 5.50375 21.0609 6.50034 20.9888 7.81079C20.9578 8.37666 20.827 8.84861 20.6962 9.19799ZM2.08452 12.9343L2.08337 12.9312H2.08559L2.08452 12.9343ZM2.08452 12.9343C2.10988 13.0022 2.55275 14.1739 3.29958 15.189C3.16876 15.5384 3.03904 16.0103 3.008 16.5762C2.93704 17.8867 3.44149 18.8832 3.69648 19.3151C3.88496 19.5969 5.03021 21.2498 7.11562 21.5087C8.34736 21.6611 9.31855 21.2544 9.75204 21.0368C9.75204 21.0368 11.8674 19.9852 13.3652 18.6702C13.3652 18.6702 16.7078 15.7892 18.6724 12.4421C18.6724 12.4421 19.4518 13.4902 19.8465 14.7606C19.8465 14.7606 17.4695 19.1398 12.6756 21.676C12.6756 21.676 9.58796 23.3472 6.45375 22.5843C6.45375 22.5843 2.78072 21.6015 1.85609 18.0424C1.85609 18.0424 1.14819 15.6593 2.08452 12.9343ZM12.6206 22.2258C12.6206 22.2258 13.8025 21.7871 14.828 21.0116C15.1639 21.1525 15.6174 21.2956 16.1651 21.338C17.4323 21.4365 18.4057 20.9325 18.8281 20.6782C19.1041 20.4892 20.725 19.3368 21.0144 17.1879C21.1851 15.9175 20.8093 14.9083 20.6075 14.4559C20.6075 14.4559 19.6285 12.2519 18.3846 10.6792C18.3846 10.6792 15.6584 7.17164 12.4566 5.07996C12.4566 5.07996 13.4854 4.29415 14.7216 3.9104C14.7216 3.9104 18.9157 6.44654 21.2805 11.4478C21.2805 11.4478 22.8404 14.6689 22.0443 17.8924C22.0443 17.8924 21.0255 21.6679 17.5631 22.558C17.5631 22.558 15.2415 23.2453 12.6206 22.2269V22.2258ZM9.16624 3.37053C10.1918 2.59502 11.3725 2.15515 11.3725 2.15515H11.3736C8.7516 1.13909 6.43115 1.82754 6.43115 1.82754C2.96988 2.71988 1.95323 6.49659 1.95323 6.49659C1.15942 9.72003 2.72154 12.94 2.72154 12.94C5.09077 17.9378 9.28598 20.4717 9.28598 20.4717C10.5221 20.0868 11.5499 19.2998 11.5499 19.2998C8.34583 17.2105 5.61739 13.7052 5.61739 13.7052C4.37124 12.1347 3.39118 9.9308 3.39118 9.9308C3.1894 9.47833 2.81245 8.46914 2.98208 7.19879C3.27033 5.04868 4.8901 3.89517 5.16616 3.70616C5.58856 3.45071 6.56198 2.94669 7.82919 3.04406C8.37687 3.08644 8.83032 3.22963 9.16624 3.37053ZM12.9175 13.4307C12.9142 13.4281 12.9112 13.4253 12.9082 13.4226C12.9021 13.4171 12.8961 13.4117 12.8887 13.4078L10.464 11.9611C10.2279 11.8202 9.93295 11.9966 9.93295 12.2784V15.1719V15.1799C9.93251 15.1942 9.9317 15.2083 9.9309 15.2224L9.9309 15.2224C9.92971 15.2433 9.92852 15.2641 9.92852 15.2853C9.94182 16.4377 10.8565 17.3609 11.9718 17.3472C13.0871 17.3335 13.9807 16.3884 13.9674 15.236C13.9585 14.456 13.535 13.7813 12.9175 13.4319V13.4307ZM11.1617 11.2815C11.1575 11.278 11.1533 11.2746 11.149 11.2716H11.1501C10.5259 10.9348 10.0902 10.2693 10.0658 9.48918C10.0303 8.33795 10.9062 7.37459 12.0204 7.33793C13.1346 7.30127 14.067 8.20622 14.1025 9.35745C14.1031 9.37771 14.1023 9.3976 14.1015 9.41754C14.1009 9.43255 14.1003 9.44758 14.1003 9.46283C14.1014 9.46627 14.1014 9.47085 14.1014 9.47085L14.1568 12.3632C14.1623 12.645 13.8696 12.8272 13.6313 12.6908L11.1789 11.2945C11.1727 11.2906 11.1671 11.286 11.1617 11.2815Z" fill="#26A5BB"/>
</svg>
