<svg width="20" height="20" viewBox="0 0 20 20" fill="none" xmlns="http://www.w3.org/2000/svg">
<path d="M15.832 9.16634H10.832V4.16634C10.832 3.94533 10.7442 3.73337 10.588 3.57709C10.4317 3.42081 10.2197 3.33301 9.9987 3.33301C9.77768 3.33301 9.56572 3.42081 9.40944 3.57709C9.25316 3.73337 9.16536 3.94533 9.16536 4.16634V9.16634H4.16536C3.94435 9.16634 3.73239 9.25414 3.57611 9.41042C3.41983 9.5667 3.33203 9.77866 3.33203 9.99967C3.33203 10.2207 3.41983 10.4326 3.57611 10.5889C3.73239 10.7452 3.94435 10.833 4.16536 10.833H9.16536V15.833C9.16536 16.054 9.25316 16.266 9.40944 16.4223C9.56572 16.5785 9.77768 16.6663 9.9987 16.6663C10.2197 16.6663 10.4317 16.5785 10.588 16.4223C10.7442 16.266 10.832 16.054 10.832 15.833V10.833H15.832C16.053 10.833 16.265 10.7452 16.4213 10.5889C16.5776 10.4326 16.6654 10.2207 16.6654 9.99967C16.6654 9.77866 16.5776 9.5667 16.4213 9.41042C16.265 9.25414 16.053 9.16634 15.832 9.16634Z" fill="#888888"/>
</svg>
