<svg width="16" height="16" viewBox="0 0 16 16" fill="none" xmlns="http://www.w3.org/2000/svg">
<path fill-rule="evenodd" clip-rule="evenodd" d="M7.46757 3.34599C7.35982 3.32469 7.24848 3.33034 7.14344 3.36244C7.0384 3.39454 6.94292 3.4521 6.86548 3.52999C6.6059 3.79111 6.1838 3.79236 5.92268 3.53279C5.66156 3.27321 5.66031 2.8511 5.91988 2.58998C6.15219 2.3563 6.43863 2.18363 6.75376 2.08732C7.06888 1.99102 7.40291 1.97407 7.72616 2.03797C8.04941 2.10188 8.35187 2.24466 8.60664 2.45363C8.86141 2.66259 9.0606 2.93127 9.18651 3.23578C9.31242 3.54028 9.36115 3.87117 9.32835 4.19905C9.29556 4.52692 9.18226 4.84161 8.99854 5.11514C8.81482 5.38868 8.56635 5.61258 8.27524 5.76695C7.9846 5.92107 7.66043 6.00111 7.33147 5.99999C7.33094 5.99999 7.33041 5.99998 7.32988 5.99998L7.33268 5.33332V5.99999H7.33147H1.33268C0.964492 5.99999 0.666016 5.70151 0.666016 5.33332C0.666016 4.96513 0.964492 4.66666 1.33268 4.66666H7.33548C7.44532 4.66712 7.55356 4.64044 7.6506 4.58898C7.74764 4.53753 7.83046 4.46289 7.8917 4.37171C7.95294 4.28054 7.99071 4.17564 8.00164 4.06635C8.01257 3.95706 7.99633 3.84676 7.95436 3.74526C7.91239 3.64376 7.84599 3.5542 7.76107 3.48454C7.67614 3.41489 7.57532 3.36729 7.46757 3.34599ZM13.192 5.35264C13.0308 5.3205 12.8642 5.32857 12.7069 5.37613C12.5496 5.42369 12.4065 5.50928 12.2902 5.62532C12.0295 5.88534 11.6074 5.88481 11.3473 5.62413C11.0873 5.36345 11.0879 4.94134 11.3485 4.68132C11.62 4.41055 11.954 4.21084 12.321 4.09987C12.688 3.98889 13.0767 3.97006 13.4527 4.04505C13.8287 4.12004 14.1805 4.28654 14.4768 4.52981C14.7732 4.77308 15.005 5.08564 15.1519 5.43983C15.2987 5.79403 15.3559 6.17894 15.3186 6.56054C15.2813 6.94213 15.1505 7.30865 14.9378 7.62767C14.7251 7.94668 14.4371 8.20837 14.0992 8.38959C13.7613 8.57081 13.384 8.66597 13.0005 8.66665L12.9993 8.66666H1.33268C0.964492 8.66666 0.666016 8.36818 0.666016 7.99999C0.666016 7.6318 0.964492 7.33332 1.33268 7.33332H12.9986C13.1628 7.33295 13.3243 7.29217 13.469 7.21458C13.6138 7.13692 13.7373 7.02476 13.8284 6.88804C13.9196 6.75132 13.9756 6.59424 13.9916 6.4307C14.0076 6.26716 13.9831 6.1022 13.9201 5.9504C13.8572 5.7986 13.7579 5.66465 13.6309 5.56039C13.5038 5.45613 13.3531 5.38478 13.192 5.35264ZM9.33138 9.99999C9.66037 9.99885 9.98457 10.0789 10.2752 10.233C10.5664 10.3874 10.8148 10.6113 10.9985 10.8848C11.1823 11.1584 11.2956 11.4731 11.3284 11.8009C11.3611 12.1288 11.3124 12.4597 11.1865 12.7642C11.0606 13.0687 10.8614 13.3374 10.6066 13.5463C10.3519 13.7553 10.0494 13.8981 9.72616 13.962C9.40291 14.0259 9.06888 14.009 8.75376 13.9127C8.43863 13.8164 8.15219 13.6437 7.91988 13.41C7.66031 13.1489 7.66156 12.7268 7.92268 12.4672C8.1838 12.2076 8.6059 12.2089 8.86548 12.47C8.94292 12.5479 9.0384 12.6054 9.14344 12.6375C9.24848 12.6696 9.35983 12.6753 9.46758 12.654C9.57532 12.6327 9.67614 12.5851 9.76107 12.5154C9.84599 12.4458 9.91239 12.3562 9.95436 12.2547C9.99633 12.1532 10.0126 12.0429 10.0016 11.9336C9.99071 11.8243 9.95294 11.7194 9.8917 11.6283C9.83046 11.5371 9.74764 11.4625 9.6506 11.411C9.55357 11.3595 9.44532 11.3329 9.33548 11.3333L9.33268 11.3333H1.33268C0.964492 11.3333 0.666016 11.0348 0.666016 10.6667C0.666016 10.2985 0.964492 9.99999 1.33268 9.99999H9.33138Z" fill="#525252"/>
</svg>
