<svg width="16" height="16" viewBox="0 0 16 16" fill="none" xmlns="http://www.w3.org/2000/svg">
<path d="M8.00094 1.33331C8.87631 1.33336 9.74299 1.50614 10.5517 1.84113C11.3605 2.17613 12.0958 2.66649 12.7148 3.28546C13.3338 3.9045 13.8251 4.63974 14.1601 5.44855C14.4952 6.25738 14.667 7.12483 14.667 8.00031C14.6669 9.31861 14.2763 10.6073 13.5439 11.7034C12.8114 12.7998 11.7699 13.6549 10.5517 14.1595C9.33364 14.664 7.99326 14.7956 6.70016 14.5384C5.40696 14.2812 4.21845 13.6465 3.2861 12.7142C2.35384 11.7818 1.7191 10.5932 1.46188 9.30011C1.20478 8.00705 1.33724 6.66657 1.84176 5.44855C2.34633 4.23058 3.20071 3.18981 4.29684 2.45734C5.39317 1.72479 6.6824 1.33331 8.00094 1.33331ZM10.6875 5.45929C10.4957 5.45929 10.3117 5.53604 10.1757 5.6712L7.06247 8.79132L5.8652 7.59406C5.80017 7.51812 5.71984 7.45597 5.62985 7.41241C5.53988 7.36889 5.44164 7.34501 5.34176 7.34113C5.24184 7.33727 5.14191 7.35348 5.0488 7.38995C4.95568 7.42644 4.87147 7.48232 4.80075 7.55304C4.73003 7.62376 4.67415 7.70796 4.63766 7.80109C4.60118 7.89421 4.58497 7.99411 4.58883 8.09406C4.59272 8.19394 4.61659 8.29216 4.66012 8.38214C4.70368 8.47214 4.76582 8.55246 4.84176 8.61749L6.54684 10.3294C6.61459 10.3966 6.69485 10.4505 6.78317 10.4866C6.87159 10.5227 6.96696 10.5409 7.06247 10.5403C7.25275 10.5395 7.43518 10.4634 7.57028 10.3294L11.1992 6.70148C11.2671 6.63407 11.3206 6.55348 11.3574 6.46515C11.3942 6.37671 11.4131 6.28165 11.4131 6.18585C11.413 6.09009 11.3942 5.99495 11.3574 5.90656C11.3206 5.81846 11.2669 5.73848 11.1992 5.6712C11.0633 5.53613 10.8791 5.45939 10.6875 5.45929Z" fill="#26A5BB"/>
</svg>
