<svg width="20" height="20" viewBox="0 0 20 20" fill="none" xmlns="http://www.w3.org/2000/svg">
<g opacity="0.6">
<path fill-rule="evenodd" clip-rule="evenodd" d="M10.1509 5.29619C10.9737 4.50415 12.0771 4.04315 13.2369 4.00288L13.403 4C14.6232 4 15.7931 4.46643 16.6548 5.29593C17.5162 6.12446 18 7.24783 18 8.41893C18 9.73949 17.7621 10.3633 16.6829 11.5134L16.5339 11.6691L16.256 11.949L16.0345 12.1665L15.5933 12.5912L14.7154 13.4172L13.9574 14.119L13.0899 14.9143L11.2517 16.5826C10.6527 17.1234 9.72253 17.1408 9.10158 16.6226L8.22442 15.8879L7.02869 14.876L6.48564 14.4112L5.66158 13.6975L4.93859 13.0595L4.55321 12.713L4.09575 12.2932L3.79486 12.01L3.5301 11.7538L3.30141 11.5246C1.57629 9.75798 1.55034 6.99758 3.3187 5.29606C5.11416 3.56845 8.02707 3.56845 9.82253 5.29606L9.98672 5.45378L10.1509 5.29619ZM15.6064 6.34973C15.0358 5.80551 14.2623 5.5 13.4561 5.5C12.6499 5.5 11.8764 5.80551 11.3056 6.34986L10.5627 7.05812C10.245 7.36095 9.72803 7.36095 9.41036 7.05812L8.66738 6.34986C7.47918 5.21719 5.55465 5.21719 4.36645 6.34986C3.19962 7.46216 3.21702 9.29544 4.38401 10.4794L4.60489 10.6986L4.86313 10.9458L5.05603 11.1261L5.4915 11.524L5.99311 11.9714L6.56074 12.4682L7.36291 13.1586L8.0786 13.7661L8.85989 14.4226L10.1559 15.5L11.3011 14.4726L12.476 13.4105L13.6056 12.3776L14.1958 11.8303L14.6965 11.359L15.1075 10.9639L15.3717 10.7028L15.5781 10.4907L15.7689 10.2857L15.9318 10.1014C16.3807 9.57542 16.4818 9.26908 16.4976 8.63154L16.5 8.40601C16.5 7.63446 16.1785 6.89479 15.6064 6.34973Z" fill="white"/>
</g>
</svg>
