<svg width="24" height="24" viewBox="0 0 24 24" fill="none" xmlns="http://www.w3.org/2000/svg">
<path fill-rule="evenodd" clip-rule="evenodd" d="M15.4378 2C18.1789 2 20.375 4.0447 20.4948 6.57173L20.5 6.78947V9.6253C20.5 10.1776 19.9926 10.6253 19.3667 10.6253C18.7855 10.6253 18.3064 10.2393 18.241 9.74192L18.2333 9.6253V6.78947C18.2333 5.28998 17.0543 4.0951 15.6121 4.00541L15.4378 4H8.56222C7.10039 4 5.86513 5.1372 5.77227 6.61105L5.76667 6.78947V17.2105C5.76667 18.71 6.94571 19.9049 8.38795 19.9946L8.56222 20H10.7048C11.3307 20 11.8381 20.4477 11.8381 21C11.8381 21.5128 11.4006 21.9355 10.8369 21.9933L10.7048 22H8.56222C5.82112 22 3.62504 19.9553 3.50516 17.4283L3.5 17.2105V6.78947C3.5 4.23617 5.61993 2.12054 8.32864 2.00497L8.56222 2H15.4378ZM8.85 7.00005C8.38056 7.00005 8 7.38061 8 7.85005C8 8.31949 8.38056 8.70005 8.85 8.70005H15.4577C15.9271 8.70005 16.3077 8.31949 16.3077 7.85005C16.3077 7.38061 15.9271 7.00005 15.4577 7.00005H8.85ZM8.85 11.1381C8.38056 11.1381 8 11.5186 8 11.9881C8 12.4575 8.38056 12.8381 8.85 12.8381H12.15C12.6194 12.8381 13 12.4575 13 11.9881C13 11.5186 12.6194 11.1381 12.15 11.1381H8.85ZM8 16.1259C8 15.6565 8.38056 15.2759 8.85 15.2759H10.15C10.6194 15.2759 11 15.6565 11 16.1259C11 16.5954 10.6194 16.9759 10.15 16.9759H8.85C8.38056 16.9759 8 16.5954 8 16.1259ZM17.7744 22.0001C17.1001 22.0001 16.4452 21.8684 15.8281 21.6074C15.233 21.3549 14.6976 20.9952 14.2391 20.5354C13.7805 20.0769 13.4196 19.5415 13.1671 18.9464C12.9062 18.3293 12.7744 17.6745 12.7744 17.0001C12.7744 16.3257 12.9062 15.6708 13.1671 15.0537C13.4196 14.4586 13.7793 13.9232 14.2391 13.4647C14.6976 13.0062 15.233 12.6452 15.8281 12.3928C16.4452 12.1318 17.1001 12.0001 17.7744 12.0001C18.4488 12.0001 19.1037 12.1318 19.7208 12.3928C20.3159 12.6452 20.8513 13.0049 21.3098 13.4647C21.7683 13.9232 22.1293 14.4586 22.3818 15.0537C22.6427 15.6708 22.7744 16.3257 22.7744 17.0001C22.7744 17.6745 22.6427 18.3293 22.3818 18.9464C22.1293 19.5415 21.7696 20.0769 21.3098 20.5354C20.8513 20.994 20.3159 21.3549 19.7208 21.6074C19.1037 21.8684 18.4488 22.0001 17.7744 22.0001ZM17.7745 13.7C15.9546 13.7 14.4745 15.1802 14.4745 17C14.4745 18.8199 15.9546 20.3001 17.7745 20.3001C19.5943 20.3001 21.0745 18.8199 21.0745 17C21.0745 15.1802 19.5943 13.7 17.7745 13.7ZM17.0742 16.9991C17.0742 17.0099 17.0747 17.0207 17.0757 17.0313C17.0747 17.0447 17.0742 17.0583 17.0742 17.072C17.0742 17.3467 17.2657 17.5701 17.5011 17.5701H19.1157C19.3511 17.5701 19.5425 17.3467 19.5425 17.072C19.5425 16.7974 19.3511 16.5739 19.1157 16.5739H18.0742V14.8549C18.0742 14.6205 17.85 14.4297 17.5742 14.4297C17.2985 14.4297 17.0742 14.6205 17.0742 14.8549V16.9991Z" fill="white"/>
</svg>
