<svg width="20" height="20" viewBox="0 0 20 20" fill="none" xmlns="http://www.w3.org/2000/svg">
<path d="M7.50065 10.833V4.16663C7.50065 2.78591 8.61994 1.66663 10.0007 1.66663C11.3814 1.66663 12.5007 2.78591 12.5007 4.16663V10.833C13.5127 11.5932 14.1673 12.8035 14.1673 14.1666C14.1673 16.4678 12.3018 18.3333 10.0007 18.3333C7.69948 18.3333 5.83398 16.4678 5.83398 14.1666C5.83398 12.8035 6.48861 11.5932 7.50065 10.833Z" stroke="#525252" stroke-width="1.6" stroke-linejoin="round"/>
<path d="M10 7.08337V12.5" stroke="#525252" stroke-width="1.6" stroke-linecap="round" stroke-linejoin="round"/>
<path d="M10.0007 15.8333C10.9211 15.8333 11.6673 15.0871 11.6673 14.1667C11.6673 13.2462 10.9211 12.5 10.0007 12.5C9.08019 12.5 8.33398 13.2462 8.33398 14.1667C8.33398 15.0871 9.08019 15.8333 10.0007 15.8333Z" stroke="#525252" stroke-width="1.6" stroke-linejoin="round"/>
</svg>
