<svg width="20" height="20" viewBox="0 0 20 20" fill="none" xmlns="http://www.w3.org/2000/svg">
<path d="M15.834 9.16683H10.834V4.16683C10.834 3.94582 10.7462 3.73385 10.5899 3.57757C10.4336 3.42129 10.2217 3.3335 10.0007 3.3335C9.77964 3.3335 9.56768 3.42129 9.4114 3.57757C9.25512 3.73385 9.16732 3.94582 9.16732 4.16683V9.16683H4.16732C3.9463 9.16683 3.73434 9.25463 3.57806 9.41091C3.42178 9.56719 3.33398 9.77915 3.33398 10.0002C3.33398 10.2212 3.42178 10.4331 3.57806 10.5894C3.73434 10.7457 3.9463 10.8335 4.16732 10.8335H9.16732V15.8335C9.16732 16.0545 9.25512 16.2665 9.4114 16.4228C9.56768 16.579 9.77964 16.6668 10.0007 16.6668C10.2217 16.6668 10.4336 16.579 10.5899 16.4228C10.7462 16.2665 10.834 16.0545 10.834 15.8335V10.8335H15.834C16.055 10.8335 16.267 10.7457 16.4232 10.5894C16.5795 10.4331 16.6673 10.2212 16.6673 10.0002C16.6673 9.77915 16.5795 9.56719 16.4232 9.41091C16.267 9.25463 16.055 9.16683 15.834 9.16683Z" fill="#525252"/>
</svg>
