<svg width="10" height="18" viewBox="0 0 10 18" fill="none" xmlns="http://www.w3.org/2000/svg">
<path d="M10.002 8.68926C9.99216 8.34639 9.86481 8.05251 9.60031 7.78801L1.97884 0.333072C1.75353 0.117555 1.48903 0 1.16575 0C0.509404 0 0 0.509404 0 1.16575C0 1.47923 0.127351 1.77312 0.352665 1.99843L7.21003 8.68926L0.352665 15.3801C0.127351 15.6054 0 15.8895 0 16.2128C0 16.8691 0.509404 17.3785 1.16575 17.3785C1.47923 17.3785 1.75353 17.261 1.97884 17.0455L9.60031 9.58072C9.87461 9.32602 10.002 9.03213 10.002 8.68926Z" fill="#525252"/>
</svg>
