<svg width="20" height="20" viewBox="0 0 20 20" fill="none" xmlns="http://www.w3.org/2000/svg">
<path d="M16.359 3.04172C16.2622 2.9634 16.149 2.90778 16.0279 2.87894C15.9068 2.8501 15.7807 2.84877 15.659 2.87505C14.7685 3.06167 13.8493 3.06405 12.9579 2.88204C12.0664 2.70003 11.2217 2.33748 10.4757 1.81672C10.3362 1.71995 10.1704 1.66809 10.0007 1.66809C9.83088 1.66809 9.66515 1.71995 9.52566 1.81672C8.77962 2.33748 7.93488 2.70003 7.04346 2.88204C6.15204 3.06405 5.23279 3.06167 4.34232 2.87505C4.2206 2.84877 4.09454 2.8501 3.97341 2.87894C3.85227 2.90778 3.73914 2.9634 3.64232 3.04172C3.54564 3.12015 3.46776 3.21925 3.4144 3.33173C3.36104 3.44422 3.33357 3.56722 3.33399 3.69172V9.90005C3.33325 11.0948 3.61797 12.2725 4.16443 13.335C4.7109 14.3975 5.50331 15.3141 6.47566 16.0084L9.51732 18.1751C9.65846 18.2755 9.8274 18.3295 10.0007 18.3295C10.1739 18.3295 10.3429 18.2755 10.484 18.1751L13.5257 16.0084C14.498 15.3141 15.2904 14.3975 15.8369 13.335C16.3833 12.2725 16.6681 11.0948 16.6673 9.90005V3.69172C16.6677 3.56722 16.6403 3.44422 16.5869 3.33173C16.5336 3.21925 16.4557 3.12015 16.359 3.04172ZM15.0007 9.90005C15.0013 10.829 14.7801 11.7447 14.3554 12.5709C13.9307 13.3971 13.3148 14.1099 12.559 14.6501L10.0007 16.4751L7.44232 14.6501C6.68652 14.1099 6.07064 13.3971 5.64595 12.5709C5.22125 11.7447 5.00002 10.829 5.00066 9.90005V4.65005C6.74768 4.79958 8.49736 4.39424 10.0007 3.49172C11.504 4.39424 13.2536 4.79958 15.0007 4.65005V9.90005ZM11.284 7.99172L9.04232 10.2417L8.30066 9.49172C8.14374 9.3348 7.93091 9.24664 7.70899 9.24664C7.48707 9.24664 7.27424 9.3348 7.11732 9.49172C6.9604 9.64864 6.87225 9.86147 6.87225 10.0834C6.87225 10.3053 6.9604 10.5181 7.11732 10.6751L8.45066 12.0084C8.52813 12.0865 8.62029 12.1485 8.72184 12.1908C8.82339 12.2331 8.93231 12.2549 9.04232 12.2549C9.15233 12.2549 9.26125 12.2331 9.3628 12.1908C9.46435 12.1485 9.55652 12.0865 9.63399 12.0084L12.5007 9.16672C12.6576 9.0098 12.7457 8.79697 12.7457 8.57505C12.7457 8.35314 12.6576 8.14031 12.5007 7.98339C12.3437 7.82647 12.1309 7.73831 11.909 7.73831C11.6871 7.73831 11.4742 7.82647 11.3173 7.98339L11.284 7.99172Z" fill="#525252"/>
</svg>
