<svg width="24" height="24" viewBox="0 0 24 24" fill="none" xmlns="http://www.w3.org/2000/svg">
<path d="M11.1992 17.0001V4.92464L9.56752 6.56899C9.41675 6.71961 9.21234 6.80423 8.99922 6.80423C8.78596 6.80423 8.58144 6.71951 8.43064 6.56871C8.27984 6.41792 8.19513 6.21339 8.19513 6.00013C8.19513 5.78688 8.27984 5.58235 8.43064 5.43156L11.4312 2.43097C11.5056 2.35599 11.5941 2.29648 11.6916 2.25586C11.789 2.21525 11.8936 2.19434 11.9992 2.19434C12.1048 2.19434 12.2094 2.21525 12.3069 2.25586C12.4044 2.29648 12.4934 2.35657 12.5678 2.43156L15.5684 5.43213C15.6434 5.5065 15.7029 5.59499 15.7435 5.69247C15.7841 5.78996 15.805 5.89453 15.805 6.00013C15.805 6.10574 15.7841 6.21031 15.7435 6.3078C15.7029 6.40528 15.6434 6.49376 15.5684 6.56813L15.5672 6.56929C15.4928 6.64428 15.4044 6.70379 15.3069 6.74441C15.2094 6.78502 15.1048 6.80593 14.9992 6.80593C14.8936 6.80593 14.789 6.78502 14.6916 6.74441C14.5941 6.70379 14.5056 6.64424 14.4312 6.56926L12.7992 4.92464V17.0001C12.7992 17.2123 12.7149 17.4158 12.5649 17.5658C12.4149 17.7158 12.2114 17.8001 11.9992 17.8001C11.787 17.8001 11.5836 17.7158 11.4335 17.5658C11.2835 17.4158 11.1992 17.2123 11.1992 17.0001Z" fill="#CECECE"/>
<path d="M15.9992 9.20013H17.9992C18.7418 9.20013 19.454 9.49513 19.9791 10.0202C20.5042 10.5453 20.7992 11.2575 20.7992 12.0001V19.0001C20.7992 19.7427 20.5042 20.4549 19.9791 20.98C19.454 21.5051 18.7418 21.8001 17.9992 21.8001H5.99922C5.25661 21.8001 4.54442 21.5051 4.01932 20.98C3.49422 20.4549 3.19922 19.7427 3.19922 19.0001V12.0001C3.19922 11.2575 3.49422 10.5453 4.01932 10.0202C4.54442 9.49513 5.25661 9.20013 5.99922 9.20013H7.99922C8.21139 9.20013 8.41488 9.28442 8.5649 9.43445C8.71493 9.58448 8.79922 9.78796 8.79922 10.0001C8.79922 10.2123 8.71493 10.4158 8.5649 10.5658C8.41488 10.7158 8.21139 10.8001 7.99922 10.8001H5.99922C5.68096 10.8001 5.37573 10.9266 5.15069 11.1516C4.92565 11.3766 4.79922 11.6819 4.79922 12.0001V19.0001C4.79922 19.3184 4.92565 19.6236 5.15069 19.8487C5.37573 20.0737 5.68096 20.2001 5.99922 20.2001H17.9992C18.3175 20.2001 18.6227 20.0737 18.8477 19.8487C19.0728 19.6236 19.1992 19.3184 19.1992 19.0001V12.0001C19.1992 11.6819 19.0728 11.3767 18.8477 11.1516C18.6227 10.9266 18.3175 10.8001 17.9992 10.8001H15.9992C15.787 10.8001 15.5836 10.7158 15.4335 10.5658C15.2835 10.4158 15.1992 10.2123 15.1992 10.0001C15.1992 9.78796 15.2835 9.58448 15.4335 9.43445C15.5836 9.28442 15.787 9.20013 15.9992 9.20013Z" fill="#CECECE"/>
</svg>
