<svg width="20" height="20" viewBox="0 0 20 20" fill="none" xmlns="http://www.w3.org/2000/svg">
<path d="M8.33203 10.8333C8.68991 11.3118 9.1465 11.7077 9.67082 11.9941C10.1952 12.2806 10.775 12.4509 11.3709 12.4936C11.9669 12.5363 12.565 12.4503 13.1248 12.2415C13.6846 12.0327 14.193 11.7059 14.6154 11.2833L17.1154 8.78335C17.8744 7.9975 18.2943 6.94499 18.2848 5.85251C18.2753 4.76002 17.8371 3.71497 17.0646 2.94243C16.2921 2.1699 15.247 1.7317 14.1545 1.7222C13.062 1.71271 12.0095 2.13269 11.2237 2.89168L9.79036 4.31668" stroke="#26A5BB" stroke-width="2" stroke-linecap="round" stroke-linejoin="round"/>
<path d="M11.6678 9.16665C11.3099 8.68821 10.8533 8.29233 10.329 8.00587C9.80469 7.7194 9.22489 7.54905 8.62893 7.50637C8.03298 7.46369 7.43482 7.54968 6.87502 7.7585C6.31522 7.96732 5.80688 8.29409 5.38448 8.71665L2.88448 11.2167C2.12548 12.0025 1.70551 13.055 1.715 14.1475C1.72449 15.24 2.1627 16.285 2.93523 17.0576C3.70777 17.8301 4.75282 18.2683 5.8453 18.2778C6.93779 18.2873 7.9903 17.8673 8.77614 17.1083L10.2011 15.6833" stroke="#26A5BB" stroke-width="2" stroke-linecap="round" stroke-linejoin="round"/>
</svg>
