<svg width="24" height="24" viewBox="0 0 24 24" fill="none" xmlns="http://www.w3.org/2000/svg">
<path d="M7 2C5.62109 2 4.5 3.12109 4.5 4.5V19.5C4.5 20.8789 5.62109 22 7 22H17C18.3789 22 19.5 20.8789 19.5 19.5V8.25H14.5C13.8086 8.25 13.25 7.69141 13.25 7V2H7ZM14.5 2V7H19.5L14.5 2ZM8.875 12H15.125C15.4688 12 15.75 12.2812 15.75 12.625C15.75 12.9688 15.4688 13.25 15.125 13.25H8.875C8.53125 13.25 8.25 12.9688 8.25 12.625C8.25 12.2812 8.53125 12 8.875 12ZM8.875 14.5H15.125C15.4688 14.5 15.75 14.7812 15.75 15.125C15.75 15.4688 15.4688 15.75 15.125 15.75H8.875C8.53125 15.75 8.25 15.4688 8.25 15.125C8.25 14.7812 8.53125 14.5 8.875 14.5ZM8.875 17H15.125C15.4688 17 15.75 17.2812 15.75 17.625C15.75 17.9688 15.4688 18.25 15.125 18.25H8.875C8.53125 18.25 8.25 17.9688 8.25 17.625C8.25 17.2812 8.53125 17 8.875 17Z" fill="#A3A3A3"/>
</svg>
