<svg width="20" height="20" viewBox="0 0 20 20" fill="none" xmlns="http://www.w3.org/2000/svg">
<path d="M13.7472 19H6.25095C5.81716 18.9996 5.38857 18.9055 4.99444 18.7243C4.60031 18.5431 4.24992 18.279 3.9672 17.95C3.68908 17.6278 3.48373 17.2495 3.36517 16.8407C3.24661 16.432 3.21763 16.0025 3.2802 15.5815C3.68257 13.388 4.85267 11.4094 6.58095 10C4.85265 8.59011 3.68279 6.61093 3.28095 4.417C3.2185 3.99632 3.24747 3.56712 3.3659 3.15865C3.48432 2.75018 3.68942 2.37204 3.9672 2.05C4.24992 1.72099 4.60031 1.45687 4.99444 1.27566C5.38857 1.09445 5.81716 1.00042 6.25095 1L13.7472 1C14.1809 1.00038 14.6094 1.0944 15.0034 1.27561C15.3974 1.45683 15.7477 1.72097 16.0302 2.05C16.3084 2.37171 16.5139 2.74963 16.6327 3.15799C16.7515 3.56634 16.7808 3.99552 16.7187 4.41625C16.3124 6.61071 15.14 8.58957 13.4104 10C15.139 11.4116 16.3101 13.3913 16.715 15.586C16.7771 16.0068 16.7478 16.4362 16.629 16.8446C16.5102 17.2531 16.3047 17.6312 16.0264 17.953C15.744 18.281 15.3943 18.5443 15.001 18.725C14.6077 18.9056 14.18 18.9994 13.7472 19Z" fill="white"/>
</svg>
