<svg width="20" height="20" viewBox="0 0 20 20" fill="none" xmlns="http://www.w3.org/2000/svg">
<path fill-rule="evenodd" clip-rule="evenodd" d="M14.8692 3.87435C14.7042 3.87435 14.5408 3.90685 14.3884 3.97C14.2359 4.03314 14.0974 4.12569 13.9808 4.24236L4.8329 13.3902L4.16657 15.8334L6.6098 15.1671L15.7576 6.01925C15.8743 5.90258 15.9669 5.76407 16.03 5.61163C16.0931 5.45919 16.1256 5.29581 16.1256 5.13081C16.1256 4.9658 16.0931 4.80242 16.03 4.64998C15.9669 4.49754 15.8743 4.35903 15.7576 4.24236C15.641 4.12569 15.5025 4.03314 15.35 3.97C15.1976 3.90685 15.0342 3.87435 14.8692 3.87435ZM13.8624 2.70026C14.1816 2.56805 14.5237 2.5 14.8692 2.5C15.2147 2.5 15.5568 2.56805 15.876 2.70026C16.1951 2.83247 16.4852 3.02625 16.7295 3.27055C16.9737 3.51484 17.1675 3.80485 17.2997 4.12404C17.432 4.44323 17.5 4.78533 17.5 5.13081C17.5 5.47629 17.432 5.81839 17.2997 6.13757C17.1675 6.45676 16.9737 6.74677 16.7295 6.99107L7.45257 16.268C7.36801 16.3525 7.26285 16.4135 7.14747 16.445L3.368 17.4758C3.13009 17.5407 2.87566 17.4731 2.70129 17.2987C2.52691 17.1243 2.45935 16.8699 2.52423 16.632L3.55499 12.8525C3.58646 12.7372 3.64749 12.632 3.73205 12.5474L13.0089 3.27055C13.2532 3.02625 13.5432 2.83247 13.8624 2.70026Z" fill="#525252"/>
</svg>
