<svg width="7" height="10" viewBox="0 0 7 10" fill="none" xmlns="http://www.w3.org/2000/svg">
<path fill-rule="evenodd" clip-rule="evenodd" d="M0.157864 7.58073C0.365766 7.74143 0.701931 7.74369 0.913415 7.58581L2.95777 6.00563V9.58258C2.95777 9.95377 3.53825 10.1396 3.8778 9.87712L6.84219 7.58581C7.0526 7.42312 7.0526 7.15941 6.84219 6.99673L4.25886 4.99996L6.84219 3.00318C7.0526 2.8405 7.0526 2.57679 6.84219 2.41411L3.8778 0.122793C3.53825 -0.139667 2.95777 0.0465544 2.95777 0.41733V3.99428L0.913415 2.41411C0.701931 2.25622 0.365766 2.25848 0.157864 2.41918C-0.050039 2.57988 -0.0529603 2.83972 0.151298 3.00318L2.73463 4.99996L0.151298 6.99673C-0.0529603 7.1602 -0.050039 7.42003 0.157864 7.58073ZM5.44444 2.69231L3.88889 1.53846V3.84615L5.44444 2.69231ZM3.88889 8.46154L5.44444 7.30769L3.88889 6.15385V8.46154Z" fill="white"/>
</svg>
