<svg width="16" height="16" viewBox="0 0 16 16" fill="none" xmlns="http://www.w3.org/2000/svg">
<path fill-rule="evenodd" clip-rule="evenodd" d="M8.00028 1.12646C8.17719 1.12639 8.34688 1.19663 8.47198 1.32173L12.2452 5.09491C12.2451 5.09485 12.2452 5.09496 12.2452 5.09491C13.0846 5.93384 13.6565 7.00303 13.8883 8.16695C14.1202 9.33094 14.0016 10.5375 13.5476 11.6341C13.0936 12.7307 12.3245 13.668 11.3377 14.3275C10.351 14.9869 9.19076 15.3389 8.00391 15.3389C6.81705 15.3389 5.65686 14.9869 4.67008 14.3275C3.6833 13.668 2.91427 12.7307 2.46026 11.6341C2.00625 10.5375 1.88766 9.33094 2.11949 8.16695C2.35128 7.00314 2.92297 5.9342 3.76226 5.09531C3.76213 5.09544 3.76239 5.09517 3.76226 5.09531L7.52875 1.32214C7.65374 1.19694 7.82337 1.12654 8.00028 1.12646ZM8.00099 2.73636L4.70516 6.03802C4.05221 6.69055 3.60745 7.52206 3.42713 8.42739C3.24682 9.33272 3.33906 10.2712 3.69218 11.1241C4.0453 11.977 4.64343 12.706 5.41093 13.2189C6.17843 13.7318 7.0808 14.0056 8.00391 14.0056C8.92702 14.0056 9.82939 13.7318 10.5969 13.2189C11.3644 12.706 11.9625 11.977 12.3156 11.1241C12.6688 10.2712 12.761 9.33272 12.5807 8.42739C12.4004 7.52206 11.9556 6.69055 11.3027 6.03802L8.00099 2.73636Z" fill="#525252"/>
</svg>
