<svg width="20" height="20" viewBox="0 0 20 20" fill="none" xmlns="http://www.w3.org/2000/svg">
<path d="M18.8397 5.87485L14.1647 1.15818C14.0869 1.08095 13.9945 1.01985 13.893 0.978375C13.7914 0.936905 13.6827 0.915884 13.5731 0.916518C13.3544 0.917438 13.1449 1.00423 12.9897 1.15818L1.15639 12.9499C1.00118 13.106 0.914062 13.3172 0.914062 13.5374C0.914063 13.7575 1.00118 13.9687 1.15639 14.1249L5.87306 18.8415C5.95092 18.9188 6.04327 18.9799 6.1448 19.0213C6.24633 19.0628 6.35505 19.0838 6.46472 19.0832C6.68334 19.0823 6.89284 18.9955 7.04806 18.8415L9.40639 16.4832L16.4814 9.40818L18.8397 7.04985C18.9949 6.89372 19.0821 6.68251 19.0821 6.46235C19.0821 6.2422 18.9949 6.03099 18.8397 5.87485ZM15.8897 7.64152L15.2981 7.04985C15.1419 6.89464 14.9307 6.80752 14.7106 6.80752C14.4904 6.80752 14.2792 6.89464 14.1231 7.04985C14.045 7.12732 13.983 7.21949 13.9406 7.32104C13.8983 7.42259 13.8766 7.53151 13.8766 7.64152C13.8766 7.75153 13.8983 7.86045 13.9406 7.962C13.983 8.06355 14.045 8.15572 14.1231 8.23318L14.7147 8.82485L13.5314 9.99985L11.7647 8.23318C11.6053 8.09666 11.4002 8.02532 11.1905 8.03342C10.9808 8.04153 10.7818 8.12847 10.6334 8.27688C10.485 8.42529 10.3981 8.62424 10.39 8.83397C10.3819 9.0437 10.4532 9.24877 10.5897 9.40818L12.3564 11.1749L11.1731 12.3582L10.5897 11.7665C10.4328 11.6096 10.22 11.5214 9.99806 11.5214C9.77614 11.5214 9.56331 11.6096 9.40639 11.7665C9.24947 11.9234 9.16131 12.1363 9.16131 12.3582C9.16131 12.5801 9.24947 12.7929 9.40639 12.9499L9.99806 13.5332L8.82306 14.7165L7.04806 12.9499C6.89192 12.7946 6.68071 12.7075 6.46056 12.7075C6.2404 12.7075 6.02919 12.7946 5.87306 12.9499C5.71785 13.106 5.63073 13.3172 5.63073 13.5374C5.63073 13.7575 5.71785 13.9687 5.87306 14.1249L7.63972 15.8915L6.46472 17.0749L2.92306 13.5332L13.5314 2.92485L17.0731 6.46652L15.8897 7.64152Z" fill="white"/>
</svg>
