<svg width="12" height="12" viewBox="0 0 12 12" fill="none" xmlns="http://www.w3.org/2000/svg">
<path d="M10.0909 6C10.0909 3.74065 8.25935 1.90909 6 1.90909C3.74065 1.90909 1.90909 3.74065 1.90909 6C1.90909 8.25935 3.74065 10.0909 6 10.0909C8.25935 10.0909 10.0909 8.25935 10.0909 6ZM11 6C11 8.76142 8.76142 11 6 11C3.23858 11 1 8.76142 1 6C1 3.23858 3.23858 1 6 1C8.76142 1 11 3.23858 11 6Z" fill="#F2963A"/>
<path d="M8 7C8.27614 7 8.5 7.22386 8.5 7.5C8.5 7.77614 8.27614 8 8 8H4C3.72386 8 3.5 7.77614 3.5 7.5C3.5 7.22386 3.72386 7 4 7H8Z" fill="#F2963A"/>
<path d="M7.50488 4L7.55615 4.00244C7.80827 4.02805 8.00488 4.24112 8.00488 4.5C8.00488 4.75888 7.80827 4.97195 7.55615 4.99756L7.50488 5H7.5C7.22386 5 7 4.77614 7 4.5C7 4.22386 7.22386 4 7.5 4H7.50488Z" fill="#F2963A"/>
<path d="M4.50488 4L4.55615 4.00244C4.80827 4.02805 5.00488 4.24112 5.00488 4.5C5.00488 4.75888 4.80827 4.97195 4.55615 4.99756L4.50488 5H4.5C4.22386 5 4 4.77614 4 4.5C4 4.22386 4.22386 4 4.5 4H4.50488Z" fill="#F2963A"/>
</svg>
