<svg width="16" height="16" viewBox="0 0 16 16" fill="none" xmlns="http://www.w3.org/2000/svg">
<path d="M12.1232 7.59912H12.1223C13.5231 7.60627 14.4688 8.56494 14.4777 9.98486C14.4847 11.0984 14.4847 12.0005 14.4777 12.8237C14.4658 14.2167 13.5201 15.1603 12.1252 15.1704C11.1692 15.1774 10.196 15.1763 9.25605 15.1743C8.83792 15.1733 8.4193 15.1733 8.00117 15.1733H3.97675C2.46198 15.1703 1.51981 14.2206 1.51582 12.6968V12.3628C1.51382 11.5904 1.5118 10.7917 1.51679 10.0063C1.52597 8.57172 2.48294 7.6053 3.89961 7.59912C6.74268 7.58615 9.51068 7.58715 12.1232 7.59912ZM3.93281 8.59521C3.05074 8.59727 2.52083 9.13275 2.51484 10.0278C2.51085 10.8102 2.50985 11.6415 2.51484 12.7212C2.51985 13.6701 3.0258 14.1742 3.98066 14.1763C4.9246 14.1773 5.86875 14.1772 6.81269 14.1772H10.4143C10.961 14.1772 11.509 14.1773 12.0568 14.1753C12.9709 14.1723 13.4766 13.6722 13.4816 12.7671H13.4826C13.4886 11.8141 13.4876 10.8827 13.4826 9.99854C13.4765 9.10862 12.9681 8.59728 12.0852 8.59521C9.45164 8.58823 6.70903 8.58823 3.93281 8.59521ZM10.7141 9.98389C11.0184 9.98389 11.322 9.98854 11.6213 9.99951L11.6223 9.99854C11.7587 10.0036 11.8754 10.0535 11.9582 10.1431C12.045 10.2369 12.0902 10.3685 12.0842 10.5132C12.074 10.7854 11.889 10.9631 11.6037 10.978C11.3922 10.989 11.1755 10.9859 10.966 10.9839C10.8703 10.9829 10.7756 10.9829 10.6789 10.9819C10.5881 10.9819 10.4963 10.9829 10.4055 10.9839C10.203 10.9869 9.99463 10.99 9.79121 10.979C9.51294 10.965 9.31516 10.7784 9.3 10.5142C9.29201 10.3844 9.33913 10.2545 9.42695 10.1577C9.51375 10.062 9.63509 10.0055 9.76875 10.0005C10.0831 9.98951 10.4097 9.98389 10.7141 9.98389ZM8.01289 4.41064C8.54961 4.39975 9.05484 4.53749 9.51875 4.81982C9.80081 4.99146 9.88974 5.25593 9.75215 5.51025C9.68528 5.634 9.5867 5.71654 9.46894 5.75146C9.3354 5.79119 9.18199 5.76674 9.02558 5.68115C8.34201 5.30693 7.65428 5.3088 6.97968 5.68701C6.69928 5.84466 6.42136 5.78414 6.27168 5.53467C6.1175 5.27747 6.20831 4.99542 6.50215 4.81689C6.94622 4.54746 7.42877 4.41064 7.93672 4.41064H8.01289ZM5.23359 3.48486C6.87018 2.31231 9.14897 2.31231 10.7756 3.48486C11.0513 3.68297 11.0956 3.77545 11.0998 3.97217C11.1058 4.16676 11.0262 4.31296 10.8586 4.40576C10.665 4.51348 10.4723 4.49291 10.2697 4.34424C9.59528 3.84944 8.8389 3.5992 8.01484 3.59912C7.87829 3.59912 7.74032 3.60569 7.60078 3.61963C6.96218 3.68149 6.35487 3.91117 5.79609 4.30127C5.60864 4.43288 5.42916 4.48822 5.27656 4.46045C5.16286 4.4395 5.06529 4.37289 4.98847 4.26123C4.74798 3.91097 5.039 3.62457 5.23359 3.48486ZM8.01679 0.814941C9.52751 0.815012 10.908 1.28256 12.1184 2.20557C12.3628 2.39116 12.4463 2.55553 12.4074 2.76807C12.3745 2.94561 12.2681 3.08128 12.1154 3.14014C11.9409 3.20774 11.7304 3.16729 11.552 3.03076C10.7407 2.41211 9.89964 2.03977 8.98066 1.89404C7.34806 1.63458 5.85352 1.99438 4.53925 2.96436C4.51937 2.97927 4.49957 2.99437 4.47968 3.00928C4.37791 3.08611 4.28295 3.16035 4.16621 3.17432C3.90991 3.20614 3.73764 3.10974 3.63789 2.8833C3.53324 2.64595 3.58756 2.44647 3.80488 2.2749V2.27393C4.70796 1.56044 5.73412 1.09939 6.85273 0.904785C7.18404 0.847904 7.54543 0.818934 7.9875 0.814941H8.01679Z" fill="#525252"/>
</svg>
