<svg width="42" height="43" viewBox="0 0 42 43" fill="none" xmlns="http://www.w3.org/2000/svg">
<path fill-rule="evenodd" clip-rule="evenodd" d="M38.5617 15.3429C40.1131 17.4547 41.013 19.9042 41.013 19.9042H41.0153C42.9114 14.4015 41.4854 9.58348 41.4854 9.58348C39.6206 2.39456 32.2061 0.405348 32.2061 0.405348C25.8797 -1.13976 19.6428 2.23033 19.6428 2.23033C9.95615 7.34446 5.152 16.1849 5.152 16.1849C5.94672 18.7524 7.5205 20.8688 7.5205 20.8688C11.4919 14.1124 18.2459 8.29974 18.2459 8.29974C21.2726 5.64669 25.5439 3.52563 25.5439 3.52563C26.4192 3.08847 28.3803 2.26734 30.8674 2.57729C35.0783 3.10235 37.3864 6.44237 37.767 7.01138C38.2796 7.8834 39.2982 9.89574 39.1527 12.5419C39.09 13.6845 38.8258 14.6375 38.5617 15.3429ZM0.979143 22.8872L0.976817 22.881H0.981294L0.979143 22.8872ZM0.979143 22.8872C1.03035 23.0244 1.92461 25.3902 3.43262 27.44C3.16846 28.1454 2.90654 29.0984 2.84385 30.2411C2.70058 32.8872 3.71917 34.8995 4.23406 35.7715C4.61463 36.3405 6.92716 39.6782 11.1381 40.201C13.6252 40.5086 15.5863 39.6875 16.4616 39.248C16.4616 39.248 20.7329 37.1246 23.7574 34.4693C23.7574 34.4693 30.5069 28.652 34.4738 21.8933C34.4738 21.8933 36.0476 24.0097 36.8445 26.5749C36.8445 26.5749 32.0449 35.4176 22.3649 40.5387C22.3649 40.5387 16.1303 43.9134 9.80159 42.3729C9.80159 42.3729 2.38493 40.3883 0.517893 33.2017C0.517893 33.2017 -0.911522 28.3896 0.979143 22.8872ZM22.2552 41.6489C22.2552 41.6489 24.6416 40.763 26.7124 39.1971C27.3907 39.4816 28.3063 39.7708 29.4122 39.8563C31.971 40.0553 33.9365 39.0375 34.7895 38.524C35.3469 38.1424 38.6198 35.8155 39.2041 31.4762C39.5489 28.911 38.7899 26.8733 38.3825 25.9596C38.3825 25.9596 36.4058 21.5093 33.894 18.3335C33.894 18.3335 28.3892 11.251 21.9239 7.02741C21.9239 7.02741 24.0014 5.44066 26.4975 4.6658C26.4975 4.6658 34.9663 9.78686 39.7414 19.8856C39.7414 19.8856 42.8912 26.3898 41.2838 32.8987C41.2838 32.8987 39.2265 40.5225 32.2352 42.3197C32.2352 42.3197 27.5474 43.7075 22.2552 41.6513V41.6489ZM15.2775 3.57633C17.3483 2.01041 19.7325 1.1222 19.7325 1.1222H19.7347C14.4403 -0.929463 9.75478 0.460672 9.75478 0.460672C2.7657 2.26253 0.712849 9.88861 0.712849 9.88861C-0.890028 16.3975 2.26424 22.8994 2.26424 22.8994C7.04824 32.9912 15.5193 38.1077 15.5193 38.1077C18.0154 37.3305 20.0906 35.7414 20.0906 35.7414C13.6209 31.5224 8.1116 24.4445 8.1116 24.4445C5.59535 21.2734 3.61638 16.8231 3.61638 16.8231C3.20895 15.9094 2.44781 13.8717 2.79032 11.3065C3.37237 6.96493 6.64304 4.6357 7.20047 4.25405C8.0534 3.73824 10.0189 2.72051 12.5777 2.91712C13.6836 3.0027 14.5992 3.29183 15.2775 3.57633ZM22.8529 23.8903C22.8463 23.885 22.8402 23.8794 22.8341 23.8739C22.8217 23.8627 22.8097 23.8518 22.7947 23.844L17.8988 20.9227C17.4219 20.6382 16.8264 20.9944 16.8264 21.5634V27.4061V27.4223C16.8255 27.4512 16.8239 27.4796 16.8223 27.508C16.8199 27.5502 16.8175 27.5922 16.8175 27.6351C16.8444 29.962 18.6912 31.8263 20.9433 31.7986C23.1954 31.7708 24.9998 29.8626 24.9729 27.5356C24.955 25.9605 24.0998 24.5981 22.8529 23.8926V23.8903ZM19.3082 19.5501C19.2997 19.543 19.2913 19.5361 19.2825 19.53H19.2847C18.0244 18.85 17.1446 17.5061 17.0953 15.9309C17.0237 13.6063 18.7922 11.6611 21.0421 11.5871C23.2919 11.513 25.1746 13.3403 25.2463 15.6649C25.2475 15.7058 25.2459 15.746 25.2442 15.7863C25.243 15.8166 25.2418 15.8469 25.2418 15.8777C25.244 15.8847 25.244 15.8939 25.244 15.8939L25.3559 21.7343C25.3671 22.3034 24.7761 22.6711 24.2948 22.3959L19.3429 19.5763C19.3303 19.5685 19.3191 19.5592 19.3082 19.5501Z" fill="#26A5BB"/>
</svg>
