<svg width="30" height="30" viewBox="0 0 30 30" fill="none" xmlns="http://www.w3.org/2000/svg">
<rect opacity="0.01" width="30" height="30" fill="#D8D8D8"/>
<path fill-rule="evenodd" clip-rule="evenodd" d="M9.16667 4C7.41777 4 6 5.41776 6 7.16667V23.8333C6 25.5822 7.41777 27 9.16667 27C10.9156 27 12.3333 25.5822 12.3333 23.8333V7.16667C12.3333 5.41776 10.9156 4 9.16667 4ZM21.8333 4C20.0844 4 18.6667 5.41776 18.6667 7.16667V23.8333C18.6667 25.5822 20.0844 27 21.8333 27C23.5822 27 25 25.5822 25 23.8333V7.16667C25 5.41776 23.5822 4 21.8333 4Z" fill="#525252"/>
</svg>
