<svg width="344" height="21" viewBox="0 0 344 21" fill="none" xmlns="http://www.w3.org/2000/svg">
<line x1="0.5" y1="2.18557e-08" x2="0.5" y2="8" stroke="#A3A3A3"/>
<line x1="7.5" y1="2.18557e-08" x2="7.5" y2="8" stroke="#A3A3A3"/>
<line x1="14.5" y1="2.18557e-08" x2="14.5" y2="8" stroke="#A3A3A3"/>
<line x1="21.5" y1="2.18557e-08" x2="21.5" y2="21" stroke="#A3A3A3"/>
<line x1="28.5" y1="2.18557e-08" x2="28.5" y2="8" stroke="#A3A3A3"/>
<line x1="35.5" y1="2.18557e-08" x2="35.5" y2="8" stroke="#A3A3A3"/>
<line x1="42.5" y1="2.18557e-08" x2="42.5" y2="8" stroke="#A3A3A3"/>
<line x1="49.5" y1="2.18557e-08" x2="49.5" y2="8" stroke="#A3A3A3"/>
<line x1="56.5" y1="2.18557e-08" x2="56.5" y2="14" stroke="#A3A3A3"/>
<line x1="63.5" y1="2.18557e-08" x2="63.5" y2="8" stroke="#A3A3A3"/>
<line x1="70.5" y1="2.18557e-08" x2="70.5" y2="8" stroke="#A3A3A3"/>
<line x1="77.5" y1="2.18557e-08" x2="77.5" y2="8" stroke="#A3A3A3"/>
<line x1="84.5" y1="2.18557e-08" x2="84.5" y2="8" stroke="#A3A3A3"/>
<line x1="91.5" y1="2.18557e-08" x2="91.5" y2="21" stroke="#A3A3A3"/>
<line x1="98.5" y1="2.18557e-08" x2="98.5" y2="8" stroke="#A3A3A3"/>
<line x1="105.5" y1="2.18557e-08" x2="105.5" y2="8" stroke="#A3A3A3"/>
<line x1="112.5" y1="2.18557e-08" x2="112.5" y2="8" stroke="#A3A3A3"/>
<line x1="119.5" y1="2.18557e-08" x2="119.5" y2="8" stroke="#A3A3A3"/>
<line x1="126.5" y1="2.18557e-08" x2="126.5" y2="14" stroke="#A3A3A3"/>
<line x1="133.5" y1="2.18557e-08" x2="133.5" y2="8" stroke="#A3A3A3"/>
<line x1="140.5" y1="2.18557e-08" x2="140.5" y2="8" stroke="#A3A3A3"/>
<line x1="147.5" y1="2.18557e-08" x2="147.5" y2="8" stroke="#A3A3A3"/>
<line x1="154.5" y1="2.18557e-08" x2="154.5" y2="8" stroke="#A3A3A3"/>
<line x1="161.5" y1="2.18557e-08" x2="161.5" y2="21" stroke="#A3A3A3"/>
<line x1="168.5" y1="2.18557e-08" x2="168.5" y2="8" stroke="#A3A3A3"/>
<line x1="175.5" y1="2.18557e-08" x2="175.5" y2="8" stroke="#A3A3A3"/>
<line x1="182.5" y1="2.18557e-08" x2="182.5" y2="8" stroke="#A3A3A3"/>
<line x1="189.5" y1="2.18557e-08" x2="189.5" y2="8" stroke="#A3A3A3"/>
<line x1="196.5" y1="2.18557e-08" x2="196.5" y2="14" stroke="#A3A3A3"/>
<line x1="203.5" y1="2.18557e-08" x2="203.5" y2="8" stroke="#A3A3A3"/>
<line x1="210.5" y1="2.18557e-08" x2="210.5" y2="8" stroke="#A3A3A3"/>
<line x1="217.5" y1="2.18557e-08" x2="217.5" y2="8" stroke="#A3A3A3"/>
<line x1="224.5" y1="2.18557e-08" x2="224.5" y2="8" stroke="#A3A3A3"/>
<line x1="231.5" y1="2.18557e-08" x2="231.5" y2="21" stroke="#A3A3A3"/>
<line x1="238.5" y1="2.18557e-08" x2="238.5" y2="8" stroke="#A3A3A3"/>
<line x1="245.5" y1="2.18557e-08" x2="245.5" y2="8" stroke="#A3A3A3"/>
<line x1="252.5" y1="2.18557e-08" x2="252.5" y2="8" stroke="#A3A3A3"/>
<line x1="259.5" y1="2.18557e-08" x2="259.5" y2="8" stroke="#A3A3A3"/>
<line x1="266.5" y1="2.18557e-08" x2="266.5" y2="14" stroke="#A3A3A3"/>
<line x1="273.5" y1="2.18557e-08" x2="273.5" y2="8" stroke="#A3A3A3"/>
<line x1="280.5" y1="2.18557e-08" x2="280.5" y2="8" stroke="#A3A3A3"/>
<line x1="287.5" y1="2.18557e-08" x2="287.5" y2="8" stroke="#A3A3A3"/>
<line x1="294.5" y1="2.18557e-08" x2="294.5" y2="8" stroke="#A3A3A3"/>
<line x1="301.5" y1="2.18557e-08" x2="301.5" y2="21" stroke="#A3A3A3"/>
<line x1="308.5" y1="2.18557e-08" x2="308.5" y2="8" stroke="#A3A3A3"/>
<line x1="315.5" y1="2.18557e-08" x2="315.5" y2="8" stroke="#A3A3A3"/>
<line x1="322.5" y1="2.18557e-08" x2="322.5" y2="8" stroke="#A3A3A3"/>
<line x1="329.5" y1="2.18557e-08" x2="329.5" y2="8" stroke="#A3A3A3"/>
<line x1="336.5" y1="2.18557e-08" x2="336.5" y2="14" stroke="#A3A3A3"/>
<line x1="343.5" y1="2.18557e-08" x2="343.5" y2="8" stroke="#A3A3A3"/>
</svg>
