<svg width="146" height="273" viewBox="0 0 146 273" fill="none" xmlns="http://www.w3.org/2000/svg">
<g filter="url(#filter0_d_2097_21396)">
<path fill-rule="evenodd" clip-rule="evenodd" d="M74.7027 267.736C75.1024 267.901 75.6168 267.98 76.275 267.98C76.8832 267.98 77.5471 267.913 78.1888 267.849L78.2048 267.848L78.5303 267.816C79.2061 267.75 79.9632 267.733 80.7638 267.716L80.8654 267.713C81.6141 267.695 82.3868 267.677 83.1528 267.615C89.0846 267.135 91.305 266.462 91.3443 265.136C91.3994 263.291 90.4548 261.884 89.0254 259.755L89.0192 259.745C88.05 258.304 86.8453 256.507 85.5781 254.007C84.5101 251.9 85.023 245.606 87.1025 235.303C87.1839 234.9 87.2435 234.605 87.2725 234.443C87.7784 231.658 88.2772 229.258 88.7592 226.938L88.7794 226.841L88.7798 226.839C89.7722 222.07 90.6294 217.95 91.2266 212.173C91.5731 208.818 91.3135 205.146 91.0843 201.904L91.0827 201.881C90.917 199.553 90.7615 197.354 90.8647 195.677C90.9388 194.46 91.4707 192.326 92.2074 189.371C93.7609 183.139 96.1077 173.72 96.9157 162.028C98.4909 149.315 97.1889 138.1 96.0728 130.769C95.9188 129.754 95.602 128.184 95.1995 126.197C94.2375 121.442 92.7843 114.253 92.5373 109.082C92.1072 100.076 92.6477 91.7997 94.1401 84.4835L94.2084 84.145C94.4235 83.0547 94.7606 82.0304 95.1646 80.9416C95.3215 82.6602 95.6645 85.5006 96.6367 89.8229C98.8004 99.4344 100.687 108.682 101.123 111.812C101.957 117.804 103.559 122.792 104.975 127.193L104.989 127.237C105.872 129.985 106.706 132.582 107.303 135.213C107.58 136.434 107.491 138.393 107.432 139.698L107.431 139.717L107.425 139.834C107.381 140.798 107.415 141.903 107.527 143.208C107.604 144.108 107.867 145.493 108.066 146.262C108.711 148.754 110.372 155.28 110.475 155.851C110.641 156.765 111.315 157.402 112.114 157.402C112.168 157.402 112.22 157.399 112.274 157.393C112.89 157.328 113.608 156.951 113.53 155.521C113.482 154.629 113.171 153.353 112.87 152.118L112.87 152.117C112.643 151.186 112.428 150.299 112.35 149.682L112.486 149.698C112.738 150.89 113.862 155.017 114.711 157.934C114.968 158.82 115.669 159.416 116.452 159.416C116.543 159.416 116.636 159.407 116.728 159.39C117.565 159.235 118.071 158.424 117.931 157.462C117.795 156.522 117.072 153.868 116.491 151.734C116.24 150.813 116.017 149.997 115.898 149.52L116.029 149.502C116.556 151.256 118.748 158.234 118.992 159.008C119.236 159.78 119.848 160.242 120.63 160.242C120.769 160.242 120.912 160.226 121.055 160.196C122.392 159.914 122.264 158.589 122.215 158.092C122.147 157.396 120.964 153.616 119.756 149.804C119.573 149.226 119.422 148.748 119.323 148.43L119.358 148.417C119.547 148.939 119.871 149.908 120.22 150.95L120.294 151.173C121.249 154.028 121.943 156.083 122.201 156.538C122.655 157.343 123.232 157.75 123.914 157.75C124.068 157.75 124.226 157.729 124.388 157.687C124.72 157.601 124.992 157.389 125.172 157.073C125.483 156.531 125.447 155.834 125.31 155.372C125.286 155.301 125.181 154.903 125.071 154.479L125.069 154.472C124.687 153.021 123.98 150.328 123.41 148.833C122.381 146.138 121.862 144.506 121.632 143.604C121.932 144.007 122.353 144.636 122.946 145.605C123.068 145.806 123.16 145.953 123.203 146.017C123.219 146.041 123.237 146.068 123.256 146.098C123.273 146.123 123.291 146.151 123.311 146.181C123.754 146.863 124.794 148.462 126.473 148.462H126.527C126.938 148.453 127.39 148.397 127.624 148.041C127.881 147.648 127.708 147.166 127.438 146.539C127.13 145.964 126.814 145.274 126.479 144.544L126.468 144.521L126.457 144.495C125.882 143.241 125.288 141.945 124.607 140.926C123.35 139.042 121.438 137.424 119.751 135.997C118.842 135.228 118.058 134.403 117.667 132.082C117.267 129.712 117.039 127.594 116.775 125.145L116.773 125.129C116.481 122.417 116.15 119.343 115.5 115.111C115.029 112.03 114.391 109.706 113.775 107.462L113.765 107.426L113.763 107.42C112.965 104.513 112.21 101.765 111.789 97.5064C111.567 95.2522 111.163 92.3747 110.735 89.3256L110.725 89.2577C110.359 86.6569 109.982 83.9685 109.685 81.4495C107.551 63.377 102.513 60.1421 100.091 58.587C100.063 58.569 100.035 58.5512 100.008 58.5337C99.8769 58.4497 99.7551 58.3716 99.6432 58.2944C97.8776 57.0879 94.2811 55.761 90.4738 54.3566C88.22 53.526 85.8906 52.6667 84.0465 51.8576C82.262 51.0757 81.1547 49.4332 81.1547 47.5726V41.1544C83.0779 39.7003 85.2683 36.6639 86.3194 32.8151C88.6219 32.8889 90.0038 30.7689 90.1906 28.0645C90.3657 25.5287 89.4309 23.3631 87.4269 22.9066C87.4759 20.9587 87.3853 19.921 87.367 19.7352C87.3539 10.4235 80.2509 5.86594 73.4545 5.48291L73.4516 5.45996H72.523V5.48148C65.7469 5.86594 58.6381 10.4292 58.6396 19.7151C58.6325 19.7944 58.5397 20.8558 58.5923 22.9034C56.5786 23.3529 55.639 25.5228 55.8145 28.0645C56.0007 30.7602 57.3744 32.8753 59.6636 32.8158C60.7105 36.8539 62.8943 39.6927 64.8518 41.1544V47.5711C64.8518 49.4318 63.7445 51.0743 61.96 51.8561C60.1363 52.6552 57.8607 53.4858 55.6591 54.2891L55.658 54.2895C51.8483 55.6795 48.2508 56.992 46.3619 58.2944C46.2445 58.3749 46.1157 58.4584 45.9779 58.5478C45.9536 58.5636 45.929 58.5795 45.9041 58.5957L45.9037 58.5959C43.4841 60.1582 38.4508 63.4081 36.322 81.448C36.0283 83.9304 35.6569 86.5774 35.2969 89.1428L35.2816 89.252C34.8485 92.3276 34.4416 95.2326 34.2164 97.5035C33.7957 101.758 33.042 104.503 32.2443 107.408L32.2401 107.423C31.6196 109.679 30.9788 112.01 30.5036 115.107C29.854 119.339 29.5227 122.412 29.2306 125.123L29.2227 125.196C28.9602 127.622 28.7326 129.726 28.3355 132.078C27.9431 134.399 27.1584 135.224 26.2502 135.992C24.5631 137.42 22.6507 139.038 21.3938 140.922C20.7093 141.947 20.1106 143.253 19.5323 144.517L19.5217 144.54C19.187 145.27 18.8706 145.96 18.5456 146.572C18.2927 147.162 18.1198 147.645 18.377 148.037C18.6095 148.393 19.0629 148.45 19.4741 148.459H19.5279C21.2078 148.459 22.2482 146.859 22.6914 146.176C22.6995 146.164 22.7074 146.152 22.715 146.14C22.7468 146.091 22.7743 146.049 22.799 146.014C22.8404 145.953 22.9251 145.815 23.0394 145.629L23.0576 145.6C23.6505 144.628 24.0734 143.999 24.3698 143.597C24.1417 144.499 23.6229 146.13 22.5926 148.83C22.0201 150.329 21.3109 153.031 20.9302 154.481L20.8926 154.624C20.797 154.988 20.7126 155.31 20.6817 155.399C20.5553 155.831 20.519 156.527 20.8299 157.07C21.0101 157.386 21.2819 157.598 21.6146 157.686C21.7759 157.727 21.9358 157.749 22.0884 157.749C22.7699 157.749 23.3468 157.341 23.8016 156.537C24.0603 156.08 24.7564 154.022 25.7111 151.164C25.7597 151.019 25.808 150.875 25.8557 150.733C26.1769 149.775 26.4696 148.902 26.6455 148.416L26.6818 148.427C26.583 148.743 26.4333 149.218 26.2517 149.788C25.0426 153.607 23.8569 157.393 23.7886 158.089L23.7884 158.091C23.7403 158.59 23.613 159.911 24.9482 160.193C25.0906 160.223 25.2344 160.239 25.374 160.239C26.1572 160.239 26.769 159.777 27.0117 159.005L27.0446 158.901C27.407 157.746 29.4601 151.205 29.9732 149.5L30.104 149.519C29.9819 149.999 29.7581 150.817 29.5053 151.741C28.9298 153.843 28.2134 156.459 28.0768 157.393C27.9359 158.356 28.4416 159.168 29.2786 159.323C29.3716 159.34 29.4631 159.348 29.5547 159.348C30.3394 159.348 31.0398 158.753 31.297 157.866C32.1849 154.814 33.2718 150.852 33.516 149.697L33.6555 149.679C33.5901 150.262 33.4244 151.095 33.25 151.969C32.9798 153.328 32.7008 154.733 32.6877 155.679C32.6673 157.11 33.3997 157.459 34.0173 157.499C34.0388 157.501 34.0597 157.502 34.0807 157.502C34.0924 157.502 34.1042 157.502 34.1161 157.502C34.9473 157.502 35.6187 156.836 35.7509 155.885C35.8236 155.362 37.2985 148.715 37.935 146.258C38.1632 145.379 38.4044 144.009 38.4741 143.202C38.5875 141.894 38.6195 140.79 38.5759 139.83L38.57 139.718C38.509 138.411 38.4175 136.436 38.6965 135.208C39.2944 132.572 40.1304 129.971 41.0147 127.219L41.0244 127.189C42.4398 122.787 44.0441 117.798 44.8782 111.806C45.3141 108.677 47.2003 99.4301 49.3641 89.8172C50.3522 85.4246 50.6908 82.5627 50.8434 80.8527C51.1282 81.6015 51.4464 82.5971 51.6949 83.7777C51.7786 84.1799 51.8765 84.5961 51.9826 85.0469L52.0016 85.1276L52.0028 85.1331C52.837 88.6736 54.0981 94.0267 53.462 109.079C53.2425 114.256 51.7749 121.45 50.8027 126.212C50.3987 128.19 50.0805 129.751 49.9265 130.764C48.8104 138.095 47.5084 149.312 49.0822 162.002C50.0165 174.012 52.4506 184.015 53.9052 189.992C54.5518 192.647 55.0183 194.565 55.1389 195.694C55.3546 197.705 55.1866 200.411 55.0086 203.279L55.0067 203.31L55.0046 203.344C54.8251 206.241 54.6395 209.235 54.7742 212.144C55.0401 217.9 56.031 222.175 57.0801 226.701L57.0803 226.702L57.0834 226.715C57.6361 229.099 58.2075 231.564 58.7297 234.441C58.7602 234.603 58.8183 234.896 58.8997 235.296C61.4921 248.133 61.1593 252.555 60.4255 254.006C59.1583 256.507 57.9537 258.302 56.9844 259.745L56.9803 259.751C55.5498 261.881 54.6042 263.289 54.6594 265.135C54.6986 266.46 56.919 267.132 62.8508 267.614C63.6407 267.679 64.4376 267.696 65.2081 267.713L65.2398 267.714L65.321 267.716C66.0931 267.734 66.8218 267.751 67.4733 267.815L67.7814 267.845C68.4396 267.911 69.1197 267.978 69.746 267.978C70.413 267.978 70.9303 267.898 71.33 267.734L71.375 267.717L71.3837 267.713C71.8917 267.503 72.467 267.266 72.8325 266.598L72.8572 266.554L72.8718 266.503C72.9154 266.351 72.9502 266.204 72.9778 266.059C73.283 267.155 73.9907 267.444 74.6272 267.704L74.7027 267.736ZM72.9272 144.528C72.9356 143.157 72.9442 141.746 72.956 140.27L72.9575 140.269H73.052C73.0694 142.567 73.0796 144.7 73.0883 146.776C73.1144 152.818 73.1391 158.523 73.376 166.31C73.4981 170.344 74.3235 189.693 74.649 193.155C74.9018 195.835 74.8015 198.5 74.354 201.076C73.9674 203.297 73.4864 207.68 73.2932 213.315C73.1493 217.525 73.6318 225.333 74.1302 231.235C74.3424 233.751 74.4513 236.227 74.4542 238.594C74.4557 240.115 74.4656 241.389 74.4742 242.501L74.4746 242.551C74.4993 245.651 74.5124 247.523 74.3104 249.953L74.2508 250.679L74.2502 250.686C74.1095 252.448 73.9638 254.271 73.4501 256.523C73.1929 257.654 73.0302 260.196 72.9386 262.075C72.9372 262.055 72.9342 262.033 72.9342 262.013C72.8369 260.285 72.6872 257.672 72.382 256.337C71.9388 254.393 71.8095 252.571 71.6845 250.809L71.6191 249.906C71.4118 247.175 71.4519 245.194 71.5026 242.689L71.5029 242.674C71.5276 241.526 71.5537 240.227 71.5552 238.738C71.5581 236.249 71.6656 233.745 71.8734 231.298C72.3748 225.382 72.8601 217.551 72.7148 213.315C72.5215 207.668 72.0377 203.274 71.6482 201.044C71.2137 198.555 71.1105 195.959 71.3387 193.33C71.67 189.515 72.4823 170.657 72.6116 166.21C72.8471 158.138 72.8805 152.495 72.9183 145.961C72.9213 145.487 72.9242 145.01 72.9272 144.528Z" fill="white"/>
</g>
<g filter="url(#filter1_f_2097_21396)">
<path fill-rule="evenodd" clip-rule="evenodd" d="M77.67 33.584C77.816 35.5694 77.991 38.7399 78.0421 41.7998C78.0928 44.8368 78.0231 47.8368 77.6583 49.4414C77.3259 50.904 77.3201 52.8113 77.4415 54.584C77.5373 55.9828 77.7118 57.2716 77.8507 58.1445C82.2731 56.5402 85.9288 56.5643 88.9727 57.4814C92.7813 58.6292 95.5558 61.151 97.6329 63.4229C98.2053 64.0491 98.7265 64.9992 99.2051 66.1445C99.6875 67.2988 100.143 68.691 100.568 70.2324C101.42 73.3165 102.165 77.037 102.779 80.7305C104.006 88.1071 104.724 95.4511 104.724 97.501C104.724 97.79 104.698 98.0838 104.654 98.3818C107.072 100.579 109.644 103.25 111.238 107.09C112.841 110.95 113.435 115.942 111.979 122.747L111 122.538C112.422 115.893 111.825 111.114 110.315 107.474C108.897 104.059 106.656 101.604 104.414 99.5225C104.29 99.9934 104.14 100.473 103.985 100.956C103.595 102.175 103.161 103.462 102.929 104.89C102.471 107.702 102.787 111.098 106.019 115.35C109.389 119.785 110.601 123.405 111.069 127.353C111.302 129.311 111.35 131.348 111.397 133.583C111.443 135.824 111.486 138.276 111.703 141.096L110.707 141.172C110.488 138.32 110.444 135.84 110.398 133.604C110.351 131.361 110.302 129.372 110.076 127.47C109.628 123.695 108.482 120.245 105.222 115.954C101.822 111.48 101.44 107.807 101.941 104.729C102.189 103.212 102.65 101.847 103.033 100.65C103.425 99.4297 103.724 98.4131 103.724 97.501C103.724 95.5368 103.018 88.2593 101.793 80.8945C101.181 77.2176 100.443 73.5356 99.6046 70.499C99.1852 68.9807 98.7427 67.6321 98.2823 66.5303C97.8182 65.4198 97.3502 64.5961 96.8946 64.0977C94.8587 61.8709 92.2332 59.5081 88.6837 58.4385C85.1518 57.3745 80.6262 57.5681 74.7413 60.6055C74.3776 60.7932 74.0345 61.0184 73.711 61.2793C75.6274 63.3465 76.716 66.6036 77.2823 70.4443C78.0296 75.5136 77.8968 81.7847 77.4141 88.1885C76.9311 94.5968 76.0941 101.175 75.42 106.856C74.7431 112.562 74.2369 117.324 74.3946 120.162C74.503 122.115 74.1547 123.95 73.5157 125.706C73.8204 126.49 74.1878 127.264 74.6046 128.033C75.9632 130.541 77.8196 132.957 79.6856 135.478C82.77 139.643 85.873 144.08 86.3604 149.439L86.5743 149.396C89.2723 162.688 90.9682 172.933 87.2452 190.332L85.6016 198.049C85.4244 198.888 85.2878 199.56 85.1778 200.088L85.2247 200.099C85.0847 200.726 84.9553 201.299 84.8858 201.588C84.8688 201.659 84.8529 201.72 84.8419 201.76C84.8391 201.77 84.8283 201.812 84.8126 201.85C84.8101 201.856 84.7906 201.904 84.754 201.954C84.7455 201.966 84.6728 202.072 84.5284 202.128C84.4479 202.151 84.2645 202.154 84.168 202.128C84.0882 202.088 83.971 201.99 83.9317 201.938C83.8694 201.845 83.8571 201.754 83.8546 201.737C83.8498 201.707 83.8489 201.681 83.8487 201.669C83.8482 201.644 83.849 201.623 83.8497 201.614C83.8535 201.568 83.8666 201.499 83.877 201.442C83.8902 201.372 83.9099 201.272 83.9356 201.144C84.0384 200.629 84.251 199.604 84.6231 197.843L86.2677 190.123C89.621 174.451 88.5335 164.684 86.2833 153.066C85.4868 159.69 83.5513 167.088 82.0899 175.055C80.5998 183.178 79.5805 191.993 80.6651 201.499C81.7558 211.059 82.5315 216.941 82.6446 222.707C82.7579 228.487 82.206 234.146 80.6612 243.286L80.168 243.203L79.6749 243.119C81.2149 234.007 81.7562 228.418 81.6446 222.727C81.5327 217.021 80.7654 211.204 79.671 201.612C78.5705 191.967 79.6082 183.042 81.1065 174.874C82.6116 166.669 84.5578 159.321 85.3272 152.653C86.0731 146.189 82.6042 141.101 78.8819 136.073C77.0367 133.581 75.1255 131.095 73.7247 128.51C73.4582 128.018 73.2097 127.521 72.9825 127.018C72.7553 127.521 72.5068 128.018 72.2403 128.51C70.8395 131.095 68.9283 133.581 67.0831 136.073C63.3608 141.101 59.8919 146.189 60.6378 152.653C61.4072 159.321 63.3534 166.669 64.8585 174.874C66.3568 183.042 67.3945 191.967 66.294 201.612C65.1996 211.204 64.4323 217.021 64.3204 222.727C64.2088 228.418 64.7501 234.007 66.2901 243.119L65.7969 243.203L65.3038 243.286C63.759 234.146 63.2071 228.487 63.3204 222.707C63.4335 216.941 64.2091 211.059 65.2999 201.499C66.3845 191.993 65.3652 183.178 63.8751 175.055C62.4137 167.088 60.4782 159.69 59.6817 153.066C57.4315 164.684 56.344 174.451 59.6973 190.123L61.3419 197.843C61.714 199.604 61.9265 200.629 62.0294 201.144C62.0551 201.272 62.0748 201.372 62.088 201.442C62.0984 201.499 62.1115 201.568 62.1153 201.614C62.116 201.623 62.1167 201.644 62.1163 201.669C62.116 201.681 62.1152 201.707 62.1104 201.737C62.1079 201.754 62.0956 201.845 62.0333 201.938C61.9939 201.99 61.8767 202.089 61.7969 202.128C61.7003 202.154 61.517 202.151 61.4366 202.128C61.2917 202.072 61.2191 201.965 61.211 201.954C61.1742 201.903 61.1547 201.855 61.1524 201.85C61.1367 201.812 61.1259 201.77 61.1231 201.76C61.1121 201.72 61.0962 201.659 61.0792 201.588C61.0097 201.299 60.8803 200.726 60.7403 200.099L60.7872 200.088C60.6772 199.56 60.5406 198.888 60.3634 198.049L58.7198 190.332C54.9968 172.933 56.6927 162.688 59.3907 149.396L59.6046 149.439C60.092 144.08 63.195 139.643 66.2794 135.478C68.1454 132.957 70.0018 130.541 71.3604 128.033C71.7771 127.264 72.1436 126.49 72.4483 125.706C71.8095 123.95 71.462 122.115 71.5704 120.162C71.7281 117.324 71.2219 112.562 70.545 106.856C69.8709 101.175 69.0339 94.5968 68.5509 88.1885C68.0682 81.7847 67.9354 75.5136 68.6827 70.4443C69.2489 66.604 70.337 63.3465 72.253 61.2793C71.9297 61.0186 71.5871 60.7931 71.2237 60.6055C65.3387 57.5681 60.8132 57.3744 57.2813 58.4385C53.7318 59.5081 51.1063 61.8709 49.0704 64.0977C48.6148 64.5961 48.1468 65.4198 47.6827 66.5303C47.2223 67.6321 46.7798 68.9807 46.3604 70.499C45.5217 73.5356 44.7835 77.2176 44.1719 80.8945C42.9471 88.2593 42.2413 95.5368 42.2413 97.501C42.2414 98.4131 42.5404 99.4297 42.9317 100.65C43.3154 101.847 43.7763 103.212 44.0235 104.729C44.5251 107.807 44.1432 111.48 40.7432 115.954C37.4826 120.245 36.3366 123.695 35.8887 127.47C35.6631 129.372 35.6139 131.361 35.5675 133.604C35.5211 135.84 35.4773 138.32 35.2579 141.172L34.2618 141.096C34.4787 138.276 34.522 135.824 34.5684 133.583C34.6147 131.348 34.6633 129.311 34.8956 127.353C35.364 123.405 36.5756 119.785 39.9464 115.35C43.178 111.098 43.4944 107.702 43.0362 104.89C42.8035 103.462 42.3702 102.175 41.9796 100.956C41.8246 100.473 41.675 99.9934 41.5509 99.5225C39.3094 101.604 37.0677 104.059 35.6505 107.474C34.1396 111.114 33.543 115.893 34.9649 122.538L33.9864 122.747C32.5302 115.942 33.1242 110.95 34.7266 107.09C36.3207 103.25 38.8933 100.579 41.3106 98.3818C41.2671 98.0838 41.2413 97.79 41.2413 97.501C41.2413 95.4511 41.9588 88.1071 43.1856 80.7305C43.7999 77.037 44.5447 73.3165 45.3966 70.2324C45.8223 68.691 46.2775 67.2988 46.7598 66.1445C47.2385 64.9992 47.7597 64.0491 48.3321 63.4229C50.4092 61.151 53.1836 58.6292 56.9923 57.4814C60.0363 56.5643 63.6918 56.5402 68.1143 58.1445C68.2532 57.2716 68.4277 55.9829 68.5235 54.584C68.6449 52.8113 68.6391 50.904 68.3067 49.4414C67.9419 47.8368 67.8722 44.8368 67.9229 41.7998C67.974 38.7399 68.149 35.5694 68.295 33.584L69.293 33.6592C69.1481 35.63 68.9736 38.7797 68.9229 41.8164C68.8718 44.8755 68.948 47.7518 69.2813 49.2188C69.647 50.8274 69.6438 52.8535 69.5206 54.6523C69.4144 56.2018 69.2139 57.6164 69.0665 58.5098C69.9108 58.8524 70.7824 59.2527 71.6817 59.7168C72.1482 59.9575 72.5804 60.2491 72.9825 60.585C73.3846 60.2491 73.8168 59.9576 74.2833 59.7168C75.1825 59.2527 76.0543 58.8524 76.8985 58.5098C76.7511 57.6164 76.5506 56.2018 76.4444 54.6523C76.3212 52.8536 76.318 50.8274 76.6837 49.2188C77.017 47.7518 77.0931 44.8755 77.0421 41.8164C76.9913 38.7797 76.8169 35.63 76.6719 33.6592L77.67 33.584ZM72.9825 61.9639C71.2892 63.7935 70.2343 66.7754 69.6719 70.5898C68.9412 75.5464 69.0666 81.728 69.5479 88.1133C70.0289 94.4943 70.8626 101.044 71.5382 106.738C72.2109 112.409 72.7331 117.272 72.5694 120.218C72.4956 121.547 72.6523 122.825 72.9825 124.072C73.3127 122.825 73.4693 121.547 73.3956 120.218C73.2319 117.272 73.7541 112.409 74.4268 106.738C75.1024 101.044 75.9361 94.4943 76.4171 88.1133C76.8984 81.7279 77.0237 75.5464 76.293 70.5898C75.7306 66.7753 74.6759 63.7935 72.9825 61.9639Z" fill="#26A5BB"/>
</g>
<defs>
<filter id="filter0_d_2097_21396" x="7.25" y="-5.54004" width="131.5" height="284.52" filterUnits="userSpaceOnUse" color-interpolation-filters="sRGB">
<feFlood flood-opacity="0" result="BackgroundImageFix"/>
<feColorMatrix in="SourceAlpha" type="matrix" values="0 0 0 0 0 0 0 0 0 0 0 0 0 0 0 0 0 0 127 0" result="hardAlpha"/>
<feOffset/>
<feGaussianBlur stdDeviation="5.5"/>
<feComposite in2="hardAlpha" operator="out"/>
<feColorMatrix type="matrix" values="0 0 0 0 0.0917014 0 0 0 0 0.507192 0 0 0 0 0.579167 0 0 0 0.2 0"/>
<feBlend mode="normal" in2="BackgroundImageFix" result="effect1_dropShadow_2097_21396"/>
<feBlend mode="normal" in="SourceGraphic" in2="effect1_dropShadow_2097_21396" result="shape"/>
</filter>
<filter id="filter1_f_2097_21396" x="31.1562" y="31.584" width="83.6523" height="213.702" filterUnits="userSpaceOnUse" color-interpolation-filters="sRGB">
<feFlood flood-opacity="0" result="BackgroundImageFix"/>
<feBlend mode="normal" in="SourceGraphic" in2="BackgroundImageFix" result="shape"/>
<feGaussianBlur stdDeviation="1" result="effect1_foregroundBlur_2097_21396"/>
</filter>
</defs>
</svg>
