<svg width="37" height="42" viewBox="0 0 37 42" fill="none" xmlns="http://www.w3.org/2000/svg">
<g filter="url(#filter0_d_4867_44734)">
<path d="M22.1085 29.3303H14.8912C14.4735 29.3299 14.0609 29.2393 13.6814 29.0649C13.3019 28.8904 12.9646 28.6361 12.6924 28.3193C12.4246 28.0092 12.2269 27.6449 12.1128 27.2513C11.9986 26.8578 11.9707 26.4443 12.031 26.039C12.4184 23.9271 13.5449 22.0221 15.2089 20.6651C13.5449 19.3077 12.4186 17.4022 12.0317 15.2899C11.9716 14.8848 11.9994 14.4716 12.1135 14.0783C12.2275 13.6851 12.4249 13.321 12.6924 13.0109C12.9646 12.6942 13.3019 12.4399 13.6814 12.2654C14.0609 12.0909 14.4735 12.0004 14.8912 12H22.1085C22.5261 12.0004 22.9386 12.0909 23.318 12.2654C23.6973 12.4398 24.0345 12.6941 24.3066 13.0109C24.5744 13.3207 24.7722 13.6845 24.8866 14.0777C25.001 14.4709 25.0293 14.8841 24.9694 15.2891C24.5783 17.402 23.4495 19.3072 21.7843 20.6651C23.4485 22.0243 24.5761 23.9302 24.9658 26.0433C25.0257 26.4485 24.9975 26.8618 24.8831 27.2551C24.7687 27.6484 24.5708 28.0124 24.303 28.3222C24.0311 28.638 23.6943 28.8915 23.3156 29.0655C22.9369 29.2394 22.5252 29.3297 22.1085 29.3303Z" fill="#26A5BB"/>
</g>
<defs>
<filter id="filter0_d_4867_44734" x="-3.5" y="-1.33594" width="44" height="44" filterUnits="userSpaceOnUse" color-interpolation-filters="sRGB">
<feFlood flood-opacity="0" result="BackgroundImageFix"/>
<feColorMatrix in="SourceAlpha" type="matrix" values="0 0 0 0 0 0 0 0 0 0 0 0 0 0 0 0 0 0 127 0" result="hardAlpha"/>
<feOffset/>
<feGaussianBlur stdDeviation="6"/>
<feComposite in2="hardAlpha" operator="out"/>
<feColorMatrix type="matrix" values="0 0 0 0 1 0 0 0 0 1 0 0 0 0 1 0 0 0 0.6 0"/>
<feBlend mode="normal" in2="BackgroundImageFix" result="effect1_dropShadow_4867_44734"/>
<feBlend mode="normal" in="SourceGraphic" in2="effect1_dropShadow_4867_44734" result="shape"/>
</filter>
</defs>
</svg>
