<svg width="10" height="18" viewBox="0 0 10 18" fill="none" xmlns="http://www.w3.org/2000/svg">
<path d="M0 8.68926C0 9.03213 0.127351 9.32602 0.401646 9.58072L8.02312 17.0455C8.23864 17.261 8.51293 17.3785 8.83621 17.3785C9.48276 17.3785 10.002 16.8691 10.002 16.2128C10.002 15.8895 9.86481 15.6054 9.64929 15.3801L2.78213 8.68926L9.64929 1.99843C9.86481 1.77312 10.002 1.47923 10.002 1.16575C10.002 0.509404 9.48276 0 8.83621 0C8.51293 0 8.23864 0.117555 8.02312 0.333072L0.401646 7.78801C0.127351 8.05251 0 8.34639 0 8.68926Z" fill="#525252"/>
</svg>
