<svg width="24" height="24" viewBox="0 0 24 24" fill="none" xmlns="http://www.w3.org/2000/svg">
<g clip-path="url(#clip0_4444_76724)">
<path d="M5 14C5.55228 14 6 13.5523 6 13C6 12.4477 5.55228 12 5 12C4.44771 12 4 12.4477 4 13C4 13.5523 4.44771 14 5 14Z" fill="#26A5BB"/>
<path d="M1 10C1.55228 10 2 9.55228 2 9C2 8.44771 1.55228 8 1 8C0.447715 8 0 8.44771 0 9C0 9.55228 0.447715 10 1 10Z" fill="#26A5BB"/>
<path d="M5 6C5.55228 6 6 5.55228 6 5C6 4.44771 5.55228 4 5 4C4.44771 4 4 4.44771 4 5C4 5.55228 4.44771 6 5 6Z" fill="#26A5BB"/>
<path d="M1 2C1.55228 2 2 1.55228 2 1C2 0.447715 1.55228 0 1 0C0.447715 0 0 0.447715 0 1C0 1.55228 0.447715 2 1 2Z" fill="#26A5BB"/>
<path d="M23 14C23.5523 14 24 13.5523 24 13C24 12.4477 23.5523 12 23 12C22.4477 12 22 12.4477 22 13C22 13.5523 22.4477 14 23 14Z" fill="#26A5BB"/>
<path d="M19 10C19.5523 10 20 9.55228 20 9C20 8.44771 19.5523 8 19 8C18.4477 8 18 8.44771 18 9C18 9.55228 18.4477 10 19 10Z" fill="#26A5BB"/>
<path d="M23 6C23.5523 6 24 5.55228 24 5C24 4.44771 23.5523 4 23 4C22.4477 4 22 4.44771 22 5C22 5.55228 22.4477 6 23 6Z" fill="#26A5BB"/>
<path d="M19 2C19.5523 2 20 1.55228 20 1C20 0.447715 19.5523 0 19 0C18.4477 0 18 0.447715 18 1C18 1.55228 18.4477 2 19 2Z" fill="#26A5BB"/>
<path d="M14 24C14.5523 24 15 23.5523 15 23C15 22.4477 14.5523 22 14 22C13.4477 22 13 22.4477 13 23C13 23.5523 13.4477 24 14 24Z" fill="#26A5BB"/>
<path d="M10 20C10.5523 20 11 19.5523 11 19C11 18.4477 10.5523 18 10 18C9.44771 18 9 18.4477 9 19C9 19.5523 9.44771 20 10 20Z" fill="#26A5BB"/>
<path d="M14 16C14.5523 16 15 15.5523 15 15C15 14.4477 14.5523 14 14 14C13.4477 14 13 14.4477 13 15C13 15.5523 13.4477 16 14 16Z" fill="#26A5BB"/>
<path d="M10 12C10.5523 12 11 11.5523 11 11C11 10.4477 10.5523 10 10 10C9.44771 10 9 10.4477 9 11C9 11.5523 9.44771 12 10 12Z" fill="#26A5BB"/>
<path d="M15 3C14.4696 3 13.9608 2.78929 13.5858 2.41421C13.2107 2.03914 13 1.53043 13 1C13 0.734784 12.8946 0.48043 12.7071 0.292893C12.5196 0.105357 12.2652 0 12 0C11.7348 0 11.4804 0.105357 11.2929 0.292893C11.1054 0.48043 11 0.734784 11 1C11 1.53043 10.7893 2.03914 10.4142 2.41421C10.0391 2.78929 9.53043 3 9 3C8.73478 3 8.48043 3.10536 8.29289 3.29289C8.10536 3.48043 8 3.73478 8 4C8 4.26522 8.10536 4.51957 8.29289 4.70711C8.48043 4.89464 8.73478 5 9 5C9.53043 5 10.0391 5.21071 10.4142 5.58579C10.7893 5.96086 11 6.46957 11 7C11 7.26522 11.1054 7.51957 11.2929 7.70711C11.4804 7.89464 11.7348 8 12 8C12.2652 8 12.5196 7.89464 12.7071 7.70711C12.8946 7.51957 13 7.26522 13 7C13 6.46957 13.2107 5.96086 13.5858 5.58579C13.9608 5.21071 14.4696 5 15 5C15.2652 5 15.5196 4.89464 15.7071 4.70711C15.8946 4.51957 16 4.26522 16 4C16 3.73478 15.8946 3.48043 15.7071 3.29289C15.5196 3.10536 15.2652 3 15 3Z" fill="#26A5BB"/>
<path d="M7 19C6.46957 19 5.96086 18.7893 5.58579 18.4142C5.21071 18.0391 5 17.5304 5 17C5 16.7348 4.89464 16.4804 4.70711 16.2929C4.51957 16.1054 4.26522 16 4 16C3.73478 16 3.48043 16.1054 3.29289 16.2929C3.10536 16.4804 3 16.7348 3 17C3 17.5304 2.78929 18.0391 2.41421 18.4142C2.03914 18.7893 1.53043 19 1 19C0.734784 19 0.48043 19.1054 0.292893 19.2929C0.105357 19.4804 0 19.7348 0 20C0 20.2652 0.105357 20.5196 0.292893 20.7071C0.48043 20.8946 0.734784 21 1 21C1.53043 21 2.03914 21.2107 2.41421 21.5858C2.78929 21.9608 3 22.4696 3 23C3 23.2652 3.10536 23.5196 3.29289 23.7071C3.48043 23.8946 3.73478 24 4 24C4.26522 24 4.51957 23.8946 4.70711 23.7071C4.89464 23.5196 5 23.2652 5 23C5 22.4696 5.21071 21.9608 5.58579 21.5858C5.96086 21.2107 6.46957 21 7 21C7.26522 21 7.51957 20.8946 7.70711 20.7071C7.89464 20.5196 8 20.2652 8 20C8 19.7348 7.89464 19.4804 7.70711 19.2929C7.51957 19.1054 7.26522 19 7 19Z" fill="#26A5BB"/>
<path d="M23 19C22.4696 19 21.9608 18.7893 21.5858 18.4142C21.2107 18.0391 21 17.5304 21 17C21 16.7348 20.8946 16.4804 20.7071 16.2929C20.5196 16.1054 20.2652 16 20 16C19.7348 16 19.4804 16.1054 19.2929 16.2929C19.1054 16.4804 19 16.7348 19 17C19 17.5304 18.7893 18.0391 18.4142 18.4142C18.0391 18.7893 17.5304 19 17 19C16.7348 19 16.4804 19.1054 16.2929 19.2929C16.1054 19.4804 16 19.7348 16 20C16 20.2652 16.1054 20.5196 16.2929 20.7071C16.4804 20.8946 16.7348 21 17 21C17.5304 21 18.0391 21.2107 18.4142 21.5858C18.7893 21.9608 19 22.4696 19 23C19 23.2652 19.1054 23.5196 19.2929 23.7071C19.4804 23.8946 19.7348 24 20 24C20.2652 24 20.5196 23.8946 20.7071 23.7071C20.8946 23.5196 21 23.2652 21 23C21 22.4696 21.2107 21.9608 21.5858 21.5858C21.9608 21.2107 22.4696 21 23 21C23.2652 21 23.5196 20.8946 23.7071 20.7071C23.8946 20.5196 24 20.2652 24 20C24 19.7348 23.8946 19.4804 23.7071 19.2929C23.5196 19.1054 23.2652 19 23 19Z" fill="#26A5BB"/>
</g>
<defs>
<clipPath id="clip0_4444_76724">
<rect width="24" height="24" fill="white"/>
</clipPath>
</defs>
</svg>
