<svg width="48" height="48" viewBox="0 0 48 48" fill="none" xmlns="http://www.w3.org/2000/svg">
<g clip-path="url(#clip0_2075_20892)">
<path d="M9.2761 38.3704C9.98086 38.3704 10.5522 37.799 10.5522 37.0942C10.5522 36.3893 9.98086 35.8179 9.2761 35.8179C8.57133 35.8179 8 36.3893 8 37.0942C8 37.799 8.57133 38.3704 9.2761 38.3704Z" fill="#26A5BB"/>
<path d="M16.6374 38.3704C17.3422 38.3704 17.9135 37.799 17.9135 37.0942C17.9135 36.3893 17.3422 35.8179 16.6374 35.8179C15.9327 35.8179 15.3613 36.3893 15.3613 37.0942C15.3613 37.799 15.9327 38.3704 16.6374 38.3704Z" fill="#26A5BB"/>
<path d="M31.362 38.3704C32.0668 38.3704 32.6381 37.799 32.6381 37.0942C32.6381 36.3893 32.0668 35.8179 31.362 35.8179C30.6573 35.8179 30.0859 36.3893 30.0859 37.0942C30.0859 37.799 30.6573 38.3704 31.362 38.3704Z" fill="#26A5BB"/>
<path d="M38.7234 38.3704C39.4281 38.3704 39.9995 37.799 39.9995 37.0942C39.9995 36.3893 39.4281 35.8179 38.7234 35.8179C38.0186 35.8179 37.4473 36.3893 37.4473 37.0942C37.4473 37.799 38.0186 38.3704 38.7234 38.3704Z" fill="#26A5BB"/>
<path d="M24.0007 38.3704C24.7055 38.3704 25.2768 37.799 25.2768 37.0942C25.2768 36.3893 24.7055 35.8179 24.0007 35.8179C23.2959 35.8179 22.7246 36.3893 22.7246 37.0942C22.7246 37.799 23.2959 38.3704 24.0007 38.3704Z" fill="#26A5BB"/>
<path d="M9.2761 31.8241C9.98086 31.8241 10.5522 31.2526 10.5522 30.5478C10.5522 29.8429 9.98086 29.2715 9.2761 29.2715C8.57133 29.2715 8 29.8429 8 30.5478C8 31.2526 8.57133 31.8241 9.2761 31.8241Z" fill="#26A5BB"/>
<path d="M16.6374 31.8241C17.3422 31.8241 17.9135 31.2526 17.9135 30.5478C17.9135 29.8429 17.3422 29.2715 16.6374 29.2715C15.9327 29.2715 15.3613 29.8429 15.3613 30.5478C15.3613 31.2526 15.9327 31.8241 16.6374 31.8241Z" fill="#26A5BB"/>
<path d="M31.362 31.8241C32.0668 31.8241 32.6381 31.2526 32.6381 30.5478C32.6381 29.8429 32.0668 29.2715 31.362 29.2715C30.6573 29.2715 30.0859 29.8429 30.0859 30.5478C30.0859 31.2526 30.6573 31.8241 31.362 31.8241Z" fill="#26A5BB"/>
<path d="M38.7234 31.8241C39.4281 31.8241 39.9995 31.2526 39.9995 30.5478C39.9995 29.8429 39.4281 29.2715 38.7234 29.2715C38.0186 29.2715 37.4473 29.8429 37.4473 30.5478C37.4473 31.2526 38.0186 31.8241 38.7234 31.8241Z" fill="#26A5BB"/>
<path d="M24.0007 31.8241C24.7055 31.8241 25.2768 31.2526 25.2768 30.5478C25.2768 29.8429 24.7055 29.2715 24.0007 29.2715C23.2959 29.2715 22.7246 29.8429 22.7246 30.5478C22.7246 31.2526 23.2959 31.8241 24.0007 31.8241Z" fill="#26A5BB"/>
<path d="M9.2761 25.2767C9.98086 25.2767 10.5522 24.7053 10.5522 24.0004C10.5522 23.2955 9.98086 22.7241 9.2761 22.7241C8.57133 22.7241 8 23.2955 8 24.0004C8 24.7053 8.57133 25.2767 9.2761 25.2767Z" fill="#26A5BB"/>
<path d="M16.6374 25.2767C17.3422 25.2767 17.9135 24.7053 17.9135 24.0004C17.9135 23.2955 17.3422 22.7241 16.6374 22.7241C15.9327 22.7241 15.3613 23.2955 15.3613 24.0004C15.3613 24.7053 15.9327 25.2767 16.6374 25.2767Z" fill="#26A5BB"/>
<path d="M31.362 25.2767C32.0668 25.2767 32.6381 24.7053 32.6381 24.0004C32.6381 23.2955 32.0668 22.7241 31.362 22.7241C30.6573 22.7241 30.0859 23.2955 30.0859 24.0004C30.0859 24.7053 30.6573 25.2767 31.362 25.2767Z" fill="#26A5BB"/>
<path d="M38.7234 25.2767C39.4281 25.2767 39.9995 24.7053 39.9995 24.0004C39.9995 23.2955 39.4281 22.7241 38.7234 22.7241C38.0186 22.7241 37.4473 23.2955 37.4473 24.0004C37.4473 24.7053 38.0186 25.2767 38.7234 25.2767Z" fill="#26A5BB"/>
<path d="M24.0007 25.2767C24.7055 25.2767 25.2768 24.7053 25.2768 24.0004C25.2768 23.2955 24.7055 22.7241 24.0007 22.7241C23.2959 22.7241 22.7246 23.2955 22.7246 24.0004C22.7246 24.7053 23.2959 25.2767 24.0007 25.2767Z" fill="#26A5BB"/>
<path d="M9.2761 18.7288C9.98086 18.7288 10.5522 18.1574 10.5522 17.4526C10.5522 16.7477 9.98086 16.1763 9.2761 16.1763C8.57133 16.1763 8 16.7477 8 17.4526C8 18.1574 8.57133 18.7288 9.2761 18.7288Z" fill="#26A5BB"/>
<path d="M16.6374 18.7288C17.3422 18.7288 17.9135 18.1574 17.9135 17.4526C17.9135 16.7477 17.3422 16.1763 16.6374 16.1763C15.9327 16.1763 15.3613 16.7477 15.3613 17.4526C15.3613 18.1574 15.9327 18.7288 16.6374 18.7288Z" fill="#26A5BB"/>
<path d="M31.362 18.7288C32.0668 18.7288 32.6381 18.1574 32.6381 17.4526C32.6381 16.7477 32.0668 16.1763 31.362 16.1763C30.6573 16.1763 30.0859 16.7477 30.0859 17.4526C30.0859 18.1574 30.6573 18.7288 31.362 18.7288Z" fill="#26A5BB"/>
<path d="M38.7234 18.7288C39.4281 18.7288 39.9995 18.1574 39.9995 17.4526C39.9995 16.7477 39.4281 16.1763 38.7234 16.1763C38.0186 16.1763 37.4473 16.7477 37.4473 17.4526C37.4473 18.1574 38.0186 18.7288 38.7234 18.7288Z" fill="#26A5BB"/>
<path d="M24.0007 18.7288C24.7055 18.7288 25.2768 18.1574 25.2768 17.4526C25.2768 16.7477 24.7055 16.1763 24.0007 16.1763C23.2959 16.1763 22.7246 16.7477 22.7246 17.4526C22.7246 18.1574 23.2959 18.7288 24.0007 18.7288Z" fill="#26A5BB"/>
<path d="M9.2761 12.1815C9.98086 12.1815 10.5522 11.6101 10.5522 10.9052C10.5522 10.2003 9.98086 9.62891 9.2761 9.62891C8.57133 9.62891 8 10.2003 8 10.9052C8 11.6101 8.57133 12.1815 9.2761 12.1815Z" fill="#26A5BB"/>
<path d="M16.6374 12.1815C17.3422 12.1815 17.9135 11.6101 17.9135 10.9052C17.9135 10.2003 17.3422 9.62891 16.6374 9.62891C15.9327 9.62891 15.3613 10.2003 15.3613 10.9052C15.3613 11.6101 15.9327 12.1815 16.6374 12.1815Z" fill="#26A5BB"/>
<path d="M31.362 12.1815C32.0668 12.1815 32.6381 11.6101 32.6381 10.9052C32.6381 10.2003 32.0668 9.62891 31.362 9.62891C30.6573 9.62891 30.0859 10.2003 30.0859 10.9052C30.0859 11.6101 30.6573 12.1815 31.362 12.1815Z" fill="#26A5BB"/>
<path d="M38.7234 12.1815C39.4281 12.1815 39.9995 11.6101 39.9995 10.9052C39.9995 10.2003 39.4281 9.62891 38.7234 9.62891C38.0186 9.62891 37.4473 10.2003 37.4473 10.9052C37.4473 11.6101 38.0186 12.1815 38.7234 12.1815Z" fill="#26A5BB"/>
<path d="M24.0007 12.1815C24.7055 12.1815 25.2768 11.6101 25.2768 10.9052C25.2768 10.2003 24.7055 9.62891 24.0007 9.62891C23.2959 9.62891 22.7246 10.2003 22.7246 10.9052C22.7246 11.6101 23.2959 12.1815 24.0007 12.1815Z" fill="#26A5BB"/>
</g>
<defs>
<clipPath id="clip0_2075_20892">
<rect width="32" height="28.7425" fill="white" transform="translate(8 9.62891)"/>
</clipPath>
</defs>
</svg>
