<svg width="20" height="20" viewBox="0 0 20 20" fill="none" xmlns="http://www.w3.org/2000/svg">
<g clip-path="url(#clip0_2076_16482)">
<g clip-path="url(#clip1_2076_16482)">
<path fill-rule="evenodd" clip-rule="evenodd" d="M4.75678 2.84375C4.48485 3.0583 4.41624 3.30778 4.54722 3.60466C4.67196 3.88782 4.88776 4.00757 5.20834 3.96766C5.35005 3.9507 5.46589 3.86318 5.58897 3.77018L5.60003 3.76183L5.67487 3.7057C7.3177 2.49323 9.18506 2.04292 11.2258 2.36724C12.3747 2.54936 13.4262 3.01464 14.4404 3.78803C14.6636 3.95892 14.9268 4.01007 15.1451 3.92524C15.336 3.85165 15.4682 3.682 15.5094 3.45996C15.558 3.19427 15.4532 2.98969 15.1476 2.75768C13.6345 1.60383 11.9094 1.0188 10.0208 1.0188H9.98464C9.43204 1.02379 8.98048 1.05996 8.56635 1.13106C7.16801 1.37431 5.88568 1.95061 4.75678 2.8425V2.84375ZM13.8765 4.96682C13.8715 4.71984 13.8154 4.60383 13.4699 4.3556C11.4366 2.8899 8.58756 2.8899 6.54182 4.3556C6.29858 4.53023 5.93558 4.88824 6.23621 5.32608C6.33226 5.46578 6.45325 5.54936 6.59546 5.57556C6.78631 5.61048 7.01084 5.54188 7.24535 5.37722C7.9439 4.88948 8.70232 4.60258 9.50065 4.52524C9.67529 4.50778 9.84743 4.49905 10.0183 4.49905C11.0487 4.49905 11.9942 4.81215 12.8375 5.43086C13.0907 5.61672 13.3314 5.64167 13.5734 5.50695C13.783 5.39094 13.884 5.20882 13.8765 4.96558V4.96682ZM8.72475 7.10861C8.37423 7.3057 8.02745 7.23086 7.84034 6.91901C7.64699 6.59718 7.76051 6.24416 8.12849 6.02088C8.68358 5.68408 9.28608 5.51319 9.921 5.51319H10.0108H10.0133H10.0158C10.6869 5.49946 11.3181 5.67161 11.8981 6.02462C12.2512 6.23917 12.3622 6.56973 12.19 6.88782C12.1065 7.0425 11.9842 7.14603 11.837 7.18969C11.6699 7.23959 11.4778 7.2084 11.2819 7.10113C10.4274 6.63335 9.56799 6.63585 8.72475 7.10861ZM15.1539 9.49863C11.8882 9.48366 8.42913 9.48242 4.87529 9.49863C3.10398 9.50612 1.90772 10.7148 1.89649 12.5086C1.89026 13.4903 1.89275 14.4882 1.89525 15.4537V15.8716C1.90023 17.7764 3.07778 18.9627 4.97134 18.9664C6.1256 18.9689 7.27987 18.9677 8.43537 18.9664H8.43662H8.43786H9.97092H10.0021C10.5248 18.9664 11.0474 18.9664 11.5701 18.9677C12.7451 18.9701 13.9614 18.9714 15.1564 18.9627C16.9002 18.9502 18.0828 17.7714 18.0977 16.03C18.1065 15.0009 18.1065 13.8733 18.0977 12.4812C18.0865 10.7061 16.904 9.50736 15.1526 9.49863H15.1539ZM16.8528 15.9589C16.8466 17.0903 16.2142 17.7153 15.0715 17.719C14.3872 17.7215 13.7029 17.7215 13.0199 17.7215H13.0183H11.5214H10.0246H8.51645C7.33641 17.7215 6.15637 17.7215 4.97633 17.7203C3.78256 17.7178 3.15013 17.0878 3.14389 15.9015C3.13766 14.5519 3.1389 13.5128 3.14389 12.5348C3.15138 11.4159 3.81375 10.746 4.91645 10.7435C8.38672 10.7348 11.8146 10.7348 15.1065 10.7435C16.2104 10.746 16.8466 11.386 16.8541 12.4986C16.8603 13.6038 16.8616 14.7677 16.8541 15.9589H16.8528ZM13.3926 12.4799C13.773 12.4799 14.1522 12.4862 14.5264 12.4999L14.5277 12.4986C14.6986 12.5049 14.8445 12.5672 14.9481 12.6795C15.0566 12.7968 15.1127 12.9602 15.1052 13.141C15.0928 13.4816 14.862 13.7036 14.5052 13.7223C14.2573 13.7352 14.0039 13.7327 13.7574 13.7303C13.7409 13.7301 13.7245 13.73 13.7081 13.7298C13.6481 13.7292 13.5884 13.7289 13.5285 13.7286C13.469 13.7283 13.4092 13.7279 13.3489 13.7273C13.2354 13.7273 13.1206 13.7286 13.0071 13.7298C12.7539 13.7336 12.4932 13.7373 12.2387 13.7236C11.8907 13.7061 11.6437 13.4729 11.625 13.1423C11.615 12.9801 11.6736 12.818 11.7834 12.697C11.8919 12.5772 12.0441 12.5074 12.2113 12.5011C12.6042 12.4874 13.0121 12.4799 13.3926 12.4799Z" fill="#525252"/>
</g>
</g>
<defs>
<clipPath id="clip0_2076_16482">
<rect width="20" height="20" fill="white"/>
</clipPath>
<clipPath id="clip1_2076_16482">
<rect width="18.4615" height="18.4615" fill="white" transform="translate(0.769531 0.769287)"/>
</clipPath>
</defs>
</svg>
