<svg width="20" height="20" viewBox="0 0 20 20" fill="none" xmlns="http://www.w3.org/2000/svg">
<g opacity="0.6">
<path fill-rule="evenodd" clip-rule="evenodd" d="M9.01556 8.18416L9.33479 7.86128C10.2771 6.80962 12.1111 6.80962 13.4034 7.3864C13.585 7.46744 13.8535 7.56294 14.1731 7.67656C15.4532 8.13181 17.5514 8.87794 18.1496 10.15C18.518 10.9334 18.5075 11.8846 18.4962 12.8996C18.4942 13.0768 18.4922 13.2561 18.4922 13.4367C18.4922 15.8512 17.0395 17.0939 14.5084 16.9614L10.5353 16.9871L5.74119 17L3.89583 16.9863L3.43344 16.9734L3.27968 16.9652L3.17571 16.9556C0.903381 16.6642 0.980147 13.1401 3.17467 11.8634L3.52601 11.6662L3.78728 11.528L4.77216 11.0325L5.42426 10.6972L5.79121 10.4933C5.82763 10.472 5.86282 10.4511 5.89698 10.4304L6.09128 10.3077L6.53828 10.0005C6.63249 9.93821 6.73439 9.87309 6.85176 9.79966L7.31626 9.50641L7.70229 9.25441C8.11483 8.97797 8.40883 8.75173 8.73011 8.45668L9.01556 8.18416ZM17.2175 13.2592C17.2192 12.1932 17.2208 11.1958 16.9186 10.432C16.7049 9.89168 13.6424 8.7918 12.6452 8.43367L12.5898 8.41378C12.0016 8.2024 11.0893 8.20744 10.4656 8.69301C10.4656 8.69301 9.41949 9.63782 8.75885 10.1513L9.62282 11.2307C9.77138 11.4163 9.74294 11.6868 9.55904 11.8375C9.37217 11.9906 9.09625 11.9616 8.94528 11.773L8.04613 10.6497L7.27638 11.1544L7.18586 11.2187L7.89498 12.1046C8.04355 12.2902 8.01511 12.5608 7.8312 12.7115C7.64433 12.8646 7.36841 12.8356 7.21744 12.647L6.46439 11.7062L6.3382 11.7829L6.05083 11.9465L5.71735 12.1271L4.33713 12.8457L3.97518 13.0453L3.76018 13.1714C2.57857 13.8814 2.5423 15.6011 3.21243 15.6898L3.29025 15.696L3.87122 15.7118L4.94397 15.722L7.02982 15.7245L14.6482 15.6847C16.4742 15.7825 17.2173 15.1259 17.2173 13.4993L17.2175 13.2592Z" fill="white"/>
</g>
</svg>
