<svg width="146" height="273" viewBox="0 0 146 273" fill="none" xmlns="http://www.w3.org/2000/svg">
<g filter="url(#filter0_d_2584_27130)">
<path d="M73.4541 5.4834C80.2505 5.86642 87.3541 10.4237 87.3671 19.7354C87.3856 19.9218 87.4747 20.9597 87.4257 22.9072C89.4304 23.3633 90.3655 25.5283 90.1904 28.0645C90.0035 30.7693 88.6214 32.887 86.3183 32.8125C85.2674 36.6623 83.0778 39.6999 81.1543 41.1543V47.5723C81.1543 49.4329 82.2624 51.0756 84.0468 51.8574C85.8908 52.6665 88.2199 53.5259 90.4736 54.3564C94.2809 55.7609 97.8779 57.0875 99.6435 58.2939C99.7786 58.3872 99.928 58.4822 100.091 58.5869C102.513 60.142 107.551 63.377 109.685 81.4492C109.982 83.9683 110.358 86.657 110.725 89.2578C111.156 92.332 111.565 95.236 111.789 97.5068C112.21 101.769 112.965 104.518 113.765 107.427C114.384 109.682 115.026 112.014 115.5 115.111C116.149 119.343 116.481 122.418 116.773 125.129C117.038 127.585 117.266 129.707 117.667 132.082C118.058 134.403 118.843 135.228 119.751 135.997C121.438 137.424 123.351 139.042 124.607 140.926C125.293 141.951 125.89 143.258 126.469 144.521C126.807 145.259 127.127 145.958 127.437 146.539C127.708 147.166 127.881 147.648 127.624 148.041C127.39 148.397 126.938 148.453 126.526 148.462H126.473C124.794 148.462 123.754 146.863 123.311 146.181C123.268 146.116 123.232 146.061 123.203 146.017C123.159 145.952 123.068 145.806 122.946 145.605C122.354 144.636 121.932 144.008 121.633 143.604C121.862 144.507 122.381 146.138 123.409 148.833C123.98 150.331 124.69 153.031 125.07 154.479C125.181 154.903 125.286 155.302 125.311 155.372C125.447 155.834 125.483 156.531 125.172 157.073C124.992 157.389 124.72 157.601 124.388 157.688C124.226 157.729 124.068 157.75 123.914 157.75C123.232 157.75 122.655 157.343 122.2 156.538C121.943 156.083 121.249 154.027 120.294 151.173C119.918 150.048 119.56 148.976 119.358 148.417L119.323 148.43C119.422 148.748 119.573 149.227 119.756 149.805C120.963 153.616 122.146 157.396 122.215 158.092C122.264 158.59 122.392 159.914 121.056 160.196C120.912 160.226 120.769 160.242 120.63 160.242C119.848 160.242 119.236 159.78 118.992 159.009C118.748 158.234 116.557 151.257 116.029 149.502L115.898 149.521C116.018 149.997 116.24 150.813 116.491 151.733C117.072 153.868 117.795 156.522 117.932 157.462C118.071 158.424 117.564 159.235 116.727 159.39C116.636 159.407 116.543 159.416 116.452 159.416C115.669 159.416 114.968 158.82 114.711 157.934C113.862 155.017 112.738 150.891 112.486 149.698L112.35 149.683C112.428 150.299 112.643 151.186 112.87 152.117C113.171 153.352 113.481 154.628 113.529 155.521C113.608 156.95 112.89 157.328 112.274 157.393C112.221 157.398 112.168 157.401 112.114 157.401C111.315 157.401 110.64 156.764 110.475 155.851C110.371 155.277 108.71 148.754 108.065 146.263C107.866 145.494 107.603 144.107 107.526 143.208C107.414 141.903 107.381 140.798 107.425 139.834L107.431 139.717C107.49 138.411 107.582 136.44 107.303 135.214C106.703 132.569 105.862 129.958 104.975 127.193C103.559 122.792 101.956 117.804 101.122 111.812C100.686 108.681 98.8003 99.4344 96.6367 89.8232C95.6645 85.5009 95.3219 82.66 95.165 80.9414C94.7611 82.0301 94.423 83.0544 94.208 84.1445L94.1396 84.4834C92.6472 91.7996 92.1069 100.076 92.5371 109.082C92.7841 114.254 94.2372 121.442 95.1992 126.197C95.6017 128.184 95.9192 129.754 96.0732 130.77C97.1892 138.1 98.4912 149.316 96.916 162.028C96.108 173.72 93.7604 183.138 92.207 189.37C91.4702 192.325 90.9383 194.46 90.8642 195.677C90.761 197.354 90.9173 199.553 91.083 201.881C91.3126 205.129 91.5738 208.81 91.2265 212.173C90.6293 217.951 89.7717 222.071 88.7793 226.841C88.291 229.191 87.7854 231.619 87.2724 234.442C87.2433 234.604 87.1839 234.901 87.1025 235.304C85.0231 245.606 84.5101 251.899 85.5781 254.007C86.8452 256.507 88.0502 258.303 89.0195 259.745C90.4523 261.88 91.3999 263.289 91.3447 265.137C91.305 266.462 89.0834 267.135 83.1523 267.615C82.3518 267.68 81.5438 267.697 80.7636 267.716C79.963 267.733 79.2059 267.75 78.5302 267.816L78.205 267.848C77.5585 267.912 76.8885 267.979 76.2753 267.979C75.6172 267.979 75.1027 267.9 74.7031 267.735L74.6269 267.704C73.9905 267.444 73.2826 267.154 72.9775 266.059C72.9499 266.203 72.9155 266.351 72.872 266.503L72.8574 266.554L72.833 266.598C72.4653 267.269 71.885 267.506 71.375 267.717L71.33 267.734C70.9304 267.898 70.413 267.979 69.746 267.979C69.1197 267.979 68.4395 267.911 67.7812 267.845L67.4736 267.814C66.7994 267.748 66.0422 267.733 65.2402 267.714C64.4598 267.697 63.6512 267.679 62.8505 267.613C56.919 267.131 54.6984 266.46 54.6591 265.135C54.6039 263.287 55.5515 261.878 56.9843 259.745C57.9536 258.302 59.1586 256.508 60.4257 254.006C61.1596 252.556 61.4918 248.132 58.8994 235.296C58.8181 234.896 58.76 234.603 58.7294 234.441C58.2063 231.559 57.6337 229.091 57.08 226.702C56.0309 222.176 55.0403 217.9 54.7744 212.144C54.6393 209.223 54.8266 206.218 55.0068 203.311C55.1855 200.432 55.3551 197.713 55.1386 195.694C55.018 194.565 54.5518 192.647 53.9052 189.992C52.4506 184.016 50.0164 174.012 49.082 162.002C47.5083 149.312 48.8107 138.096 49.9267 130.764C50.0807 129.751 50.3987 128.19 50.8027 126.212C51.7748 121.451 53.2424 114.256 53.4619 109.079C54.0983 94.0197 52.836 88.6684 52.0019 85.1279C51.8886 84.6459 51.7839 84.2034 51.6953 83.7773C51.4468 82.5968 51.1285 81.6013 50.8437 80.8525C50.6911 82.5625 50.3524 85.4248 49.3642 89.8174C47.2005 99.43 45.3139 108.677 44.8779 111.806C44.0438 117.798 42.4397 122.787 41.0244 127.188C40.1365 129.951 39.2964 132.563 38.6962 135.208C38.4173 136.436 38.5092 138.411 38.5703 139.718L38.5761 139.83C38.6197 140.79 38.5879 141.894 38.4746 143.202C38.4048 144.008 38.1627 145.378 37.9345 146.258C37.298 148.715 35.8236 155.362 35.7509 155.886C35.6186 156.837 34.9472 157.502 34.1162 157.502C34.0828 157.502 34.0509 157.502 34.0175 157.499C33.3999 157.459 32.6671 157.11 32.6875 155.679C32.7005 154.733 32.9797 153.327 33.25 151.969C33.4243 151.095 33.5898 150.262 33.6552 149.68L33.5156 149.696C33.2715 150.851 32.1847 154.814 31.2968 157.866C31.0396 158.753 30.3393 159.349 29.5546 159.349C29.4631 159.349 29.3713 159.339 29.2783 159.322C28.4414 159.167 27.9362 158.355 28.0771 157.393C28.2139 156.458 28.9295 153.842 29.5048 151.741C29.7577 150.817 29.9814 149.999 30.1035 149.519L29.9736 149.5C29.4417 151.267 27.2543 158.233 27.0117 159.006C26.7689 159.777 26.1571 160.239 25.374 160.239C25.2345 160.239 25.0906 160.223 24.9482 160.193C23.6114 159.911 23.7401 158.587 23.788 158.089C23.8563 157.393 25.0429 153.607 26.2519 149.788C26.4335 149.217 26.5828 148.742 26.6816 148.427L26.6455 148.416C26.4435 148.974 26.0872 150.042 25.7109 151.164C24.7565 154.021 24.0606 156.079 23.8017 156.536C23.3469 157.341 22.7694 157.749 22.0878 157.749C21.9354 157.749 21.7753 157.727 21.6142 157.686C21.2817 157.598 21.0102 157.386 20.83 157.07C20.5191 156.527 20.5553 155.831 20.6816 155.399C20.7165 155.299 20.8202 154.901 20.9306 154.48C21.3114 153.03 22.0203 150.329 22.5927 148.83C23.623 146.13 24.1419 144.499 24.3701 143.597C24.0736 143.998 23.6505 144.628 23.0576 145.6C22.9341 145.8 22.8424 145.95 22.7988 146.015C22.7683 146.058 22.7334 146.112 22.6914 146.177C22.2481 146.86 21.2076 148.459 19.5283 148.459H19.4746C19.0634 148.45 18.6094 148.393 18.3769 148.037C18.1197 147.645 18.293 147.162 18.5459 146.572C18.8742 145.954 19.1936 145.255 19.5322 144.517C20.1105 143.253 20.7092 141.948 21.3935 140.922C22.6505 139.038 24.5628 137.42 26.25 135.992C27.1582 135.223 27.9435 134.398 28.3359 132.077C28.7369 129.702 28.9645 127.58 29.2304 125.123C29.5225 122.412 29.8543 119.338 30.5039 115.106C30.979 112.01 31.6198 109.679 32.2402 107.424C33.0394 104.513 33.7953 101.766 34.2168 97.5039C34.442 95.233 34.8482 92.3276 35.2812 89.252C35.6459 86.6526 36.0243 83.9658 36.3222 81.4482C38.4511 63.4074 43.4847 60.1579 45.9042 58.5957C46.0699 58.4881 46.2242 58.3886 46.3623 58.2939C48.2515 56.9915 51.8493 55.679 55.6591 54.2891C57.8606 53.4857 60.1362 52.6555 61.9599 51.8564C63.7443 51.0746 64.8515 49.4318 64.8515 47.5713V41.1543C62.8938 39.6923 60.7106 36.8526 59.664 32.8135C57.3745 32.8733 56.0006 30.7604 55.8144 28.0645C55.6389 25.5227 56.5789 23.3537 58.5927 22.9043C58.54 20.8562 58.6326 19.7942 58.6396 19.7148C58.6383 10.4292 65.7474 5.8659 72.5234 5.48145V5.45996H73.4511L73.4541 5.4834ZM72.956 140.271C72.94 142.266 72.9295 144.141 72.9179 145.961C72.8801 152.495 72.8467 158.138 72.6113 166.21C72.4819 170.657 71.6701 189.516 71.3388 193.33C71.1107 195.96 71.2139 198.555 71.6484 201.044C72.0378 203.275 72.5215 207.669 72.7148 213.314C72.8601 217.551 72.3743 225.382 71.873 231.298C71.6652 233.745 71.5585 236.248 71.5556 238.737C71.5542 240.226 71.5276 241.526 71.5029 242.674C71.452 245.186 71.4113 247.17 71.6191 249.905L71.6845 250.81C71.8095 252.571 71.9386 254.393 72.3818 256.337C72.6869 257.673 72.8372 260.285 72.9345 262.014C72.9346 262.034 72.937 262.055 72.9384 262.075C73.03 260.196 73.193 257.654 73.4501 256.523C73.9646 254.268 74.11 252.443 74.2509 250.679L74.3105 249.953C74.5125 247.523 74.4993 245.651 74.4746 242.551C74.4658 241.428 74.4555 240.138 74.4541 238.595C74.4511 236.228 74.342 233.751 74.1298 231.235C73.6314 225.334 73.1491 217.525 73.2929 213.314C73.4862 207.68 73.9669 203.297 74.3535 201.076C74.801 198.5 74.9022 195.835 74.6494 193.155C74.3239 189.694 73.498 170.345 73.3759 166.311C73.1391 158.524 73.114 152.819 73.0878 146.776C73.0791 144.701 73.0691 142.567 73.0517 140.269H72.957L72.956 140.271Z" fill="white"/>
</g>
<g opacity="0.5" filter="url(#filter1_f_2584_27130)">
<path d="M84.679 69.2336C84.1752 68.73 83.5769 68.3304 82.9185 68.0579C82.2601 67.7853 81.5543 67.645 80.8416 67.645C80.1289 67.645 79.4231 67.7853 78.7647 68.0579C78.1063 68.3304 77.508 68.73 77.0042 69.2336L75.9585 70.2783L74.9128 69.2336C73.8951 68.2168 72.5147 67.6455 71.0754 67.6455C69.6361 67.6455 68.2557 68.2168 67.238 69.2336C66.2202 70.2504 65.6484 71.6294 65.6484 73.0674C65.6484 74.5054 66.2202 75.8844 67.238 76.9012L68.2836 77.9459L75.9585 85.6136L83.6334 77.9459L84.679 76.9012C85.1831 76.3978 85.583 75.8002 85.8558 75.1423C86.1287 74.4845 86.2691 73.7795 86.2691 73.0674C86.2691 72.3553 86.1287 71.6503 85.8558 70.9924C85.583 70.3346 85.1831 69.737 84.679 69.2336Z" fill="#FF5B5B" fill-opacity="0.5"/>
</g>
<defs>
<filter id="filter0_d_2584_27130" x="7.25" y="-5.54004" width="131.5" height="284.52" filterUnits="userSpaceOnUse" color-interpolation-filters="sRGB">
<feFlood flood-opacity="0" result="BackgroundImageFix"/>
<feColorMatrix in="SourceAlpha" type="matrix" values="0 0 0 0 0 0 0 0 0 0 0 0 0 0 0 0 0 0 127 0" result="hardAlpha"/>
<feOffset/>
<feGaussianBlur stdDeviation="5.5"/>
<feComposite in2="hardAlpha" operator="out"/>
<feColorMatrix type="matrix" values="0 0 0 0 0.0917014 0 0 0 0 0.507192 0 0 0 0 0.579167 0 0 0 0.2 0"/>
<feBlend mode="normal" in2="BackgroundImageFix" result="effect1_dropShadow_2584_27130"/>
<feBlend mode="normal" in="SourceGraphic" in2="effect1_dropShadow_2584_27130" result="shape"/>
</filter>
<filter id="filter1_f_2584_27130" x="55.6484" y="57.645" width="40.6211" height="37.9688" filterUnits="userSpaceOnUse" color-interpolation-filters="sRGB">
<feFlood flood-opacity="0" result="BackgroundImageFix"/>
<feBlend mode="normal" in="SourceGraphic" in2="BackgroundImageFix" result="shape"/>
<feGaussianBlur stdDeviation="5" result="effect1_foregroundBlur_2584_27130"/>
</filter>
</defs>
</svg>
