<svg width="24" height="24" viewBox="0 0 24 24" fill="none" xmlns="http://www.w3.org/2000/svg">
<path fill-rule="evenodd" clip-rule="evenodd" d="M18.3021 3.64909C17.543 3.65027 16.7839 3.65027 16.0248 3.64792L16.0272 3.64674C15.4423 3.64556 15.0728 3.3384 15.0598 2.84529C15.0539 2.61816 15.1257 2.42162 15.2669 2.27569C15.4388 2.09916 15.7036 2.00383 16.0343 2.00265C16.4862 2.0003 16.9393 2.00148 17.3924 2.00265H17.9302C18.122 2.00148 18.3139 2.00148 18.5057 2.00148L18.6527 2.00101C19.0103 1.99985 19.377 1.99866 19.739 2.00383C21.0089 2.02031 21.9775 2.98063 21.9916 4.23518C22.0045 5.38262 21.9986 6.5489 21.9928 7.67635C21.9904 8.21771 21.6621 8.58371 21.176 8.58607H21.1701C20.69 8.58607 20.3534 8.21653 20.3498 7.68458C20.347 7.10845 20.3472 6.52555 20.3474 5.95273V5.95243V5.95105L20.3475 5.52503V4.55411C20.3463 3.80091 20.198 3.64909 19.4637 3.64909H18.3021ZM2.00468 7.58813C2.00585 8.20951 2.31184 8.58258 2.8226 8.58611H2.82966C3.05091 8.58611 3.24157 8.51315 3.38161 8.3731C3.55579 8.2001 3.64876 7.93177 3.64994 7.59636C3.65229 6.90672 3.65112 6.21707 3.64994 5.5286V4.5977C3.64994 3.76447 3.76763 3.64914 4.61968 3.64914H5.61061C5.83959 3.64914 6.06857 3.64933 6.29756 3.64953H6.29763C6.87007 3.65001 7.44251 3.65049 8.01495 3.64796C8.56338 3.64561 8.92585 3.33139 8.9388 2.84769C8.94468 2.62173 8.87172 2.42402 8.72814 2.27456C8.56102 2.10038 8.31153 2.00623 8.01025 2.00388C7.56892 2.00035 7.12759 2.00035 6.68627 2.00152H6.11431H5.57412L5.16592 2.00126C4.89407 2.001 4.62238 2.00074 4.35018 2.00152C2.95441 2.01094 2.01291 2.9442 2.00468 4.32467C1.99997 5.31206 2.00115 6.31475 2.00468 7.28567V7.58813ZM20.9445 12.8228C21.0422 12.8252 21.1445 12.8263 21.2458 12.8146C21.693 12.764 22.0131 12.405 21.9895 11.9778C21.966 11.5435 21.7106 11.2611 21.2705 11.1834C21.1763 11.1669 21.0833 11.1693 20.9939 11.1728C20.9856 11.1728 20.9773 11.173 20.9689 11.1732L20.9465 11.174C20.9304 11.1746 20.914 11.1752 20.8974 11.1752H3.09371C3.06193 11.1752 3.03016 11.1752 2.99956 11.1728L2.98599 11.1725H2.98597C2.89965 11.1702 2.81121 11.1678 2.72064 11.1846C2.26872 11.267 2.01569 11.5518 2.00981 11.9872C2.00393 12.4144 2.25578 12.7145 2.70063 12.8075C2.76889 12.8216 2.83715 12.8252 2.90305 12.8252C2.94071 12.8252 2.97837 12.824 3.01603 12.8228C3.03384 12.8228 3.05134 12.8222 3.0687 12.8216H3.06871H3.06872H3.06873C3.08578 12.821 3.10269 12.8204 3.1196 12.8204H10.3303H20.8339H20.8339C20.8692 12.8204 20.9057 12.8204 20.9421 12.8216L20.9445 12.8228ZM6.08388 20.3489H5.57194L5.18366 20.3491H5.1834C4.9251 20.3494 4.66715 20.3497 4.4092 20.3489C3.8443 20.3465 3.65247 20.1523 3.65129 19.5827V18.2529C3.65129 17.6079 3.65129 16.9642 3.64894 16.3193C3.64541 15.7779 3.31706 15.4143 2.83101 15.4119H2.82748C2.33908 15.4119 2.00956 15.7744 2.0072 16.3134V16.5805C2.00014 17.635 1.99426 18.726 2.00956 19.7993C2.02721 21.0044 2.99224 21.9671 4.20795 21.993C4.46098 21.9977 4.71518 22 4.96821 22C5.15769 22 5.34599 22 5.53075 21.9988C5.60717 21.9988 5.68378 21.9985 5.76035 21.9981L5.7614 21.9981H5.76152C5.87676 21.9975 5.99193 21.997 6.10624 21.9977H6.12154C7.91392 21.9977 8.5153 21.9541 8.78362 21.6823C8.9272 21.5363 8.94368 21.3374 8.94132 21.1621C8.92838 20.4124 8.49764 20.3524 6.08506 20.3524L6.08388 20.3489ZM21.7209 15.6201C21.8986 15.7931 21.994 16.0579 21.994 16.3863L21.9928 16.3898V16.6099C21.9963 17.622 21.9987 18.6682 21.9916 19.698C21.9834 21.042 21.0289 21.987 19.6708 21.9976C19.266 22 18.8611 21.9988 18.4563 21.9976H17.9067H17.3253H16.7463C16.4874 21.9976 16.225 21.9964 15.966 21.9941C15.4259 21.9882 15.061 21.6598 15.0587 21.1761C15.0563 20.6854 15.4188 20.3547 15.9602 20.3512C16.6066 20.3483 17.2614 20.3485 17.904 20.3487C18.0638 20.3488 18.2229 20.3488 18.381 20.3488H19.4437C20.1969 20.3488 20.3487 20.2005 20.3487 19.465V18.4364C20.3487 18.2649 20.3486 18.0933 20.3486 17.9218C20.3483 17.4072 20.3481 16.8926 20.3499 16.378C20.3522 15.7955 20.6594 15.4248 21.1513 15.4118C21.3761 15.4059 21.5738 15.4777 21.7209 15.6201Z" fill="white"/>
</svg>
