<svg width="20" height="20" viewBox="0 0 20 20" fill="none" xmlns="http://www.w3.org/2000/svg">
<path d="M5.83268 5.00008H4.99935V2.50008C4.99935 2.27907 4.91155 2.06711 4.75527 1.91083C4.59899 1.75455 4.38703 1.66675 4.16602 1.66675C3.945 1.66675 3.73304 1.75455 3.57676 1.91083C3.42048 2.06711 3.33268 2.27907 3.33268 2.50008V5.00008H2.49935C2.27834 5.00008 2.06637 5.08788 1.91009 5.24416C1.75381 5.40044 1.66602 5.6124 1.66602 5.83341C1.66602 6.05443 1.75381 6.26639 1.91009 6.42267C2.06637 6.57895 2.27834 6.66675 2.49935 6.66675H5.83268C6.0537 6.66675 6.26566 6.57895 6.42194 6.42267C6.57822 6.26639 6.66602 6.05443 6.66602 5.83341C6.66602 5.6124 6.57822 5.40044 6.42194 5.24416C6.26566 5.08788 6.0537 5.00008 5.83268 5.00008ZM4.16602 8.33341C3.945 8.33341 3.73304 8.42121 3.57676 8.57749C3.42048 8.73377 3.33268 8.94573 3.33268 9.16675V17.5001C3.33268 17.7211 3.42048 17.9331 3.57676 18.0893C3.73304 18.2456 3.945 18.3334 4.16602 18.3334C4.38703 18.3334 4.59899 18.2456 4.75527 18.0893C4.91155 17.9331 4.99935 17.7211 4.99935 17.5001V9.16675C4.99935 8.94573 4.91155 8.73377 4.75527 8.57749C4.59899 8.42121 4.38703 8.33341 4.16602 8.33341ZM9.99935 15.0001C9.77833 15.0001 9.56637 15.0879 9.41009 15.2442C9.25381 15.4004 9.16602 15.6124 9.16602 15.8334V17.5001C9.16602 17.7211 9.25381 17.9331 9.41009 18.0893C9.56637 18.2456 9.77833 18.3334 9.99935 18.3334C10.2204 18.3334 10.4323 18.2456 10.5886 18.0893C10.7449 17.9331 10.8327 17.7211 10.8327 17.5001V15.8334C10.8327 15.6124 10.7449 15.4004 10.5886 15.2442C10.4323 15.0879 10.2204 15.0001 9.99935 15.0001ZM17.4993 8.33341H16.666V2.50008C16.666 2.27907 16.5782 2.06711 16.4219 1.91083C16.2657 1.75455 16.0537 1.66675 15.8327 1.66675C15.6117 1.66675 15.3997 1.75455 15.2434 1.91083C15.0871 2.06711 14.9993 2.27907 14.9993 2.50008V8.33341H14.166C13.945 8.33341 13.733 8.42121 13.5768 8.57749C13.4205 8.73377 13.3327 8.94573 13.3327 9.16675C13.3327 9.38776 13.4205 9.59972 13.5768 9.756C13.733 9.91228 13.945 10.0001 14.166 10.0001H17.4993C17.7204 10.0001 17.9323 9.91228 18.0886 9.756C18.2449 9.59972 18.3327 9.38776 18.3327 9.16675C18.3327 8.94573 18.2449 8.73377 18.0886 8.57749C17.9323 8.42121 17.7204 8.33341 17.4993 8.33341ZM15.8327 11.6667C15.6117 11.6667 15.3997 11.7545 15.2434 11.9108C15.0871 12.0671 14.9993 12.2791 14.9993 12.5001V17.5001C14.9993 17.7211 15.0871 17.9331 15.2434 18.0893C15.3997 18.2456 15.6117 18.3334 15.8327 18.3334C16.0537 18.3334 16.2657 18.2456 16.4219 18.0893C16.5782 17.9331 16.666 17.7211 16.666 17.5001V12.5001C16.666 12.2791 16.5782 12.0671 16.4219 11.9108C16.2657 11.7545 16.0537 11.6667 15.8327 11.6667ZM11.666 11.6667H10.8327V2.50008C10.8327 2.27907 10.7449 2.06711 10.5886 1.91083C10.4323 1.75455 10.2204 1.66675 9.99935 1.66675C9.77833 1.66675 9.56637 1.75455 9.41009 1.91083C9.25381 2.06711 9.16602 2.27907 9.16602 2.50008V11.6667H8.33268C8.11167 11.6667 7.89971 11.7545 7.74343 11.9108C7.58715 12.0671 7.49935 12.2791 7.49935 12.5001C7.49935 12.7211 7.58715 12.9331 7.74343 13.0893C7.89971 13.2456 8.11167 13.3334 8.33268 13.3334H11.666C11.887 13.3334 12.099 13.2456 12.2553 13.0893C12.4116 12.9331 12.4993 12.7211 12.4993 12.5001C12.4993 12.2791 12.4116 12.0671 12.2553 11.9108C12.099 11.7545 11.887 11.6667 11.666 11.6667Z" fill="#525252"/>
</svg>
