<svg width="48" height="48" viewBox="0 0 48 48" fill="none" xmlns="http://www.w3.org/2000/svg">
<g clip-path="url(#clip0_2137_17038)">
<path d="M37.96 24.0009C37.96 24.3864 37.9448 24.7719 37.9145 25.1565C37.8993 25.343 37.8815 25.5295 37.8592 25.7151C37.8538 25.7615 37.8476 25.8079 37.8422 25.8534C37.8404 25.8659 37.8324 25.9337 37.8413 25.8632C37.8511 25.7883 37.8395 25.8748 37.8369 25.8927C37.8244 25.9846 37.8101 26.0765 37.7958 26.1675C37.678 26.9037 37.5031 27.63 37.2729 28.3394C37.1614 28.683 37.0365 29.022 36.8999 29.3558C36.8803 29.4031 36.8446 29.4869 36.8857 29.3915C36.8678 29.4325 36.85 29.4745 36.8321 29.5155C36.7938 29.6038 36.7545 29.6913 36.7143 29.7787C36.6394 29.9411 36.5618 30.1027 36.4806 30.2624C36.1567 30.904 35.7837 31.5206 35.3679 32.1077C35.2617 32.2576 35.151 32.4049 35.0404 32.5512C35.0939 32.4807 35.06 32.5253 35.0288 32.5664C35.0011 32.6012 34.9735 32.636 34.9458 32.6708C34.8869 32.7448 34.8262 32.8189 34.7656 32.8912C34.5389 33.1633 34.3025 33.4275 34.0562 33.6827C33.8063 33.9423 33.5458 34.1922 33.2772 34.4322C33.1451 34.55 33.0113 34.666 32.8748 34.7793C32.807 34.8356 32.7383 34.8918 32.6687 34.9471C32.6339 34.9748 32.5991 35.0024 32.5643 35.0301C32.5491 35.0417 32.5339 35.0533 32.5196 35.0649C32.4625 35.1104 32.6196 34.989 32.5196 35.0649C31.9477 35.4986 31.3472 35.8938 30.7181 36.241C30.3995 36.4168 30.0739 36.5809 29.7428 36.7317C29.667 36.7665 29.5911 36.8005 29.5144 36.8335C29.4733 36.8513 29.4323 36.8692 29.3904 36.887C29.4965 36.8415 29.3796 36.8906 29.3368 36.9084C29.17 36.9762 29.0022 37.0414 28.8327 37.1038C28.142 37.3564 27.4326 37.5554 26.7117 37.6999C26.5243 37.7374 26.336 37.7713 26.1468 37.8008C26.0621 37.8141 25.9764 37.8266 25.8916 37.8391C25.8729 37.8418 25.7872 37.8525 25.8622 37.8436C25.9327 37.8347 25.8649 37.8436 25.8524 37.8445C25.7997 37.8507 25.7471 37.8579 25.6936 37.8641C25.3134 37.9087 24.9315 37.9373 24.5496 37.9516C23.7876 37.9801 23.0229 37.9498 22.2653 37.8588C22.2189 37.8534 22.1725 37.8472 22.127 37.8418C22.0664 37.8347 22.1636 37.8472 22.1663 37.8472C22.1404 37.8436 22.1137 37.84 22.0878 37.8364C21.9959 37.8231 21.904 37.8097 21.8129 37.7945C21.6309 37.7651 21.4489 37.732 21.2686 37.6955C20.9037 37.6223 20.5414 37.5348 20.1827 37.4331C19.8276 37.3323 19.4769 37.2181 19.1307 37.0905C18.962 37.028 18.7934 36.9629 18.6274 36.8941C18.6033 36.8843 18.5801 36.8745 18.5561 36.8647C18.5587 36.8656 18.6453 36.904 18.5917 36.8799C18.5507 36.862 18.5088 36.8442 18.4677 36.8263C18.3856 36.7906 18.3035 36.7541 18.2223 36.7166C17.562 36.4132 16.9249 36.0598 16.3182 35.6601C16.021 35.4646 15.7337 35.2576 15.45 35.0426C15.5544 35.1211 15.4437 35.0372 15.4205 35.0194C15.3857 34.9917 15.3509 34.964 15.3161 34.9364C15.2421 34.8766 15.1689 34.8168 15.0957 34.7561C14.9601 34.6428 14.8253 34.5268 14.6942 34.4081C14.1624 33.9307 13.6663 33.4132 13.2103 32.8626C13.1541 32.7948 13.0979 32.7252 13.0425 32.6565C13.0149 32.6217 12.9872 32.5869 12.9604 32.5521C12.9488 32.5369 12.9372 32.5217 12.9256 32.5075C12.948 32.536 12.9756 32.5726 12.9372 32.5226C12.8266 32.3763 12.7168 32.2282 12.6107 32.0783C12.4019 31.7829 12.2047 31.4786 12.0182 31.1681C11.8344 30.862 11.663 30.5488 11.5024 30.2303C11.4221 30.0705 11.3445 29.909 11.2704 29.7457C11.233 29.6645 11.1964 29.5824 11.1607 29.4994C11.1526 29.4807 11.0982 29.3513 11.1268 29.42C11.1535 29.4834 11.1277 29.4227 11.1232 29.4111C11.1107 29.3817 11.0991 29.3513 11.0866 29.3219C10.8109 28.6437 10.586 27.945 10.4165 27.2329C10.3299 26.868 10.2568 26.5003 10.1988 26.13C10.1854 26.0452 10.1729 25.9596 10.1613 25.8748C10.1488 25.79 10.164 25.8944 10.164 25.8944C10.164 25.8944 10.1568 25.8391 10.1559 25.8347C10.1497 25.782 10.1426 25.7294 10.1372 25.6758C10.1158 25.4902 10.0979 25.3037 10.0837 25.1163C10.0257 24.3543 10.0275 23.5869 10.0881 22.8257C10.1033 22.633 10.1229 22.4394 10.1461 22.2475C10.1479 22.235 10.1631 22.1092 10.1631 22.1092C10.1631 22.1092 10.1488 22.2109 10.1577 22.1485C10.1604 22.1288 10.1631 22.1092 10.1658 22.0896C10.18 21.9914 10.1943 21.8933 10.2104 21.7951C10.2702 21.4257 10.3451 21.058 10.4343 20.6949C10.6083 19.9828 10.8394 19.2886 11.1152 18.6104C11.1223 18.5925 11.1303 18.5747 11.1375 18.5568C11.0929 18.6666 11.1196 18.5979 11.1303 18.5747C11.1455 18.539 11.1607 18.5042 11.1758 18.4685C11.2142 18.3802 11.2535 18.2927 11.2936 18.2053C11.3713 18.0366 11.4525 17.8698 11.5363 17.7047C11.6978 17.387 11.8718 17.0747 12.0565 16.7695C12.2439 16.4599 12.4429 16.1574 12.6535 15.8629C12.7017 15.796 12.7499 15.7291 12.7989 15.663C12.8257 15.6273 12.8516 15.5916 12.8784 15.5568C12.8935 15.5363 12.9087 15.5167 12.9239 15.4962C12.9319 15.4855 12.9845 15.4176 12.9408 15.4739C12.8998 15.5265 12.9783 15.4266 12.9935 15.4069C13.0211 15.3721 13.0488 15.3373 13.0764 15.3025C13.1362 15.2285 13.196 15.1553 13.2567 15.0821C13.7153 14.5342 14.2141 14.0194 14.7486 13.5447C14.8807 13.4269 15.0154 13.3118 15.1519 13.1984C15.2206 13.1422 15.2893 13.086 15.3581 13.0307C15.3875 13.0066 15.4178 12.9834 15.4473 12.9602C15.4616 12.9495 15.5267 12.8986 15.4696 12.9423C15.4134 12.9852 15.4821 12.9334 15.4919 12.9254C15.7801 12.7068 16.0746 12.498 16.3779 12.3007C16.982 11.9081 17.6156 11.561 18.2705 11.2621C18.3526 11.2246 18.4338 11.1889 18.5168 11.1532C18.5445 11.1407 18.6747 11.0881 18.5516 11.138C18.5989 11.1184 18.6462 11.0988 18.6944 11.0792C18.8612 11.0113 19.0299 10.9471 19.1994 10.8855C19.5403 10.7615 19.8865 10.6508 20.2354 10.5536C20.5941 10.4536 20.9572 10.3671 21.3231 10.2957C21.5042 10.26 21.6862 10.2279 21.8683 10.1993C21.9602 10.185 22.0521 10.1717 22.144 10.1592C22.2064 10.1502 22.1047 10.1645 22.1047 10.1645C22.1047 10.1645 22.1743 10.1556 22.1841 10.1547C22.2368 10.1485 22.2903 10.1422 22.343 10.136C23.1014 10.0494 23.8661 10.0235 24.629 10.0557C25.0109 10.0717 25.392 10.1029 25.7712 10.1494C25.781 10.1502 25.8899 10.1636 25.8899 10.1645C25.8899 10.1645 25.7846 10.1502 25.8702 10.1618C25.8899 10.1645 25.9095 10.1672 25.9291 10.1699C26.0273 10.1842 26.1254 10.1993 26.2236 10.2154C26.4056 10.2457 26.5867 10.2787 26.7679 10.3153C27.4942 10.4634 28.2089 10.6678 28.904 10.9257C29.0727 10.9881 29.2404 11.0551 29.4073 11.1238C29.4948 11.1595 29.3208 11.0863 29.443 11.1389C29.4787 11.1541 29.5135 11.1693 29.5492 11.1853C29.6375 11.2237 29.725 11.2639 29.8124 11.304C30.1426 11.4566 30.4674 11.6226 30.785 11.8002C31.0955 11.9742 31.4007 12.1589 31.6978 12.3552C31.8513 12.4569 32.003 12.5604 32.1529 12.6675C32.2198 12.7157 32.2868 12.7639 32.3528 12.8129C32.3885 12.8397 32.4242 12.8656 32.459 12.8924C32.4956 12.92 32.5937 12.9968 32.5045 12.9263C33.0675 13.368 33.6011 13.8445 34.0954 14.3611C34.3444 14.6217 34.5844 14.8912 34.8137 15.1696C34.87 15.2383 34.9262 15.307 34.9806 15.3766C35.0038 15.406 35.0279 15.4364 35.0511 15.4658C35.0672 15.4855 35.11 15.5444 35.0395 15.4507C35.0547 15.4712 35.0707 15.4908 35.0859 15.5113C35.193 15.6523 35.2983 15.796 35.4 15.9414C35.8176 16.5348 36.1906 17.1595 36.5145 17.8082C36.5948 17.9688 36.6715 18.1303 36.7456 18.2936C36.7831 18.3757 36.8187 18.4578 36.8544 18.5399C36.875 18.5881 36.8964 18.6407 36.8625 18.5577C36.8821 18.605 36.9017 18.6523 36.9214 18.7005C37.0597 19.0414 37.1846 19.3876 37.2961 19.7374C37.521 20.4414 37.6905 21.1633 37.8047 21.8941C37.819 21.9861 37.8342 22.078 37.8449 22.1699C37.8324 22.0637 37.8431 22.1574 37.8493 22.2091C37.8547 22.2555 37.8609 22.3019 37.8654 22.3483C37.8859 22.5277 37.9029 22.7079 37.9163 22.8873C37.9448 23.2585 37.9582 23.6306 37.9582 24.0027C37.9582 24.2749 38.1973 24.5354 38.4784 24.5229C38.7595 24.5104 38.9986 24.2945 38.9986 24.0027C38.9968 22.4411 38.7568 20.8724 38.275 19.3867C37.8092 17.9527 37.1293 16.5839 36.2548 15.3543C35.3625 14.1006 34.2953 12.9985 33.0747 12.0625C31.8781 11.1443 30.5432 10.4224 29.1271 9.90307C27.6709 9.36589 26.1228 9.07142 24.571 9.01163C23.0033 8.95096 21.4159 9.13834 19.9061 9.56577C18.4525 9.97802 17.0543 10.6143 15.7926 11.4441C14.5398 12.2677 13.4039 13.2752 12.45 14.4334C11.4694 15.6238 10.6833 16.9417 10.0971 18.3686C9.50992 19.7999 9.1646 21.3231 9.04414 22.865C8.9219 24.4364 9.05485 26.0336 9.42694 27.5649C9.78386 29.0372 10.3746 30.4614 11.1589 31.757C11.9352 33.0384 12.9078 34.2109 14.0285 35.2059C15.151 36.2008 16.4163 37.036 17.7842 37.6535C19.2235 38.304 20.7377 38.7198 22.3055 38.9028C23.8768 39.0857 25.4767 39.0081 27.0275 38.694C28.5186 38.3924 29.9659 37.8507 31.2945 37.111C32.6044 36.382 33.8108 35.4477 34.845 34.3635C35.8774 33.2811 36.7554 32.0426 37.4219 30.7023C38.1037 29.3317 38.5828 27.8602 38.8139 26.3469C38.9326 25.5696 38.9986 24.7871 38.9995 24.0009C38.9995 23.7288 38.7604 23.4682 38.4793 23.4807C38.1973 23.4932 37.96 23.7091 37.9591 24.0009H37.96Z" fill="#26A5BB"/>
<path d="M34.4957 24.0008C34.4957 24.2979 34.4841 24.5942 34.46 24.8904C34.4493 25.0234 34.4359 25.1563 34.4207 25.2884C34.4163 25.3277 34.4109 25.3678 34.4065 25.4071C34.3949 25.5044 34.4082 25.4026 34.4091 25.3866C34.402 25.4651 34.3868 25.5436 34.3743 25.6221C34.2842 26.1825 34.1513 26.7349 33.9755 27.2747C33.8898 27.538 33.7943 27.7976 33.6891 28.0528C33.6864 28.0582 33.6364 28.1751 33.6712 28.0975C33.7051 28.0198 33.6543 28.1358 33.6516 28.1412C33.6257 28.2001 33.5998 28.2581 33.5731 28.3161C33.5124 28.449 33.4481 28.582 33.3821 28.7123C33.1358 29.1986 32.8521 29.6671 32.5362 30.1114C32.4595 30.2194 32.38 30.3256 32.2997 30.4318C32.3854 30.3193 32.2587 30.4835 32.2408 30.5058C32.1936 30.5647 32.1454 30.6236 32.0972 30.6816C31.9196 30.8949 31.734 31.101 31.5404 31.3009C31.3557 31.491 31.1647 31.6748 30.9675 31.8515C30.8685 31.9398 30.7686 32.0264 30.6659 32.1111C30.6124 32.1558 30.5589 32.1995 30.5044 32.2432C30.4848 32.2593 30.4652 32.2744 30.4447 32.2905C30.425 32.3066 30.4045 32.3217 30.3849 32.3369C30.4402 32.2941 30.4455 32.2905 30.4 32.3253C29.9637 32.6519 29.5095 32.9526 29.0312 33.2149C28.7966 33.3434 28.5574 33.4639 28.3138 33.5754C28.2558 33.6022 28.1969 33.6281 28.1389 33.654C28.1166 33.6638 27.9953 33.7173 28.122 33.662C28.0926 33.6745 28.0631 33.687 28.0337 33.6986C27.8971 33.7548 27.7588 33.8074 27.6205 33.8583C27.0959 34.0484 26.5569 34.1992 26.009 34.3072C25.8796 34.333 25.7503 34.3562 25.6209 34.3768C25.5557 34.3875 25.4906 34.3964 25.4246 34.4062C25.2898 34.4258 25.5406 34.3928 25.4049 34.4089C25.3657 34.4133 25.3255 34.4187 25.2863 34.4232C24.9936 34.4571 24.7 34.4794 24.4056 34.4901C23.8274 34.5106 23.2465 34.4874 22.6718 34.4187C22.6388 34.4151 22.6058 34.4107 22.5728 34.4062C22.4898 34.3964 22.7031 34.4258 22.5728 34.4062C22.5076 34.3964 22.4425 34.3875 22.3765 34.3768C22.2337 34.3536 22.0909 34.3277 21.95 34.2991C21.6689 34.2429 21.3896 34.1751 21.1139 34.0966C20.8533 34.0225 20.5954 33.9386 20.3403 33.8449C20.2073 33.7958 20.0761 33.745 19.9459 33.6914C19.9218 33.6816 19.8986 33.6718 19.8745 33.662C20.0003 33.7173 19.8798 33.6638 19.8575 33.654C19.787 33.6236 19.7174 33.5915 19.6478 33.5594C19.1517 33.3301 18.6725 33.0641 18.2157 32.7634C18.1095 32.6938 18.0051 32.6224 17.9025 32.5493C17.8454 32.5091 17.7892 32.4681 17.733 32.427C17.7071 32.4083 17.6821 32.3895 17.6571 32.3708C17.6464 32.3628 17.5259 32.2718 17.5893 32.3199C17.6562 32.3708 17.5572 32.2941 17.5518 32.2905C17.5224 32.2673 17.492 32.2432 17.4626 32.22C17.4135 32.1807 17.3644 32.1406 17.3162 32.1004C17.2101 32.0112 17.1048 31.9211 17.0013 31.8274C16.5979 31.4642 16.2214 31.0725 15.8752 30.654C15.835 30.6058 15.7949 30.5567 15.7556 30.5067C15.7315 30.4773 15.7083 30.447 15.6851 30.4175C15.6271 30.3443 15.6878 30.4211 15.6967 30.4327C15.6048 30.3113 15.5147 30.19 15.4273 30.0659C15.2747 29.8482 15.1292 29.6251 14.9927 29.3967C14.849 29.1566 14.7143 28.9113 14.5885 28.6614C14.5314 28.5472 14.4761 28.4321 14.4234 28.3161C14.3966 28.2581 14.3708 28.1992 14.3449 28.1412C14.3351 28.1189 14.2815 27.9984 14.3369 28.1242C14.3217 28.0894 14.3074 28.0528 14.2931 28.018C14.0834 27.5032 13.913 26.9731 13.7836 26.4324C13.7167 26.1522 13.6605 25.8684 13.6159 25.5838C13.6061 25.5186 13.5936 25.4535 13.5873 25.3875C13.6016 25.5356 13.5793 25.3179 13.5757 25.2893C13.5588 25.1439 13.5445 24.9975 13.5338 24.8512C13.4892 24.2729 13.491 23.6903 13.5365 23.112C13.5481 22.9657 13.5623 22.8202 13.5802 22.6748C13.5838 22.648 13.5864 22.6221 13.59 22.5954C13.607 22.4597 13.5731 22.7114 13.5927 22.5757C13.6043 22.4972 13.6159 22.4187 13.6284 22.3411C13.673 22.0698 13.7274 21.7994 13.7926 21.5326C13.9237 20.9928 14.0959 20.4636 14.3074 19.9496C14.3172 19.9264 14.361 19.8033 14.3146 19.9318C14.327 19.8961 14.3449 19.8613 14.3601 19.8265C14.3859 19.7676 14.4118 19.7096 14.4386 19.6516C14.4975 19.524 14.559 19.3982 14.6224 19.2732C14.7464 19.0296 14.8794 18.7905 15.0213 18.5576C15.1622 18.3247 15.3121 18.0972 15.4701 17.8759C15.5433 17.7732 15.6191 17.6715 15.6958 17.5707C15.6102 17.6831 15.7449 17.5091 15.7663 17.4823C15.8136 17.4235 15.8618 17.3646 15.91 17.3066C16.258 16.8907 16.6363 16.4999 17.0423 16.1394C17.1414 16.0511 17.2422 15.9645 17.3439 15.8806C17.393 15.8405 17.4412 15.8003 17.4911 15.761C17.5206 15.737 17.5509 15.7138 17.5804 15.6906C17.6642 15.6236 17.5018 15.7494 17.5955 15.679C17.8186 15.5121 18.0444 15.3506 18.2781 15.1989C18.7368 14.9017 19.2186 14.6385 19.7165 14.4127C19.7745 14.386 19.8334 14.361 19.8923 14.3351C19.9789 14.2967 19.8879 14.336 19.8745 14.3422C19.9093 14.3271 19.9459 14.3128 19.9807 14.2985C20.1118 14.245 20.243 14.1941 20.3759 14.1459C20.6427 14.0487 20.914 13.9621 21.1879 13.8863C21.4521 13.8131 21.7189 13.7497 21.9874 13.6971C22.1231 13.6703 22.2587 13.6462 22.3952 13.6248C22.4666 13.6132 22.5389 13.5998 22.6112 13.5927C22.5951 13.5945 22.4943 13.6079 22.5906 13.5954C22.6433 13.5891 22.6959 13.582 22.7486 13.5766C23.3241 13.5115 23.905 13.4919 24.4841 13.5177C24.7652 13.5302 25.0445 13.5525 25.3237 13.5864C25.363 13.5909 25.4032 13.5945 25.4424 13.6016C25.3166 13.5811 25.4103 13.5972 25.4424 13.6016C25.5147 13.6123 25.5861 13.623 25.6575 13.6346C25.8002 13.6578 25.9421 13.6846 26.084 13.7132C26.6301 13.8256 27.1681 13.9791 27.691 14.1727C27.8115 14.2173 27.931 14.2637 28.0497 14.3128C28.0738 14.3226 28.1961 14.3655 28.0676 14.3199C28.0917 14.328 28.1149 14.3405 28.1381 14.3503C28.2085 14.3806 28.2781 14.4127 28.3477 14.4449C28.6021 14.5627 28.8519 14.6894 29.0964 14.8259C29.3293 14.9553 29.5568 15.0936 29.779 15.2399C29.895 15.3167 30.0101 15.3952 30.1234 15.4755C30.1752 15.5121 30.226 15.5496 30.2769 15.587C30.3019 15.6058 30.3278 15.6245 30.3527 15.6442C30.3759 15.6611 30.4902 15.7503 30.3831 15.6665C30.8105 16.0011 31.2156 16.3634 31.5904 16.756C31.7777 16.9523 31.958 17.1549 32.1311 17.3646C32.1757 17.4181 32.2194 17.4725 32.2623 17.5261C32.2783 17.5457 32.2935 17.5662 32.3096 17.5859C32.3908 17.6876 32.2426 17.4966 32.3212 17.601C32.4041 17.7126 32.4871 17.8241 32.5674 17.9374C32.8815 18.3836 33.1617 18.8539 33.4062 19.342C33.4633 19.4562 33.5186 19.5713 33.5713 19.6873C33.6034 19.7569 33.6337 19.8274 33.665 19.8979C33.6757 19.9211 33.7051 19.9889 33.6578 19.88C33.6783 19.9273 33.6971 19.9746 33.7167 20.0219C33.8175 20.2726 33.9094 20.527 33.9915 20.784C34.162 21.3185 34.2914 21.8663 34.3788 22.4205C34.3886 22.4856 34.402 22.5508 34.4074 22.6168C34.394 22.4696 34.4172 22.6989 34.4216 22.7355C34.4377 22.8747 34.4511 23.0139 34.4618 23.154C34.4832 23.4368 34.4939 23.7197 34.4939 24.0035C34.4939 24.2756 34.733 24.5362 35.0141 24.5237C35.2952 24.5112 35.5352 24.2953 35.5343 24.0035C35.5299 21.6361 34.7991 19.2822 33.4223 17.3521C32.0553 15.4345 30.1431 13.9693 27.9319 13.1572C25.6762 12.3292 23.1465 12.248 20.8373 12.9056C18.6137 13.5392 16.5855 14.858 15.1158 16.6453C13.5945 18.496 12.6754 20.7643 12.4934 23.1549C12.3122 25.5311 12.894 27.9547 14.1334 29.9901C15.3273 31.9505 17.1146 33.5549 19.2088 34.4999C21.4351 35.5047 23.9255 35.7866 26.3213 35.3048C28.5976 34.847 30.7222 33.662 32.3256 31.9853C33.9353 30.3024 35.0329 28.1287 35.3862 25.8229C35.4781 25.2197 35.5308 24.6138 35.5325 24.0035C35.5325 23.7313 35.2925 23.4707 35.0123 23.4832C34.7304 23.4957 34.493 23.7117 34.4921 24.0035L34.4957 24.0008Z" fill="#26A5BB"/>
<path d="M31.0955 24.0007C31.0955 24.2032 31.0875 24.4058 31.0714 24.6075C31.0643 24.7003 31.0554 24.7931 31.0447 24.8859C31.042 24.9117 31.0232 25.0438 31.0339 24.9742C31.0455 24.8992 31.0322 24.9849 31.0295 25.0036C31.0259 25.0295 31.0215 25.0554 31.017 25.0822C30.9554 25.4623 30.8662 25.8371 30.7475 26.2029C30.6886 26.3868 30.6199 26.567 30.5485 26.7464C30.5387 26.7705 30.5164 26.8392 30.5566 26.7285C30.5503 26.7464 30.5414 26.7642 30.5334 26.7812C30.5155 26.8222 30.4977 26.8633 30.4789 26.9034C30.4361 26.9962 30.3924 27.0881 30.346 27.1791C30.1764 27.5129 29.9828 27.8341 29.766 28.1393C29.7151 28.2116 29.6607 28.2812 29.6089 28.3534C29.575 28.4007 29.6304 28.3249 29.6321 28.3231C29.6161 28.3427 29.6009 28.3633 29.5849 28.3829C29.5536 28.4221 29.5215 28.4614 29.4894 28.5007C29.368 28.6461 29.2422 28.7871 29.1101 28.9236C28.979 29.0602 28.8425 29.1913 28.7006 29.3172C28.6346 29.376 28.5676 29.434 28.4998 29.4903C28.4659 29.5188 28.432 29.5465 28.3972 29.5741C28.382 29.5857 28.3678 29.5973 28.3526 29.6098C28.2553 29.6884 28.4115 29.567 28.3526 29.6098C28.051 29.832 27.7431 30.0408 27.4148 30.222C27.2479 30.3148 27.0766 30.4004 26.9026 30.4799C26.8616 30.4986 26.8205 30.5164 26.7804 30.5343C26.7634 30.5423 26.7456 30.5503 26.7277 30.5575C26.8384 30.5173 26.7696 30.5396 26.7456 30.5495C26.6563 30.5851 26.5671 30.6208 26.4761 30.6539C26.1165 30.785 25.7471 30.8894 25.3714 30.9653C25.275 30.9849 25.1778 31.0019 25.0805 31.0179C25.0359 31.0251 24.9886 31.0367 24.9431 31.0384C24.9458 31.0384 25.0439 31.026 24.9833 31.0331C24.9502 31.0376 24.9172 31.0411 24.8842 31.0456C24.6843 31.0688 24.4845 31.084 24.2837 31.0911C23.8866 31.1054 23.4887 31.0902 23.0943 31.0429C23.0452 31.0367 22.947 31.034 23.055 31.0384C23.0095 31.0367 22.9631 31.0251 22.9176 31.0179C22.8203 31.0019 22.7231 30.9849 22.6267 30.9653C22.4349 30.9269 22.2448 30.8805 22.0565 30.827C21.87 30.7743 21.6862 30.7145 21.5042 30.6476C21.4194 30.6164 21.3364 30.5834 21.2526 30.5495C21.1651 30.5147 21.3391 30.5878 21.2178 30.5343C21.1714 30.5138 21.1241 30.4932 21.0777 30.4718C20.7368 30.3148 20.4084 30.1327 20.0944 29.9275C19.9355 29.8231 19.7812 29.7133 19.6304 29.5982C19.7133 29.6616 19.6375 29.6036 19.6018 29.5741C19.567 29.5465 19.5331 29.5188 19.4992 29.4903C19.4216 29.426 19.3448 29.36 19.2699 29.2922C18.9933 29.0432 18.7354 28.7737 18.498 28.4873C18.4695 28.4534 18.4418 28.4186 18.4142 28.3847C18.4026 28.3695 18.391 28.3543 18.3785 28.3401C18.3312 28.2847 18.4329 28.4141 18.3901 28.3552C18.3338 28.2785 18.2767 28.2035 18.2214 28.1259C18.1117 27.9706 18.0082 27.8109 17.91 27.6485C17.8154 27.4906 17.7262 27.329 17.6432 27.164C17.6004 27.0783 17.5584 26.9926 17.5192 26.9052C17.5004 26.8641 17.4826 26.824 17.4647 26.7829C17.4567 26.766 17.4487 26.7481 17.4415 26.7303C17.463 26.791 17.4665 26.7901 17.4415 26.7303C17.2997 26.376 17.181 26.0138 17.0927 25.6426C17.0472 25.4516 17.0088 25.258 16.9776 25.0634C16.974 25.0429 16.9517 24.9001 16.9642 24.976C16.9749 25.0456 16.9561 24.9135 16.9535 24.8876C16.9419 24.7886 16.932 24.6887 16.9249 24.5887C16.8946 24.1916 16.8955 23.7928 16.9267 23.3957C16.9338 23.3029 16.9428 23.2101 16.9535 23.1173C16.9561 23.0905 16.9597 23.0646 16.9633 23.0379C16.9731 22.9549 16.9704 23.0548 16.9606 23.0584C16.9713 23.0557 16.982 22.9156 16.9847 22.9013C17.0168 22.7077 17.0561 22.515 17.1025 22.324C17.1935 21.9519 17.3193 21.595 17.4567 21.2389C17.4781 21.1836 17.4424 21.2719 17.4415 21.2746C17.4505 21.2505 17.4621 21.2273 17.4719 21.2041C17.4897 21.1631 17.5085 21.122 17.5272 21.0819C17.5674 20.9953 17.6093 20.9088 17.6521 20.8231C17.7387 20.6527 17.8315 20.4867 17.9296 20.3234C18.0251 20.1664 18.1259 20.0129 18.2321 19.863C18.2874 19.7853 18.3437 19.7095 18.4008 19.6345C18.3392 19.7157 18.3936 19.6452 18.4249 19.606C18.4561 19.5667 18.4882 19.5274 18.5212 19.4891C18.7604 19.2035 19.02 18.9358 19.2975 18.6878C19.3636 18.6289 19.4305 18.5709 19.4983 18.5147C19.5322 18.4861 19.5661 18.4584 19.6009 18.4308C19.6205 18.4147 19.6411 18.3995 19.6598 18.3835C19.5599 18.4584 19.716 18.3371 19.6598 18.3835C19.8061 18.2737 19.956 18.1666 20.1095 18.0667C20.4236 17.8624 20.7529 17.6803 21.0946 17.5242C21.141 17.5028 21.1883 17.4822 21.2347 17.4617C21.3213 17.4233 21.1473 17.4965 21.2695 17.4474C21.3587 17.4117 21.4489 17.3769 21.539 17.3439C21.721 17.2779 21.9057 17.219 22.0922 17.1672C22.2742 17.1164 22.4589 17.0727 22.6437 17.0361C22.7338 17.0182 22.8248 17.0022 22.9158 16.987C22.9229 16.9861 23.0505 16.9736 23.0532 16.9665C23.0505 16.9763 22.9497 16.979 23.0327 16.9691C23.0657 16.9656 23.0987 16.9611 23.1317 16.9575C23.527 16.9129 23.925 16.8987 24.3221 16.9156C24.5228 16.9236 24.7227 16.9406 24.9217 16.9647C24.9413 16.9674 24.961 16.97 24.9806 16.9718C25.043 16.979 24.9413 16.9674 24.9404 16.9665C24.9422 16.9736 25.085 16.9888 25.0975 16.9906C25.1947 17.0066 25.292 17.0245 25.3884 17.0441C25.7631 17.1208 26.1325 17.2252 26.4912 17.3582C26.576 17.3894 26.659 17.4224 26.7429 17.4564C26.8303 17.4912 26.7393 17.4537 26.725 17.4483C26.7491 17.4573 26.7723 17.4689 26.7955 17.4787C26.8419 17.4992 26.8892 17.5206 26.9356 17.542C27.1034 17.6197 27.2675 17.7035 27.4291 17.7937C27.7565 17.9757 28.067 18.1827 28.3651 18.4085C28.2562 18.3255 28.3874 18.4272 28.4088 18.4442C28.4436 18.4718 28.4775 18.5004 28.5114 18.528C28.5837 18.5887 28.6551 18.6512 28.7256 18.7145C28.8665 18.8412 29.0022 18.9733 29.1325 19.1098C29.2592 19.2419 29.3805 19.3784 29.4974 19.5194C29.526 19.5533 29.5536 19.5881 29.5813 19.622C29.5973 19.6417 29.6125 19.6622 29.6286 19.6818C29.6268 19.68 29.5706 19.6051 29.6054 19.6515C29.6652 19.7327 29.7267 19.8139 29.7847 19.896C29.9998 20.202 30.1925 20.5251 30.3603 20.8597C30.4004 20.9391 30.4388 21.0203 30.4763 21.1015C30.495 21.1426 30.5128 21.1836 30.5307 21.2238C30.5378 21.2398 30.5708 21.3175 30.5423 21.2496C30.5111 21.1756 30.5583 21.2898 30.5601 21.2943C30.6297 21.4674 30.6931 21.6431 30.7502 21.8207C30.8671 22.1875 30.9563 22.5631 31.017 22.9433C31.0215 22.9691 31.042 23.1003 31.0304 23.0307C31.0188 22.9549 31.0384 23.0985 31.0411 23.1191C31.0527 23.2181 31.0625 23.318 31.0696 23.418C31.0848 23.6134 31.0911 23.8088 31.0919 24.0042C31.0919 24.2764 31.3311 24.537 31.6122 24.5245C31.8932 24.512 32.1333 24.296 32.1324 24.0042C32.1279 22.3409 31.6175 20.6812 30.6503 19.324C29.6812 17.9659 28.3356 16.9317 26.7688 16.3543C25.1849 15.7708 23.4012 15.7145 21.7781 16.175C20.2148 16.6176 18.7818 17.5429 17.7485 18.7975C16.6688 20.1084 16.0192 21.7029 15.8854 23.3975C15.7542 25.067 16.1629 26.7767 17.0311 28.208C17.869 29.5911 19.128 30.7306 20.6039 31.3972C22.185 32.111 23.9437 32.3136 25.6462 31.9709C27.2452 31.6488 28.7425 30.8127 29.8686 29.6348C31 28.4525 31.7781 26.9239 32.0262 25.3035C32.0922 24.8725 32.1315 24.4397 32.1324 24.0042C32.1324 23.7321 31.8923 23.4715 31.6122 23.484C31.3293 23.4965 31.0928 23.7125 31.0919 24.0042L31.0955 24.0007Z" fill="#26A5BB"/>
<path d="M28.0483 24.0008C28.0483 24.1151 28.0439 24.2293 28.0358 24.3435C28.0314 24.4033 28.0251 24.4631 28.0189 24.522C28.0117 24.5907 27.9948 24.5336 28.0224 24.5014C28.0117 24.5148 28.0073 24.6005 28.0046 24.6183C27.968 24.8361 27.9163 25.0511 27.8485 25.2617C27.8154 25.3652 27.7851 25.4928 27.7298 25.5865C27.7878 25.4874 27.7253 25.5972 27.7066 25.6374C27.6798 25.6954 27.6521 25.7525 27.6236 25.8087C27.5228 26.0059 27.4085 26.196 27.2801 26.3762C27.264 26.3985 27.1498 26.5493 27.2372 26.4378C27.206 26.477 27.1748 26.5163 27.1426 26.5556C27.0704 26.6421 26.9945 26.7269 26.916 26.8081C26.8419 26.8848 26.7643 26.9589 26.6849 27.0303C26.643 27.0678 26.6001 27.1052 26.5564 27.1418C26.5368 27.1579 26.518 27.1739 26.4984 27.19C26.4859 27.1998 26.3994 27.265 26.4618 27.2195C26.5296 27.1704 26.4288 27.2435 26.4234 27.2471C26.4029 27.2623 26.3824 27.2766 26.3619 27.2908C26.3208 27.3203 26.2789 27.3479 26.237 27.3756C26.1415 27.4381 26.0442 27.497 25.9443 27.5514C25.8497 27.6032 25.7533 27.6522 25.6552 27.6977C25.6222 27.7129 25.4714 27.7977 25.5865 27.729C25.5347 27.7602 25.4642 27.7772 25.4071 27.7977C25.2001 27.8717 24.9877 27.9315 24.7727 27.9753C24.7147 27.9869 24.6567 27.9976 24.5987 28.0065C24.5728 28.0109 24.5469 28.0145 24.5211 28.0181C24.439 28.0315 24.6522 28.0056 24.5211 28.0181C24.4015 28.0288 24.2819 28.0404 24.1615 28.0449C23.9259 28.0529 23.693 28.0377 23.4583 28.0163C23.3825 28.0092 23.5538 28.0315 23.4789 28.019C23.453 28.0145 23.4271 28.0109 23.4012 28.0074C23.3432 27.9976 23.2852 27.9877 23.2272 27.9761C23.113 27.9529 22.9988 27.9253 22.8864 27.8932C22.7811 27.8637 22.6767 27.8298 22.5741 27.7923C22.5259 27.7745 22.4786 27.754 22.4304 27.737C22.3546 27.7102 22.5455 27.7896 22.4304 27.737C22.401 27.7236 22.3724 27.7111 22.343 27.6977C22.1422 27.6049 21.9477 27.497 21.7621 27.3756C21.7201 27.3479 21.6782 27.3194 21.6372 27.2908C21.6113 27.273 21.5863 27.2543 21.5604 27.2355C21.5461 27.2248 21.4792 27.1775 21.5372 27.2195C21.5952 27.2614 21.5292 27.2132 21.5158 27.2016C21.4917 27.182 21.4667 27.1623 21.4426 27.1418C21.3989 27.1052 21.3561 27.0686 21.3141 27.0303C21.1509 26.883 20.9974 26.7242 20.8564 26.5556C20.8403 26.5359 20.8243 26.5172 20.8082 26.4976C20.8037 26.4922 20.7297 26.3932 20.7788 26.461C20.8207 26.5199 20.7734 26.4529 20.7627 26.4378C20.7484 26.4173 20.7333 26.3967 20.7181 26.3762C20.6485 26.278 20.5833 26.1781 20.5218 26.0746C20.47 25.9872 20.421 25.8988 20.3746 25.8087C20.3487 25.7578 20.3237 25.7061 20.2996 25.6543C20.2889 25.6311 20.2782 25.6079 20.2684 25.5847C20.2407 25.524 20.2371 25.5321 20.2684 25.5856C20.1577 25.3973 20.106 25.135 20.056 24.9244C20.0319 24.8227 20.0114 24.72 19.9935 24.6174C19.9882 24.5853 19.9837 24.5523 19.9784 24.5202C19.9668 24.4452 19.9882 24.6165 19.981 24.5407C19.9748 24.4747 19.9668 24.4086 19.9623 24.3426C19.9445 24.1079 19.9454 23.8714 19.9641 23.6377C19.9686 23.585 19.9739 23.5315 19.9793 23.4788C19.9891 23.3816 19.9766 23.4833 19.9757 23.4993C19.9784 23.4672 19.9855 23.4342 19.9909 23.4021C20.0096 23.2861 20.0328 23.171 20.0605 23.0568C20.1104 22.8524 20.1604 22.5972 20.2684 22.4143C20.2023 22.5258 20.2755 22.3982 20.2916 22.3634C20.3157 22.3117 20.3406 22.2599 20.3656 22.209C20.4201 22.102 20.4781 21.9967 20.5405 21.8932C20.5932 21.8066 20.6485 21.7227 20.7065 21.6397C20.7359 21.5987 20.7654 21.5585 20.7957 21.5175C20.7154 21.6272 20.8332 21.472 20.8555 21.4452C21.0001 21.2712 21.158 21.1079 21.3275 20.958C21.4025 20.8911 21.4801 20.8268 21.5595 20.7644C21.4524 20.8491 21.5943 20.7403 21.6211 20.7215C21.6675 20.6885 21.7139 20.6564 21.7621 20.6261C21.953 20.5011 22.1529 20.3905 22.3599 20.2959C22.3831 20.2852 22.4063 20.2754 22.4295 20.2647C22.517 20.2254 22.4233 20.2647 22.4108 20.2727C22.4518 20.2477 22.508 20.2334 22.5535 20.2174C22.6687 20.1754 22.7847 20.1371 22.9024 20.104C23.0086 20.0746 23.1166 20.0487 23.2246 20.0264C23.2763 20.0157 23.3272 20.0068 23.3789 19.9979C23.4048 19.9934 23.4307 19.9898 23.4566 19.9854C23.5904 19.964 23.3406 19.997 23.4753 19.9836C23.7091 19.9595 23.9437 19.9488 24.1793 19.9577C24.2926 19.9622 24.406 19.972 24.5184 19.9836C24.6237 19.9943 24.5041 19.9863 24.4979 19.98C24.5041 19.9863 24.5621 19.9898 24.5764 19.9916C24.6415 20.0014 24.7058 20.013 24.77 20.0264C24.9984 20.0728 25.2224 20.1362 25.441 20.2165C25.4865 20.2334 25.5427 20.2468 25.5838 20.2718C25.5713 20.2647 25.4785 20.2254 25.5651 20.2638C25.5883 20.2745 25.6115 20.2843 25.6347 20.295C25.7382 20.3423 25.8408 20.3941 25.9407 20.4494C26.0407 20.5047 26.1379 20.5636 26.2334 20.6252C26.2753 20.6528 26.3173 20.6814 26.3583 20.7099C26.3895 20.7322 26.5412 20.8474 26.435 20.7635C26.6082 20.9 26.7723 21.0463 26.9249 21.2052C26.999 21.2819 27.0704 21.3622 27.1391 21.4443C27.1712 21.4827 27.2024 21.522 27.2337 21.5621C27.1489 21.455 27.2667 21.6094 27.2872 21.6388C27.4148 21.82 27.5281 22.0101 27.6281 22.2082C27.6539 22.259 27.6789 22.3108 27.7021 22.3625C27.7182 22.3973 27.7922 22.5249 27.7253 22.4134C27.7815 22.5071 27.811 22.6356 27.844 22.7382C27.9136 22.955 27.9671 23.1763 28.0028 23.4012C28.0082 23.4333 28.0144 23.4663 28.018 23.4985C28.0162 23.4824 28.0046 23.3807 28.0144 23.4779C28.0198 23.5306 28.0251 23.5832 28.0296 23.6368C28.0394 23.7572 28.043 23.8786 28.0439 23.999C28.0448 24.2712 28.2821 24.5318 28.5641 24.5193C28.8451 24.5068 29.0852 24.2908 29.0843 23.999C29.0798 22.9648 28.7666 21.9253 28.1634 21.082C27.5486 20.2227 26.7081 19.5776 25.7167 19.2117C23.7528 18.4863 21.423 19.1189 20.0953 20.7376C19.4135 21.5684 19.0075 22.5651 18.9228 23.6377C18.8416 24.6745 19.1021 25.7453 19.642 26.6332C20.164 27.4916 20.9492 28.2081 21.8683 28.6195C22.8694 29.0684 23.9678 29.196 25.0457 28.9782C27.0543 28.5713 28.7015 26.8661 29.0129 24.8361C29.0557 24.5585 29.0834 24.281 29.0843 23.9999C29.0852 23.7278 28.8443 23.4672 28.5641 23.4797C28.2812 23.4922 28.0448 23.7082 28.0439 23.9999L28.0483 24.0008Z" fill="#26A5BB"/>
</g>
<defs>
<clipPath id="clip0_2137_17038">
<rect width="30" height="30" fill="white" transform="translate(9 9)"/>
</clipPath>
</defs>
</svg>
