<svg width="20" height="20" viewBox="0 0 20 20" fill="none" xmlns="http://www.w3.org/2000/svg">
<path d="M9.58268 17.5H7.91602H6.24935H3.74935C3.28911 17.5 2.91602 17.1269 2.91602 16.6667V3.33333C2.91602 2.8731 3.28911 2.5 3.74935 2.5H15.416C15.8763 2.5 16.2493 2.8731 16.2493 3.33333V6.25V8.125" stroke="#525252" stroke-width="1.6" stroke-linecap="round" stroke-linejoin="round"/>
<path d="M15.2645 11.25C16.2686 11.25 17.0827 12.0335 17.0827 13C17.0827 14.2582 15.8706 15.3333 15.2645 15.9167C14.8605 16.3055 14.3554 16.6945 13.7493 17.0833C13.1433 16.6945 12.6382 16.3055 12.2342 15.9167C11.6281 15.3333 10.416 14.2582 10.416 13C10.416 12.0335 11.2301 11.25 12.2342 11.25C12.8666 11.25 13.4236 11.5608 13.7493 12.0323C14.0751 11.5608 14.6321 11.25 15.2645 11.25Z" stroke="#525252" stroke-width="1.6" stroke-linejoin="round"/>
<path d="M6.25 5.83337H12.9167" stroke="#525252" stroke-width="1.6" stroke-linecap="round"/>
</svg>
