<svg width="20" height="20" viewBox="0 0 20 20" fill="none" xmlns="http://www.w3.org/2000/svg">
<g clip-path="url(#clip0_2265_23873)">
<path d="M18.8417 5.87485L14.1667 1.15818C14.0888 1.08095 13.9965 1.01985 13.8949 0.978375C13.7934 0.936905 13.6847 0.915884 13.575 0.916518C13.3564 0.917438 13.1469 1.00423 12.9917 1.15818L1.15834 12.9499C1.00313 13.106 0.916016 13.3172 0.916016 13.5374C0.916016 13.7575 1.00313 13.9687 1.15834 14.1249L5.87501 18.8415C5.95288 18.9188 6.04522 18.9799 6.14675 19.0213C6.24828 19.0628 6.357 19.0838 6.46668 19.0832C6.68529 19.0823 6.89479 18.9955 7.05001 18.8415L9.40834 16.4832L16.4833 9.40818L18.8417 7.04985C18.9969 6.89372 19.084 6.68251 19.084 6.46235C19.084 6.2422 18.9969 6.03099 18.8417 5.87485ZM15.8917 7.64152L15.3 7.04985C15.1439 6.89464 14.9327 6.80752 14.7125 6.80752C14.4924 6.80752 14.2811 6.89464 14.125 7.04985C14.0469 7.12732 13.9849 7.21949 13.9426 7.32104C13.9003 7.42259 13.8785 7.53151 13.8785 7.64152C13.8785 7.75153 13.9003 7.86045 13.9426 7.962C13.9849 8.06355 14.0469 8.15572 14.125 8.23318L14.7167 8.82485L13.5333 9.99985L11.7667 8.23318C11.6073 8.09666 11.4022 8.02532 11.1925 8.03342C10.9827 8.04153 10.7838 8.12847 10.6354 8.27688C10.487 8.42529 10.4 8.62424 10.3919 8.83397C10.3838 9.0437 10.4552 9.24877 10.5917 9.40818L12.3583 11.1749L11.175 12.3582L10.5917 11.7665C10.4348 11.6096 10.2219 11.5214 10 11.5214C9.77809 11.5214 9.56526 11.6096 9.40834 11.7665C9.25142 11.9234 9.16327 12.1363 9.16327 12.3582C9.16327 12.5801 9.25142 12.7929 9.40834 12.9499L10 13.5332L8.82501 14.7165L7.05001 12.9499C6.89387 12.7946 6.68266 12.7075 6.46251 12.7075C6.24235 12.7075 6.03115 12.7946 5.87501 12.9499C5.7198 13.106 5.63268 13.3172 5.63268 13.5374C5.63268 13.7575 5.7198 13.9687 5.87501 14.1249L7.64168 15.8915L6.46668 17.0749L2.92501 13.5332L13.5333 2.92485L17.075 6.46652L15.8917 7.64152Z" fill="#A3A3A3"/>
</g>
<defs>
<clipPath id="clip0_2265_23873">
<rect width="20" height="20" fill="white"/>
</clipPath>
</defs>
</svg>
