<svg width="12" height="12" viewBox="0 0 12 12" fill="none" xmlns="http://www.w3.org/2000/svg">
<path d="M4.5 5.25C4.59889 5.25 4.69556 5.22068 4.77779 5.16573C4.86001 5.11079 4.9241 5.03271 4.96194 4.94134C4.99978 4.84998 5.00969 4.74945 4.99039 4.65246C4.9711 4.55546 4.92348 4.46637 4.85355 4.39645C4.78363 4.32652 4.69454 4.2789 4.59755 4.25961C4.50055 4.24031 4.40002 4.25022 4.30866 4.28806C4.2173 4.3259 4.13921 4.38999 4.08427 4.47221C4.02932 4.55444 4 4.65111 4 4.75C4 4.88261 4.05268 5.00979 4.14645 5.10355C4.24021 5.19732 4.36739 5.25 4.5 5.25ZM7.5 6.25H4.5C4.36739 6.25 4.24021 6.30268 4.14645 6.39645C4.05268 6.49021 4 6.61739 4 6.75C4 7.28043 4.21071 7.78914 4.58579 8.16421C4.96086 8.53929 5.46957 8.75 6 8.75C6.53043 8.75 7.03914 8.53929 7.41421 8.16421C7.78929 7.78914 8 7.28043 8 6.75C8 6.61739 7.94732 6.49021 7.85355 6.39645C7.75979 6.30268 7.63261 6.25 7.5 6.25ZM6 7.75C5.82464 7.74982 5.65241 7.70353 5.50058 7.61577C5.34876 7.52801 5.22268 7.40187 5.135 7.25H6.865C6.77732 7.40187 6.65124 7.52801 6.49942 7.61577C6.3476 7.70353 6.17536 7.74982 6 7.75ZM7.5 4.25C7.40111 4.25 7.30444 4.27932 7.22221 4.33427C7.13999 4.38921 7.0759 4.4673 7.03806 4.55866C7.00022 4.65002 6.99031 4.75055 7.00961 4.84755C7.0289 4.94454 7.07652 5.03363 7.14645 5.10355C7.21637 5.17348 7.30546 5.2211 7.40246 5.24039C7.49945 5.25969 7.59998 5.24978 7.69134 5.21194C7.78271 5.1741 7.86079 5.11001 7.91574 5.02779C7.97068 4.94556 8 4.84889 8 4.75C8 4.61739 7.94732 4.49022 7.85355 4.39645C7.75979 4.30268 7.63261 4.25 7.5 4.25Z" fill="#61C883"/>
<path d="M10.0909 6C10.0909 3.74065 8.25935 1.90909 6 1.90909C3.74065 1.90909 1.90909 3.74065 1.90909 6C1.90909 8.25935 3.74065 10.0909 6 10.0909C8.25935 10.0909 10.0909 8.25935 10.0909 6ZM11 6C11 8.76142 8.76142 11 6 11C3.23858 11 1 8.76142 1 6C1 3.23858 3.23858 1 6 1C8.76142 1 11 3.23858 11 6Z" fill="#61C883"/>
</svg>
