<svg width="20" height="20" viewBox="0 0 20 20" fill="none" xmlns="http://www.w3.org/2000/svg">
<path d="M8.92383 7.74292C8.08175 8.14513 7.5 9.00463 7.5 10C7.5 11.3808 8.61929 12.5 10 12.5C10.9954 12.5 11.855 11.9183 12.2572 11.0763" stroke="#525252" stroke-width="1.5" stroke-linecap="round" stroke-linejoin="round"/>
<path d="M11.7837 4.88354C11.2253 4.689 10.6253 4.58325 10.0007 4.58325C7.00911 4.58325 4.58398 7.00838 4.58398 9.99992C4.58398 12.9915 7.00911 15.4166 10.0007 15.4166C12.9922 15.4166 15.4173 12.9915 15.4173 9.99992C15.4173 9.37525 15.3116 8.77525 15.117 8.21688" stroke="#525252" stroke-width="1.5" stroke-linecap="round" stroke-linejoin="round"/>
<path d="M13.9858 2.68031C12.8016 2.03404 11.4434 1.66675 9.99935 1.66675C5.39697 1.66675 1.66602 5.39771 1.66602 10.0001C1.66602 14.6025 5.39697 18.3334 9.99935 18.3334C14.6017 18.3334 18.3327 14.6025 18.3327 10.0001C18.3327 8.55604 17.9654 7.19779 17.3191 6.01362" stroke="#525252" stroke-width="1.5" stroke-linecap="round" stroke-linejoin="round"/>
<path d="M18.3333 1.66675L10 10.0001" stroke="#525252" stroke-linecap="round" stroke-linejoin="round"/>
</svg>
