<svg width="16" height="13" viewBox="0 0 16 13" fill="none" xmlns="http://www.w3.org/2000/svg">
<path fill-rule="evenodd" clip-rule="evenodd" d="M8.15094 1.29619C8.9737 0.504148 10.0771 0.0431536 11.2369 0.00288143L11.403 0C12.6232 0 13.7931 0.466432 14.6548 1.29593C15.5162 2.12446 16 3.24783 16 4.41893C16 5.73949 15.7621 6.36333 14.6829 7.51344L14.5339 7.66914L14.256 7.94901L14.0345 8.16653L13.5933 8.59118L12.7154 9.41721L11.9574 10.119L11.0899 10.9143L9.2517 12.5826C8.65273 13.1234 7.72253 13.1408 7.10158 12.6226L6.22442 11.8879L5.02869 10.876L4.48564 10.4112L3.66158 9.69745L2.93859 9.05949L2.55321 8.713L2.09575 8.29325L1.79486 8.01003L1.5301 7.75385L1.30141 7.52464C-0.423705 5.75798 -0.449661 2.99758 1.3187 1.29606C3.11416 -0.431546 6.02707 -0.431546 7.82253 1.29606L7.98672 1.45378L8.15094 1.29619ZM13.6064 2.34973C13.0358 1.80551 12.2623 1.5 11.4561 1.5C10.6499 1.5 9.87642 1.80551 9.30565 2.34986L8.56266 3.05812C8.24499 3.36095 7.72803 3.36095 7.41036 3.05812L6.66738 2.34986C5.47918 1.21719 3.55465 1.21719 2.36645 2.34986C1.19962 3.46216 1.21702 5.29544 2.38401 6.47942L2.60489 6.69857L2.86313 6.94576L3.05603 7.12609L3.4915 7.52398L3.99311 7.97141L4.56074 8.46824L5.36291 9.15855L6.0786 9.76607L6.85989 10.4226L8.15588 11.5L9.30107 10.4726L10.476 9.41054L11.6056 8.37757L12.1958 7.83031L12.6965 7.359L13.1075 6.96386L13.3717 6.70276L13.5781 6.49069L13.7689 6.28565L13.9318 6.10142C14.3807 5.57542 14.4818 5.26908 14.4976 4.63154L14.5 4.40601C14.5 3.63446 14.1785 2.89479 13.6064 2.34973Z" fill="#A3A3A3"/>
</svg>
