<svg width="16" height="16" viewBox="0 0 16 16" fill="none" xmlns="http://www.w3.org/2000/svg">
<path fill-rule="evenodd" clip-rule="evenodd" d="M8.00066 2.3335C6.87989 2.3335 5.7843 2.66584 4.85242 3.2885C3.92054 3.91116 3.19423 4.79618 2.76534 5.83162C2.33644 6.86707 2.22422 8.00645 2.44287 9.10568C2.66152 10.2049 3.20122 11.2146 3.99372 12.0071C4.78621 12.7996 5.79592 13.3393 6.89514 13.5579C7.99437 13.7766 9.13375 13.6644 10.1692 13.2355C11.2046 12.8066 12.0897 12.0803 12.7123 11.1484C13.335 10.2165 13.6673 9.12092 13.6673 8.00016C13.6673 7.25601 13.5207 6.51913 13.236 5.83162C12.9512 5.14411 12.5338 4.51942 12.0076 3.99322C11.4814 3.46703 10.8567 3.04962 10.1692 2.76485C9.48168 2.48007 8.74481 2.3335 8.00066 2.3335ZM4.29685 2.45703C5.39318 1.72449 6.68211 1.3335 8.00066 1.3335C8.87613 1.3335 9.74304 1.50593 10.5519 1.84097C11.3607 2.176 12.0956 2.66706 12.7147 3.28612C13.3338 3.90517 13.8248 4.6401 14.1599 5.44894C14.4949 6.25778 14.6673 7.12468 14.6673 8.00016C14.6673 9.31871 14.2763 10.6076 13.5438 11.704C12.8112 12.8003 11.7701 13.6548 10.5519 14.1594C9.3337 14.6639 7.99326 14.796 6.70005 14.5387C5.40685 14.2815 4.21896 13.6466 3.28661 12.7142C2.35426 11.7819 1.71932 10.594 1.46209 9.30077C1.20485 8.00756 1.33687 6.66711 1.84146 5.44894C2.34604 4.23077 3.20052 3.18958 4.29685 2.45703Z" fill="#525252"/>
</svg>
