<svg width="16" height="16" viewBox="0 0 16 16" fill="none" xmlns="http://www.w3.org/2000/svg">
<path fill-rule="evenodd" clip-rule="evenodd" d="M2.66602 7.99992C2.66602 7.63173 2.96449 7.33325 3.33268 7.33325H12.666C13.0342 7.33325 13.3327 7.63173 13.3327 7.99992C13.3327 8.36811 13.0342 8.66659 12.666 8.66659H3.33268C2.96449 8.66659 2.66602 8.36811 2.66602 7.99992Z" fill="#525252"/>
<path fill-rule="evenodd" clip-rule="evenodd" d="M8.47075 2.86201C8.7311 3.12236 8.7311 3.54447 8.47075 3.80482L4.27549 8.00008L8.47075 12.1953C8.7311 12.4557 8.7311 12.8778 8.47075 13.1382C8.2104 13.3985 7.78829 13.3985 7.52794 13.1382L2.86128 8.47149C2.60093 8.21114 2.60093 7.78903 2.86128 7.52868L7.52794 2.86201C7.78829 2.60166 8.2104 2.60166 8.47075 2.86201Z" fill="#525252"/>
</svg>
