<svg width="41" height="40" viewBox="0 0 41 40" fill="none" xmlns="http://www.w3.org/2000/svg">
<path fill-rule="evenodd" clip-rule="evenodd" d="M20.3904 8.9912C22.2416 7.16342 24.7242 6.09959 27.3339 6.00665L27.7075 6C30.4529 6 33.0852 7.07638 35.024 8.99061C36.9623 10.9026 38.0508 13.495 38.0508 16.1975C38.0508 19.245 37.5155 20.6846 35.0873 23.3387L34.7521 23.698L34.1269 24.3439L33.6284 24.8458L32.6357 25.8258L30.6604 27.732L28.9549 29.3516L27.0032 31.1869L22.8671 35.0367C21.5194 36.2847 19.4265 36.3249 18.0293 35.1291L16.0557 33.4337L13.3653 31.0985L12.1435 30.026L10.2893 28.3787L8.66261 26.9065L7.79551 26.1069L6.76621 25.1383L6.08922 24.4847L5.49351 23.8935L4.97896 23.3645C1.09744 19.2876 1.03904 12.9175 5.01785 8.9909C9.05765 5.00412 15.6117 5.00413 19.6515 8.9909L20.0209 9.35487L20.3904 8.9912ZM22.3724 23.7462L27.9286 16.9554C28.1045 16.7405 28.0888 16.4272 27.8925 16.231L27.8198 16.1583C27.6236 15.962 27.3102 15.9463 27.0954 16.1222L20.3045 21.6784C19.7211 21.6539 19.1293 21.864 18.6839 22.3095C17.8397 23.1536 17.8397 24.5227 18.6839 25.3669C19.5281 26.211 20.8972 26.211 21.7413 25.3669C22.1868 24.9212 22.3969 24.3297 22.3724 23.7462Z" fill="#525252"/>
</svg>
