<svg width="41" height="40" viewBox="0 0 41 40" fill="none" xmlns="http://www.w3.org/2000/svg">
<path d="M26.0423 16.5894C26.8355 15.752 27.3877 14.9258 27.8718 14.0489C28.4184 13.0575 29.0866 12.9355 29.8338 13.7429C33.6328 17.8399 34.8457 22.6711 33.2021 28.0149C31.5677 33.3287 27.8994 36.6766 22.512 37.7337C13.2429 39.5513 5.0229 31.8116 5.99656 22.2336C6.42541 18.007 8.42612 14.616 11.8165 12.1356C14.5331 10.1471 16.2964 7.55222 16.9259 4.18557C16.994 3.81755 17.0234 3.44202 17.0842 3.074C17.248 2.07133 17.8996 1.73147 18.7757 2.22154C22.2967 4.19121 24.5919 7.16354 25.6778 11.0991C26.1619 12.851 26.2815 14.6385 26.0441 16.5894H26.0423Z" fill="#525252"/>
</svg>
