<svg width="41" height="40" viewBox="0 0 41 40" fill="none" xmlns="http://www.w3.org/2000/svg">
<path d="M6.24344 7.88624C10.0525 4.0497 16.2259 4.03796 20.0495 7.851C23.873 4.03796 30.0465 4.0497 33.8555 7.88624C37.6697 11.7279 37.6697 17.9516 33.8555 21.7933L21.2322 34.5076C20.9193 34.8228 20.4936 35 20.0495 35C19.6054 35 19.1796 34.8228 18.8667 34.5076L7.77248 23.3333H11.7161C12.3474 23.3333 12.9245 22.9767 13.2069 22.412L14.2161 20.3934L15.2254 22.412C15.5078 22.9767 16.0849 23.3333 16.7161 23.3333H21.7161C22.6366 23.3333 23.3828 22.5871 23.3828 21.6667C23.3828 20.7462 22.6366 20 21.7161 20H17.7462L15.7069 15.9213C15.4245 15.3567 14.8474 15 14.2161 15C13.5849 15 13.0078 15.3567 12.7254 15.9213L10.6861 20H5.04948C4.97891 20 4.90936 20.0044 4.8411 20.0129C2.50727 16.2203 2.97472 11.1785 6.24344 7.88624Z" fill="#525252"/>
</svg>
