<svg width="41" height="40" viewBox="0 0 41 40" fill="none" xmlns="http://www.w3.org/2000/svg">
<path fill-rule="evenodd" clip-rule="evenodd" d="M21.7258 2.60117L16.2975 0C9.85757 10.0704 5.89585 16.0358 4.41239 17.8961L3.67332 18.7871C3.00721 19.6207 2.35936 20.5611 1.72978 21.6081C1.05263 22.7342 1.396 24.1949 2.50398 24.9013L9.78336 29.5301C17.8176 34.6217 22.6883 37.6391 24.3953 38.5821L24.7824 38.7879C26.7354 39.7644 31.8353 39.9542 34.3779 39.9911L35.6915 40C39.088 38.9507 37.7726 30.4586 36.9036 29.0909C35.6286 27.0841 33.9297 26.1959 32.1719 25.2769C29.9647 24.123 27.6647 22.9205 25.9945 19.3939C23.9993 15.181 24.8407 13.8496 26.3891 11.3997C27.169 10.1657 28.1283 8.64791 28.9948 6.33508C27.5633 5.50863 25.1403 4.264 21.7258 2.60117ZM22.3581 40L16.2975 36.3636H1.75208V40H22.3581Z" fill="#525252"/>
</svg>
