<svg width="41" height="40" viewBox="0 0 41 40" fill="none" xmlns="http://www.w3.org/2000/svg">
<path d="M21.6781 20.0022C21.6781 22.9732 21.6521 25.9441 21.6881 28.915C21.7102 30.7703 23.053 32.3257 24.8361 32.6956C26.6553 33.0714 28.5245 32.1298 29.295 30.4364C29.5351 29.9106 29.6592 29.3548 29.6592 28.769C29.6572 23.8008 29.6532 18.8327 29.6692 13.8645C29.6692 13.4486 29.5311 13.2727 29.1689 13.0948C26.9935 12.0232 25.9709 9.64404 26.6713 7.37288C27.3377 5.21167 29.5672 3.74821 31.7546 4.0361C34.2061 4.35998 35.9973 6.2293 36.0493 8.64841C36.0913 10.5737 35.2448 12.0911 33.5237 12.9948C32.9533 13.2927 32.8332 13.6186 32.8352 14.1944C32.8553 19.0366 32.8633 23.8808 32.8392 28.725C32.8212 32.3817 30.2036 35.4346 26.7614 35.8804C22.2125 36.4702 18.4701 33.2234 18.4521 28.6231C18.4301 22.8812 18.4521 17.1393 18.4441 11.3974C18.4421 9.46211 17.4214 7.98265 15.7464 7.41686C13.1307 6.53518 10.479 8.44249 10.467 11.2515C10.447 15.8698 10.461 20.4881 10.461 25.1064C10.461 26.4039 10.479 27.7034 10.451 29.0009C10.441 29.4348 10.513 29.6527 11.0093 29.5887C11.3536 29.5427 11.7078 29.5727 12.058 29.5827C12.7484 29.6027 13.2588 29.9286 13.5209 30.5624C13.7691 31.1621 13.7011 31.7659 13.2448 32.2378C12.1501 33.3673 11.0434 34.4869 9.90063 35.5685C9.28024 36.1563 8.41769 36.1383 7.79729 35.5465C6.67858 34.4769 5.58788 33.3753 4.5072 32.2677C4.02689 31.7759 3.92483 31.1641 4.205 30.5364C4.48318 29.9106 4.99951 29.6147 5.68795 29.5767C6.20228 29.5467 6.89872 29.8226 7.1769 29.4468C7.43106 29.1049 7.27096 28.4431 7.27096 27.9233C7.27496 22.3554 7.25495 16.7894 7.27896 11.2215C7.29497 7.61079 9.90864 4.56191 13.3128 4.10408C17.8617 3.4903 21.6221 6.72512 21.6641 11.3154C21.6921 14.2104 21.6701 17.1073 21.6701 20.0042C21.6721 20.0042 21.6741 20.0042 21.6781 20.0042V20.0022Z" fill="#525252"/>
</svg>
