<svg width="41" height="40" viewBox="0 0 41 40" fill="none" xmlns="http://www.w3.org/2000/svg">
<path fill-rule="evenodd" clip-rule="evenodd" d="M13.2357 8.33185C13.2357 4.56627 16.2883 1.51367 20.0539 1.51367C23.8194 1.51367 26.872 4.56627 26.872 8.33185V20.8109C28.9171 22.666 30.2054 25.3487 30.2054 28.3319C30.2054 33.9383 25.6603 38.4834 20.0539 38.4834C14.4474 38.4834 9.90234 33.9383 9.90234 28.3319C9.90234 25.3487 11.1906 22.666 13.2357 20.8109V8.33185ZM21.8719 14.1655C21.8719 13.1613 21.0579 12.3473 20.0537 12.3473C19.0496 12.3473 18.2355 13.1613 18.2355 14.1655V23.5106C16.2877 24.2456 14.9023 26.127 14.9023 28.332C14.9023 31.1771 17.2088 33.4835 20.0539 33.4835C22.8989 33.4835 25.2054 31.1771 25.2054 28.332C25.2054 26.1269 23.8199 24.2454 21.8719 23.5105V14.1655Z" fill="#525252"/>
</svg>
