<svg width="41" height="40" viewBox="0 0 41 40" fill="none" xmlns="http://www.w3.org/2000/svg">
<path fill-rule="evenodd" clip-rule="evenodd" d="M3.37616 7.87793C4.54393 7.87793 5.49059 8.82459 5.49059 9.99237V21.9993H16.2138V13.3151C16.2138 12.1473 17.1605 11.2006 18.3282 11.2006H34.111C36.6551 11.2006 38.7174 13.263 38.7174 15.8071V24.1138V29.9285C38.7174 31.0962 37.7708 32.0429 36.603 32.0429C35.4352 32.0429 34.4886 31.0962 34.4886 29.9285V26.2282L18.3282 26.2282L5.49059 26.2282V29.9285C5.49059 31.0963 4.54393 32.0429 3.37616 32.0429C2.20838 32.0429 1.26172 31.0963 1.26172 29.9285V24.1138V9.99237C1.26172 8.82459 2.20838 7.87793 3.37616 7.87793ZM10.8522 12.0313C8.30812 12.0313 6.24575 14.0937 6.24575 16.6377C6.24575 19.1818 8.30812 21.2442 10.8522 21.2442C13.3963 21.2442 15.4586 19.1818 15.4586 16.6377C15.4586 14.0937 13.3963 12.0313 10.8522 12.0313Z" fill="#525252"/>
</svg>
